<?xml version="1.0" encoding="UTF-8" standalone="no"?>
<!-- Created with Inkscape (http://www.inkscape.org/) -->

<svg
   xmlns:dc="http://purl.org/dc/elements/1.1/"
   xmlns:cc="http://creativecommons.org/ns#"
   xmlns:rdf="http://www.w3.org/1999/02/22-rdf-syntax-ns#"
   xmlns:svg="http://www.w3.org/2000/svg"
   xmlns="http://www.w3.org/2000/svg"
   xmlns:xlink="http://www.w3.org/1999/xlink"
   xmlns:sodipodi="http://sodipodi.sourceforge.net/DTD/sodipodi-0.dtd"
   xmlns:inkscape="http://www.inkscape.org/namespaces/inkscape"
   width="1088.4323"
   height="1268.1886"
   id="svg2"
   version="1.1"
   inkscape:version="0.48.4 r9939"
   sodipodi:docname="flattr.svg">
  <defs
     id="defs4">
    <inkscape:path-effect
       effect="skeletal"
       id="path-effect3950"
       is_visible="true"
       pattern="M 106.25039,1.6e-4 C 74.319858,1.6e-4 46.108238,9.04014 25.687888,32.07827 3.7053178,56.87889 3.7777778e-4,98.3774 3.7777778e-4,108.45165 l 0,90.53287 c 0,28.40267 -8.5e-4,102.72743 0,103.1813 l 10e-6,0.006 103.78125222222,0 93.03125,0 c 33.56441,0 62.09235,-12.68576 78.78125,-31.96875 17.30266,-19.99214 24.79756,-49.69722 24.82829,-70.77145 l 0.14046,-96.3223 C 300.42738,68.74054 300.42243,1.6e-4 300.42243,1.6e-4 L 196.9691,0 z"
       copytype="single_stretched"
       prop_scale="1"
       scale_y_rel="false"
       spacing="0"
       normal_offset="0"
       tang_offset="0"
       prop_units="false"
       vertical_pattern="false"
       fuse_tolerance="0" />
    <inkscape:path-effect
       effect="skeletal"
       id="path-effect3940"
       is_visible="true"
       pattern="M 106.25039,1.6e-4 C 74.319858,1.6e-4 46.108238,9.04014 25.687888,32.07827 3.7053178,56.87889 3.7777778e-4,98.3774 3.7777778e-4,108.45165 l 0,90.53287 c 0,28.40267 -8.5e-4,102.72743 0,103.1813 l 10e-6,0.006 103.78125222222,0 93.03125,0 c 33.56441,0 62.09235,-12.68576 78.78125,-31.96875 17.30266,-19.99214 24.79756,-49.69722 24.82829,-70.77145 l 0.14046,-96.3223 C 300.42738,68.74054 300.42243,1.6e-4 300.42243,1.6e-4 L 196.9691,0 z"
       copytype="single_stretched"
       prop_scale="1"
       scale_y_rel="false"
       spacing="0"
       normal_offset="0"
       tang_offset="0"
       prop_units="false"
       vertical_pattern="false"
       fuse_tolerance="0" />
    <inkscape:path-effect
       effect="skeletal"
       id="path-effect3884"
       is_visible="true"
       pattern="M 0,0 1,0"
       copytype="single_stretched"
       prop_scale="1"
       scale_y_rel="false"
       spacing="0"
       normal_offset="0"
       tang_offset="0"
       prop_units="false"
       vertical_pattern="false"
       fuse_tolerance="0" />
    <inkscape:path-effect
       effect="skeletal"
       id="path-effect3806"
       is_visible="true"
       pattern="m 0.50507627,-0.50507627 1.00000003,0"
       copytype="single_stretched"
       prop_scale="1"
       scale_y_rel="false"
       spacing="0"
       normal_offset="0"
       tang_offset="0"
       prop_units="false"
       vertical_pattern="false"
       fuse_tolerance="0" />
    <clipPath
       clipPathUnits="userSpaceOnUse"
       id="clipPath3858">
      <rect
         style="fill:#000000;fill-opacity:1;stroke:none"
         id="rect3860"
         width="1270"
         height="688.57141"
         x="-2162.8572"
         y="316.64789"
         transform="scale(-1,1)" />
    </clipPath>
    <clipPath
       clipPathUnits="userSpaceOnUse"
       id="clipPath3872">
      <rect
         style="fill:#000000;fill-opacity:1;stroke:none"
         id="rect3874"
         width="292.06061"
         height="293.76883"
         x="-1070.975"
         y="-212.86809" />
    </clipPath>
    <clipPath
       clipPathUnits="userSpaceOnUse"
       id="clipPath4316">
      <path
         inkscape:connector-curvature="0"
         d="m 0,595.276 841.89,0 L 841.89,0 0,0 0,595.276 z"
         id="path4318" />
    </clipPath>
    <clipPath
       clipPathUnits="userSpaceOnUse"
       id="clipPath4296">
      <path
         inkscape:connector-curvature="0"
         d="m 194.523,338.305 0,-39.522 c 0,-15.364 -4.066,-25.142 -17.702,-27.337 l 0,0 c -4.764,-0.932 -14.679,-0.605 -20.983,-0.605 l 0,0 0,23.466 c 0,0.213 -0.029,0.596 -0.084,0.792 l 0,0 c -0.264,0.951 -1.121,1.646 -2.138,1.648 l 0,0 c -0.575,0.002 -1.113,-0.298 -1.668,-0.845 l 0,0 -58.45,-58.524 39.234,-0.009 43.515,0 c 34.431,0 52.004,19.863 52.004,56.948 l 0,0 0,25.907 0,51.898 -33.728,-33.817 z"
         id="path4298" />
    </clipPath>
    <linearGradient
       x1="0"
       y1="0"
       x2="1"
       y2="0"
       gradientUnits="userSpaceOnUse"
       gradientTransform="matrix(0,-134.75195,-134.75195,0,160.87451,372.12109)"
       spreadMethod="pad"
       id="linearGradient4304">
      <stop
         style="stop-opacity:1;stop-color:#abd33c"
         offset="0"
         id="stop4306" />
      <stop
         style="stop-opacity:1;stop-color:#6cb02f"
         offset="1"
         id="stop4308" />
    </linearGradient>
    <clipPath
       clipPathUnits="userSpaceOnUse"
       id="clipPath4276">
      <path
         inkscape:connector-curvature="0"
         d="m 135.377,382.484 c -34.431,0 -52.004,-19.863 -52.004,-56.949 l 0,0 0,-25.906 0,-51.899 33.728,33.817 0,39.523 c 0,15.364 4.065,25.141 17.702,27.336 l 0,0 c 4.764,0.933 14.679,0.606 20.983,0.606 l 0,0 0,-23.467 c 0,-0.214 0.029,-0.596 0.084,-0.792 l 0,0 c 0.264,-0.95 1.122,-1.646 2.138,-1.648 l 0,0 c 0.575,-0.001 1.113,0.298 1.668,0.846 l 0,0 58.45,58.524 -39.234,0.009 -43.515,0 z"
         id="path4278" />
    </clipPath>
    <linearGradient
       x1="0"
       y1="0"
       x2="1"
       y2="0"
       gradientUnits="userSpaceOnUse"
       gradientTransform="matrix(0,134.75244,134.75244,0,150.74951,247.73047)"
       spreadMethod="pad"
       id="linearGradient4284">
      <stop
         style="stop-opacity:1;stop-color:#ea5f29"
         offset="0"
         id="stop4286" />
      <stop
         style="stop-opacity:1;stop-color:#fabd1f"
         offset="1"
         id="stop4288" />
    </linearGradient>
    <linearGradient
       inkscape:collect="always"
       xlink:href="#linearGradient4284"
       id="linearGradient4662"
       gradientUnits="userSpaceOnUse"
       gradientTransform="matrix(0,134.75244,134.75244,0,150.74951,247.73047)"
       spreadMethod="pad"
       x1="0"
       y1="0"
       x2="1"
       y2="0" />
    <linearGradient
       inkscape:collect="always"
       xlink:href="#linearGradient4304"
       id="linearGradient4664"
       gradientUnits="userSpaceOnUse"
       gradientTransform="matrix(0,-134.75195,-134.75195,0,160.87451,372.12109)"
       spreadMethod="pad"
       x1="0"
       y1="0"
       x2="1"
       y2="0" />
  </defs>
  <sodipodi:namedview
     id="base"
     pagecolor="#ffffff"
     bordercolor="#666666"
     borderopacity="1.0"
     inkscape:pageopacity="0.0"
     inkscape:pageshadow="2"
     inkscape:zoom="0.70710678"
     inkscape:cx="541.14112"
     inkscape:cy="267.25795"
     inkscape:document-units="px"
     inkscape:current-layer="g4292"
     showgrid="false"
     showguides="false"
     inkscape:guide-bbox="true"
     fit-margin-top="20"
     fit-margin-left="20"
     fit-margin-right="20"
     fit-margin-bottom="20"
     inkscape:snap-global="true"
     inkscape:window-width="1455"
     inkscape:window-height="1062"
     inkscape:window-x="1366"
     inkscape:window-y="18"
     inkscape:window-maximized="0">
    <sodipodi:guide
       orientation="0,1"
       position="922.125,19"
       id="guide3794" />
    <sodipodi:guide
       orientation="0,1"
       position="-164.13141,322.91684"
       id="guide3796" />
    <sodipodi:guide
       orientation="0,1"
       position="479.35651,195.40806"
       id="guide3842" />
    <sodipodi:guide
       orientation="0,1"
       position="1035.6286,189.06619"
       id="guide4024" />
    <sodipodi:guide
       orientation="0,1"
       position="203.38251,270.49498"
       id="guide4026" />
    <sodipodi:guide
       orientation="0,1"
       position="162.92627,186.10518"
       id="guide4028" />
    <sodipodi:guide
       orientation="0,1"
       position="184.32001,132.55748"
       id="guide4030" />
    <sodipodi:guide
       orientation="1,0"
       position="19.692957,94.402271"
       id="guide4032" />
    <sodipodi:guide
       orientation="1,0"
       position="84.481607,199.14246"
       id="guide4034" />
    <sodipodi:guide
       orientation="1,0"
       position="239.00751,165.77623"
       id="guide4036" />
    <sodipodi:guide
       orientation="1,0"
       position="281.38251,189.06619"
       id="guide4038" />
    <sodipodi:guide
       orientation="1,0"
       position="342.47626,199.33873"
       id="guide4040" />
    <sodipodi:guide
       orientation="1,0"
       position="379.375,107.25"
       id="guide4042" />
    <sodipodi:guide
       orientation="1,0"
       position="442.71961,90.248021"
       id="guide4044" />
    <sodipodi:guide
       orientation="1,0"
       position="396.07001,205.30748"
       id="guide4046" />
    <sodipodi:guide
       orientation="1,0"
       position="526.06981,91.397071"
       id="guide4048" />
    <sodipodi:guide
       orientation="1,0"
       position="586.875,152.125"
       id="guide4050" />
    <sodipodi:guide
       orientation="1,0"
       position="625.86021,121.09555"
       id="guide4052" />
    <sodipodi:guide
       orientation="1,0"
       position="686.84821,132.55748"
       id="guide4054" />
    <sodipodi:guide
       orientation="1,0"
       position="785.00351,147.39109"
       id="guide4056" />
    <sodipodi:guide
       orientation="1,0"
       position="845.28431,143.502"
       id="guide4058" />
    <sodipodi:guide
       orientation="1,0"
       position="902.07001,31.057481"
       id="guide4060" />
    <sodipodi:guide
       orientation="1,0"
       position="940,38.625"
       id="guide4062" />
    <sodipodi:guide
       orientation="1,0"
       position="1001.945,83.807481"
       id="guide4064" />
    <sodipodi:guide
       orientation="1,0"
       position="1068,219.5"
       id="guide4066" />
    <sodipodi:guide
       position="-177.86059,450.37284"
       orientation="0,-308.99997"
       id="guide4082" />
    <sodipodi:guide
       position="147.14661,322.91532"
       orientation="-127.45599,0"
       id="guide4092" />
  </sodipodi:namedview>
  <metadata
     id="metadata7">
    <rdf:RDF>
      <cc:Work
         rdf:about="">
        <dc:format>image/svg+xml</dc:format>
        <dc:type
           rdf:resource="http://purl.org/dc/dcmitype/StillImage" />
        <dc:title></dc:title>
      </cc:Work>
    </rdf:RDF>
  </metadata>
  <g
     inkscape:label="Layer 1"
     inkscape:groupmode="layer"
     id="layer1"
     transform="translate(-861.89428,445.96809)">
    <g
       id="g4650"
       transform="matrix(4.3836264,0,0,4.3836264,-3146.5129,-1242.0999)">
      <g
         id="g4272"
         transform="matrix(1.25,0,0,-1.25,843.78369,664.88816)">
        <g
           clip-path="url(#clipPath4276)"
           id="g4274">
          <g
             id="g4280">
            <g
               id="g4282">
              <path
                 id="path4290"
                 style="fill:url(#linearGradient4662);stroke:none"
                 d="m 135.377,382.484 c -34.431,0 -52.004,-19.863 -52.004,-56.949 l 0,0 0,-25.906 0,-51.899 33.728,33.817 0,39.523 c 0,15.364 4.065,25.141 17.702,27.336 l 0,0 c 4.764,0.933 14.679,0.606 20.983,0.606 l 0,0 0,-23.467 c 0,-0.214 0.029,-0.596 0.084,-0.792 l 0,0 c 0.264,-0.95 1.122,-1.646 2.138,-1.648 l 0,0 c 0.575,-0.001 1.113,0.298 1.668,0.846 l 0,0 58.45,58.524 -39.234,0.009 -43.515,0 z"
                 inkscape:connector-curvature="0" />
            </g>
          </g>
        </g>
      </g>
      <g
         id="g4292"
         transform="matrix(1.25,0,0,-1.25,843.78369,664.88816)">
        <g
           clip-path="url(#clipPath4296)"
           id="g4294">
          <g
             id="g4300">
            <g
               id="g4302">
              <path
                 id="path4310"
                 style="fill:url(#linearGradient4664);stroke:none"
                 d="m 194.523,338.305 0,-39.522 c 0,-15.364 -4.066,-25.142 -17.702,-27.337 l 0,0 c -4.764,-0.932 -14.679,-0.605 -20.983,-0.605 l 0,0 0,23.466 c 0,0.213 -0.029,0.596 -0.084,0.792 l 0,0 c -0.264,0.951 -1.121,1.646 -2.138,1.648 l 0,0 c -0.575,0.002 -1.113,-0.298 -1.668,-0.845 l 0,0 -58.45,-58.524 39.234,-0.009 43.515,0 c 34.431,0 52.004,19.863 52.004,56.948 l 0,0 0,25.907 0,51.898 -33.728,-33.817 z"
                 inkscape:connector-curvature="0" />
            </g>
          </g>
        </g>
      </g>
    </g>
    <g
       transform="matrix(2.1133318,0,0,-2.1133318,331.01368,1304.7917)"
       id="g4312">
      <g
         id="g4314"
         clip-path="url(#clipPath4316)">
        <g
           id="g4320"
           transform="translate(500.0391,266.1826)">
          <path
             inkscape:connector-curvature="0"
             d="m 0,0 c 0,-0.604 -0.093,-1.923 -0.264,-2.475 -0.577,-1.831 -2.029,-3.274 -3.866,-3.83 -0.532,-0.157 -1.847,-0.244 -2.433,-0.244 l -17.621,0 c -11.43,0 -15.525,2.369 -15.525,9.269 0,6.041 4.095,9.707 10.786,9.707 l 4.739,0 17.635,0 c 0.602,0 1.923,-0.094 2.471,-0.264 1.834,-0.578 3.274,-2.029 3.831,-3.866 C -0.087,7.764 0,6.449 0,5.862 L 0,0 z m 26.52,51.452 c -1.51,4.959 -4.094,9.272 -7.114,12.935 -6.895,7.764 -15.525,11.217 -29.545,11.431 -3.018,0 -6.894,0.216 -11.857,0.216 l -32.929,0 c -0.585,0 -1.898,-0.086 -2.431,-0.25 -1.84,-0.556 -3.292,-1.998 -3.868,-3.828 -0.17,-0.548 -0.26,-1.871 -0.26,-2.476 l 0,-9.308 c 0,-0.584 0.085,-1.9 0.245,-2.432 0.561,-1.84 2.002,-3.292 3.832,-3.866 0.548,-0.17 1.868,-0.264 2.473,-0.264 l 32.938,0 c 14.345,0 20.309,-3.071 21.672,-12.254 -0.003,-0.619 -0.095,-1.888 -0.265,-2.428 -0.57,-1.833 -2.025,-3.274 -3.865,-3.83 -0.533,-0.162 -1.842,-0.248 -2.432,-0.248 l -19.239,0 c -16.604,0 -25.011,-1.727 -30.622,-5.818 -7.756,-5.608 -12.506,-15.961 -12.506,-26.961 0,-14.224 8.413,-26.302 20.277,-29.317 5.815,-1.511 10.134,-1.732 26.3,-1.732 l 45.002,0 c 0.59,0 1.901,0.089 2.435,0.247 1.839,0.555 3.29,1.999 3.865,3.831 0.171,0.549 0.262,1.868 0.262,2.473 l 0,52.533 c 0,11.432 -0.425,15.093 -2.368,21.346"
             style="fill:#120b11;fill-opacity:1;fill-rule:nonzero;stroke:none"
             id="path4322" />
        </g>
        <g
           id="g4324"
           transform="translate(413.1797,243.7695)">
          <path
             inkscape:connector-curvature="0"
             d="m 0,0 c 0,-0.609 -0.092,-1.927 -0.262,-2.473 -0.575,-1.835 -2.027,-3.273 -3.867,-3.832 -0.533,-0.157 -1.846,-0.25 -2.43,-0.25 l -15.792,0 0.011,-0.009 c -0.081,0 -0.209,0.008 -0.319,0.009 -0.664,0.024 -1.682,0.113 -2.152,0.259 -1.836,0.569 -3.277,2.025 -3.832,3.861 -0.161,0.533 -0.247,1.849 -0.247,2.435 l 0,130.725 c 0,0.604 0.09,1.923 0.262,2.472 0.573,1.833 2.027,3.275 3.866,3.83 0.492,0.151 1.631,0.231 2.268,0.244 l 0.161,0 15.785,0 c 0.604,0 1.922,-0.093 2.472,-0.263 1.829,-0.574 3.27,-2.028 3.829,-3.866 C -0.085,132.609 0,131.295 0,130.71 L 0,0 z"
             style="fill:#120b11;fill-opacity:1;fill-rule:nonzero;stroke:none"
             id="path4326" />
        </g>
        <g
           id="g4328"
           transform="translate(622.29,276.9707)">
          <path
             inkscape:connector-curvature="0"
             d="m 0,0 c -0.069,-10.997 0.554,-15.533 2.455,-21.146 1.483,-4.107 3.621,-7.567 6.621,-10.395 5.577,-5.643 13.318,-8.061 25.394,-8.136 l 14.353,-0.089 c 0.591,-0.004 1.905,0.071 2.436,0.234 1.845,0.546 3.305,1.978 3.893,3.803 0.173,0.552 0.272,1.866 0.276,2.475 l 0.057,9.314 c 0.002,0.584 -0.071,1.898 -0.234,2.432 -0.543,1.845 -1.978,3.306 -3.805,3.89 -0.547,0.173 -1.866,0.275 -2.471,0.281 l -4.877,0.025 c -6.038,0.039 -10.559,1.791 -12.901,5.256 -1.929,2.817 -2.334,6.054 -2.27,16.836 l 0.195,31.606 c 0.006,0.605 0.107,1.924 0.282,2.47 0.585,1.829 2.048,3.263 3.891,3.807 0.535,0.157 1.846,0.238 2.434,0.235 l -0.01,0.009 13.62,-0.085 c 0.586,-0.002 1.898,0.076 2.432,0.232 1.843,0.547 3.304,1.982 3.892,3.804 0.17,0.551 0.272,1.871 0.277,2.473 l 0.059,9.312 c 0.002,0.584 -0.079,1.898 -0.233,2.432 -0.546,1.843 -1.979,3.305 -3.808,3.892 -0.55,0.173 -1.866,0.275 -2.471,0.278 l -13.633,0.086 c -0.605,0 -1.921,0.101 -2.47,0.276 -1.831,0.585 -3.26,2.048 -3.81,3.891 -0.155,0.534 -0.232,1.845 -0.228,2.433 l 0.161,25.689 c 0.002,0.586 -0.078,1.899 -0.236,2.432 -0.545,1.843 -1.979,3.303 -3.803,3.891 -0.55,0.175 -1.871,0.275 -2.473,0.278 L 7.204,104.319 C 6.618,104.321 5.306,104.244 4.772,104.086 2.928,103.54 1.469,102.105 0.884,100.279 0.707,99.732 0.606,98.413 0.605,97.808 L 0,0 z"
             style="fill:#120b11;fill-opacity:1;fill-rule:nonzero;stroke:none"
             id="path4330" />
        </g>
        <g
           id="g4332"
           transform="translate(364.2563,361.6123)">
          <path
             inkscape:connector-curvature="0"
             d="m 0,0 c -0.021,-0.667 -0.107,-1.681 -0.255,-2.153 -0.572,-1.835 -2.026,-3.271 -3.863,-3.83 -0.532,-0.163 -1.846,-0.25 -2.435,-0.25 l -26.893,0 c -6.683,0 -15.738,-0.648 -21.349,-1.725 -12.291,-1.94 -18.542,-10.136 -18.542,-23.719 l 0,-1.201 c 0,-0.586 0.086,-8.475 0.246,-9.007 0.555,-1.839 1.997,-3.291 3.829,-3.865 0.552,-0.172 1.871,-0.265 2.475,-0.265 l 60.234,0 c 0.608,0 1.928,-0.094 2.473,-0.262 1.832,-0.576 3.275,-2.03 3.83,-3.868 0.162,-0.532 0.25,-1.847 0.25,-2.432 l 0,-12.328 c 0,-0.605 -0.091,-1.924 -0.264,-2.472 -0.571,-1.835 -2.027,-3.276 -3.862,-3.832 -0.535,-0.159 -1.848,-0.247 -2.436,-0.247 l -60.217,0 c -0.586,0 -1.897,-0.09 -2.429,-0.25 -1.84,-0.554 -3.295,-1.998 -3.866,-3.832 -0.175,-0.547 -0.263,-1.865 -0.263,-2.474 l 0,-39.835 c 0,-0.603 -0.094,-1.924 -0.267,-2.472 -0.572,-1.833 -2.026,-3.274 -3.863,-3.832 -0.533,-0.162 -1.845,-0.246 -2.433,-0.246 l -17.298,0 0.009,-0.01 c -0.086,0 -0.207,0.009 -0.315,0.01 -0.669,0.023 -1.687,0.104 -2.158,0.254 -1.834,0.572 -3.275,2.025 -3.83,3.864 -0.161,0.534 -0.249,1.843 -0.249,2.432 l 0,68.491 0,8.191 c 0.866,25.877 4.528,36.443 15.959,47.007 7.115,6.47 16.387,10.566 28.886,12.292 6.696,1.079 8.846,1.292 21.566,1.292 l 30.785,0 c 0.604,0 1.921,-0.092 2.472,-0.263 1.832,-0.574 3.271,-2.028 3.83,-3.866 C -0.095,14.802 -0.01,13.667 0,13.03 0,12.978 0.005,12.908 0.005,12.864 L 0,12.868 0,0.31 0.012,0.321 C 0.012,0.234 0.005,0.11 0,0"
             style="fill:#120b11;fill-opacity:1;fill-rule:nonzero;stroke:none"
             id="path4334" />
        </g>
        <g
           id="g4336"
           transform="translate(756.458,336.3027)">
          <path
             inkscape:connector-curvature="0"
             d="m 0,0 c -0.002,0.606 -0.101,1.921 -0.273,2.469 -0.588,1.827 -2.05,3.26 -3.893,3.806 -0.532,0.161 -1.849,0.239 -2.435,0.233 L -25.579,6.421 c -12.075,-0.077 -19.816,-2.495 -25.392,-8.138 -2.999,-2.826 -5.138,-6.285 -6.622,-10.396 -1.902,-5.613 -2.524,-10.147 -2.456,-21.145 l -0.359,-59.141 c -0.002,-0.583 0.074,-1.899 0.234,-2.435 0.548,-1.839 1.98,-3.306 3.805,-3.889 0.55,-0.173 1.866,-0.278 2.474,-0.28 l 15.784,-0.095 c 0.586,-0.007 1.902,0.071 2.432,0.234 1.841,0.544 3.306,1.98 3.891,3.801 0.172,0.548 0.273,1.87 0.279,2.477 l 0.322,50.623 0.067,1.614 c -0.063,10.787 0.341,14.02 2.267,16.838 2.344,3.464 8.022,4.059 14.056,4.097 l 8.347,0.03 c 0.604,0.003 1.924,0.106 2.47,0.278 1.826,0.585 3.263,2.045 3.805,3.891 0.159,0.534 0.237,1.849 0.235,2.432 L 0,0 z"
             style="fill:#120b11;fill-opacity:1;fill-rule:nonzero;stroke:none"
             id="path4338" />
        </g>
        <g
           id="g4340"
           transform="translate(547.0293,276.9873)">
          <path
             inkscape:connector-curvature="0"
             d="m 0,0 c -0.068,-10.999 0.554,-15.534 2.455,-21.146 1.484,-4.108 3.621,-7.568 6.621,-10.396 5.577,-5.643 13.318,-8.061 25.395,-8.136 l 14.353,-0.089 c 0.59,-0.003 1.905,0.072 2.435,0.233 1.845,0.546 3.305,1.979 3.893,3.805 0.173,0.551 0.272,1.864 0.276,2.473 l 0.057,9.315 c 0.002,0.584 -0.07,1.898 -0.234,2.432 -0.543,1.845 -1.977,3.306 -3.804,3.889 -0.546,0.174 -1.865,0.276 -2.472,0.282 l -4.877,0.026 c -6.038,0.038 -10.558,1.791 -12.901,5.256 -1.928,2.817 -2.333,6.053 -2.269,16.836 l 0.194,31.605 c 0.007,0.605 0.107,1.924 0.282,2.47 0.585,1.829 2.048,3.263 3.891,3.808 0.535,0.157 1.847,0.237 2.434,0.233 l -0.01,0.011 13.621,-0.085 c 0.585,-0.002 1.898,0.074 2.431,0.231 1.843,0.548 3.305,1.981 3.892,3.805 0.171,0.55 0.272,1.871 0.278,2.472 l 0.058,9.312 c 0.002,0.584 -0.078,1.899 -0.233,2.433 -0.546,1.843 -1.977,3.304 -3.806,3.891 -0.55,0.174 -1.868,0.275 -2.473,0.278 l -13.633,0.087 c -0.604,0 -1.921,0.1 -2.469,0.275 -1.832,0.586 -3.261,2.048 -3.809,3.891 -0.156,0.534 -0.234,1.846 -0.23,2.433 l 0.161,25.69 c 0.002,0.585 -0.077,1.898 -0.236,2.431 -0.545,1.843 -1.979,3.303 -3.802,3.891 -0.55,0.175 -1.872,0.275 -2.473,0.278 L 7.204,104.319 C 6.618,104.321 5.306,104.243 4.773,104.085 2.929,103.539 1.47,102.104 0.884,100.279 0.708,99.732 0.607,98.412 0.605,97.807 L 0,0 z"
             style="fill:#120b11;fill-opacity:1;fill-rule:nonzero;stroke:none"
             id="path4342" />
        </g>
      </g>
    </g>
  </g>
</svg>
