<?xml version="1.0" encoding="UTF-8" standalone="no"?>
<!-- Created with Inkscape (http://www.inkscape.org/) -->

<svg
   xmlns:dc="http://purl.org/dc/elements/1.1/"
   xmlns:cc="http://creativecommons.org/ns#"
   xmlns:rdf="http://www.w3.org/1999/02/22-rdf-syntax-ns#"
   xmlns:svg="http://www.w3.org/2000/svg"
   xmlns="http://www.w3.org/2000/svg"
   xmlns:sodipodi="http://sodipodi.sourceforge.net/DTD/sodipodi-0.dtd"
   xmlns:inkscape="http://www.inkscape.org/namespaces/inkscape"
   width="1135.3228"
   height="87.226471"
   id="svg2"
   version="1.1"
   inkscape:version="0.48.4 r9939"
   sodipodi:docname="New document 1">
  <defs
     id="defs4" />
  <sodipodi:namedview
     id="base"
     pagecolor="#ffffff"
     bordercolor="#666666"
     borderopacity="1.0"
     inkscape:pageopacity="0.0"
     inkscape:pageshadow="2"
     inkscape:zoom="0.98994949"
     inkscape:cx="266.94528"
     inkscape:cy="23.194329"
     inkscape:document-units="px"
     inkscape:current-layer="layer1"
     showgrid="false"
     showguides="false"
     inkscape:guide-bbox="true"
     inkscape:window-width="1920"
     inkscape:window-height="1080"
     inkscape:window-x="1366"
     inkscape:window-y="0"
     inkscape:window-maximized="0"
     fit-margin-top="0"
     fit-margin-left="0"
     fit-margin-right="0"
     fit-margin-bottom="0">
    <sodipodi:guide
       orientation="1,0"
       position="567.52004,117.97395"
       id="guide2995" />
    <sodipodi:guide
       orientation="0,1"
       position="591.76371,69.486621"
       id="guide2997" />
  </sodipodi:namedview>
  <metadata
     id="metadata7">
    <rdf:RDF>
      <cc:Work
         rdf:about="">
        <dc:format>image/svg+xml</dc:format>
        <dc:type
           rdf:resource="http://purl.org/dc/dcmitype/StillImage" />
        <dc:title></dc:title>
      </cc:Work>
    </rdf:RDF>
  </metadata>
  <g
     inkscape:label="Layer 1"
     inkscape:groupmode="layer"
     id="layer1"
     transform="translate(226.59356,-571.71993)">
    <path
       style="fill:#000000;fill-opacity:1;stroke:#680000;stroke-width:0.08116695;stroke-linecap:butt;stroke-linejoin:miter;stroke-miterlimit:4;stroke-opacity:1;stroke-dasharray:none"
       d="m 340.99869,589.70574 567.65705,0 c 0,0 -399.64318,3.53827 -487.79629,12.89787 -88.15311,9.3596 -79.86076,-12.89787 -79.86076,-12.89787 z"
       id="path2985"
       inkscape:connector-curvature="0"
       sodipodi:nodetypes="cczc" />
    <path
       sodipodi:nodetypes="cczc"
       inkscape:connector-curvature="0"
       id="path2987"
       d="m 386.70943,589.74176 521.87737,0 c 0,0 -400.82346,-6.51678 -486.92035,13.83405 -86.0969,20.35081 -34.95702,-13.83405 -34.95702,-13.83405 z"
       style="fill:#000000;fill-opacity:1;stroke:#680000;stroke-width:0.08504964;stroke-linecap:butt;stroke-linejoin:miter;stroke-miterlimit:4;stroke-opacity:1;stroke-dasharray:none" />
    <path
       style="fill:#000000;fill-opacity:1;stroke:#680000;stroke-width:0.08504964;stroke-linecap:butt;stroke-linejoin:miter;stroke-miterlimit:4;stroke-opacity:1;stroke-dasharray:none"
       d="m 424.94568,589.47052 483.67701,0.25188 c 0,0 -398.95677,7.94306 -465.97509,21.36155 -67.01834,13.4185 -17.70192,-21.61343 -17.70192,-21.61343 z"
       id="path2989"
       inkscape:connector-curvature="0"
       sodipodi:nodetypes="cczc" />
    <path
       sodipodi:nodetypes="cczc"
       inkscape:connector-curvature="0"
       id="path2991"
       d="m 463.31437,590.45237 445.35194,0 c 0,0 -345.69827,11.46581 -427.36828,26.5467 -81.67001,15.08088 -17.98366,-26.5467 -17.98366,-26.5467 z"
       style="fill:#000000;fill-opacity:1;stroke:#680000;stroke-width:0.08504964;stroke-linecap:butt;stroke-linejoin:miter;stroke-miterlimit:4;stroke-opacity:1;stroke-dasharray:none" />
    <path
       style="fill:#000000;fill-opacity:1;stroke:#680000;stroke-width:0.07236362;stroke-linecap:butt;stroke-linejoin:miter;stroke-miterlimit:4;stroke-opacity:1;stroke-dasharray:none"
       d="m 340.96419,589.47632 c 0,0 0,20.50651 0,29.30799 0,8.80148 3.42761,21.67766 16.91484,17.47063 26.59993,-11.67908 -6.31533,-39.14036 -16.91484,-46.77862 z"
       id="path2999"
       inkscape:connector-curvature="0"
       sodipodi:nodetypes="czcc" />
    <path
       style="font-size:medium;font-style:normal;font-variant:normal;font-weight:normal;font-stretch:normal;text-indent:0;text-align:start;text-decoration:none;line-height:normal;letter-spacing:normal;word-spacing:normal;text-transform:none;direction:ltr;block-progression:tb;writing-mode:lr-tb;text-anchor:start;baseline-shift:baseline;color:#000000;fill:#000000;fill-opacity:1;stroke:#680000;stroke-width:0.08694837;stroke-miterlimit:4;stroke-opacity:1;stroke-dasharray:none;marker:none;visibility:visible;display:inline;overflow:visible;enable-background:accumulate;font-family:Sans;-inkscape-font-specification:Sans"
       d="m 403.65972,576.30241 c -21.70152,-10.69378 -47.98485,-1.76286 -58.67862,19.93868 -10.69379,21.70153 -3.18097,47.28604 18.52055,57.97981 21.70152,10.69379 49.40297,2.46167 60.09675,-19.23987 0,0 -11.22736,-6.52744 -19.43251,-0.2737 -8.20518,6.25374 -17.60408,29.32594 -38.63119,18.96448 -21.02712,-10.36143 -30.3777,-33.78476 -20.01625,-54.81187 6.32591,-12.83753 19.71422,-19.14531 33.04782,-21.82521 8.50608,-1.70962 16.28895,-3.51999 24.47853,0.51557 z"
       id="path3016"
       inkscape:connector-curvature="0"
       sodipodi:nodetypes="cssczssscc" />
    <path
       sodipodi:nodetypes="cczc"
       inkscape:connector-curvature="0"
       id="path3791"
       d="m 341.13696,589.70574 -567.65705,0 c 0,0 399.64318,3.53827 487.79629,12.89787 88.15311,9.3596 79.86076,-12.89787 79.86076,-12.89787 z"
       style="fill:#000000;fill-opacity:1;stroke:#680000;stroke-width:0.08116695;stroke-linecap:butt;stroke-linejoin:miter;stroke-miterlimit:4;stroke-opacity:1;stroke-dasharray:none" />
    <path
       style="fill:#000000;fill-opacity:1;stroke:#680000;stroke-width:0.08504964;stroke-linecap:butt;stroke-linejoin:miter;stroke-miterlimit:4;stroke-opacity:1;stroke-dasharray:none"
       d="m 295.42622,589.74176 -521.87737,0 c 0,0 400.82346,-6.51678 486.92035,13.83405 86.0969,20.35081 34.95702,-13.83405 34.95702,-13.83405 z"
       id="path3793"
       inkscape:connector-curvature="0"
       sodipodi:nodetypes="cczc" />
    <path
       sodipodi:nodetypes="cczc"
       inkscape:connector-curvature="0"
       id="path3795"
       d="m 257.18997,589.47052 -483.67701,0.25188 c 0,0 398.95677,7.94306 465.97509,21.36155 67.01834,13.4185 17.70192,-21.61343 17.70192,-21.61343 z"
       style="fill:#000000;fill-opacity:1;stroke:#680000;stroke-width:0.08504964;stroke-linecap:butt;stroke-linejoin:miter;stroke-miterlimit:4;stroke-opacity:1;stroke-dasharray:none" />
    <path
       style="fill:#000000;fill-opacity:1;stroke:#680000;stroke-width:0.08504964;stroke-linecap:butt;stroke-linejoin:miter;stroke-miterlimit:4;stroke-opacity:1;stroke-dasharray:none"
       d="m 218.82128,590.45237 -445.35194,0 c 0,0 345.69827,11.46581 427.36828,26.5467 81.67001,15.08088 17.98366,-26.5467 17.98366,-26.5467 z"
       id="path3797"
       inkscape:connector-curvature="0"
       sodipodi:nodetypes="cczc" />
    <path
       sodipodi:nodetypes="czcc"
       inkscape:connector-curvature="0"
       id="path3799"
       d="m 341.29182,589.47665 c 0,0 0.1382,20.50604 0.19752,29.30732 0.0593,8.80128 -3.28143,21.70027 -16.79671,17.58424 -26.67803,-11.49955 6.0514,-39.18204 16.59919,-46.89156 z"
       style="fill:#000000;fill-opacity:1;stroke:#680000;stroke-width:0.07236362;stroke-linecap:butt;stroke-linejoin:miter;stroke-miterlimit:4;stroke-opacity:1;stroke-dasharray:none"
       inkscape:transform-center-x="13.36321"
       inkscape:transform-center-y="23.88939" />
    <path
       sodipodi:nodetypes="cssczssscc"
       inkscape:connector-curvature="0"
       id="path3801"
       d="m 277.16598,576.88323 c 21.38087,-11.3213 47.91315,-3.15966 59.23445,18.22121 11.3213,21.38087 4.55683,47.17334 -16.82403,58.49463 -21.38087,11.3213 -49.31033,3.89948 -60.63162,-17.4814 0,0 11.03248,-6.85167 19.4163,-0.83954 8.38383,6.0121 18.45072,28.80077 39.16714,17.8313 20.71641,-10.96947 29.38082,-34.65518 18.41136,-55.3716 -6.69711,-12.64784 -20.26346,-18.56301 -33.66946,-20.85343 -8.55226,-1.46117 -16.38455,-3.04408 -24.45313,1.22828 z"
       style="font-size:medium;font-style:normal;font-variant:normal;font-weight:normal;font-stretch:normal;text-indent:0;text-align:start;text-decoration:none;line-height:normal;letter-spacing:normal;word-spacing:normal;text-transform:none;direction:ltr;block-progression:tb;writing-mode:lr-tb;text-anchor:start;baseline-shift:baseline;color:#000000;fill:#000000;fill-opacity:1;stroke:#680000;stroke-width:0.08694837;stroke-miterlimit:4;stroke-opacity:1;stroke-dasharray:none;marker:none;visibility:visible;display:inline;overflow:visible;enable-background:accumulate;font-family:Sans;-inkscape-font-specification:Sans" />
    <path
       sodipodi:nodetypes="cczc"
       inkscape:connector-curvature="0"
       id="path3803"
       d="m 341.01075,589.8966 -567.54181,0 c 0,0 399.56205,-1.88495 487.69726,-6.87111 88.13521,-4.98617 79.84455,6.87111 79.84455,6.87111 z"
       style="fill:#000000;fill-opacity:1;stroke:#680000;stroke-width:0.05923656;stroke-linecap:butt;stroke-linejoin:miter;stroke-miterlimit:4;stroke-opacity:1;stroke-dasharray:none" />
    <path
       style="fill:#000000;fill-opacity:1;stroke:#680000;stroke-width:0.05922015;stroke-linecap:butt;stroke-linejoin:miter;stroke-miterlimit:4;stroke-opacity:1;stroke-dasharray:none"
       d="m 341.44043,589.89661 567.22631,0 c 0,0 -399.33993,-1.88495 -487.42615,-6.87113 -88.08621,-4.98617 -79.80016,6.87113 -79.80016,6.87113 z"
       id="path3805"
       inkscape:connector-curvature="0"
       sodipodi:nodetypes="cczc" />
  </g>
</svg>
