<!-- Created with Inkscape (http://www.inkscape.org/) -->
<svg xmlns:rdf="http://www.w3.org/1999/02/22-rdf-syntax-ns#" xmlns="http://www.w3.org/2000/svg" height="20" width="20" version="1.1" xmlns:cc="http://creativecommons.org/ns#" xmlns:dc="http://purl.org/dc/elements/1.1/">
 <metadata>
  <rdf:RDF>
   <cc:Work rdf:about="">
    <dc:format>image/svg+xml</dc:format>
    <dc:type rdf:resource="http://purl.org/dc/dcmitype/StillImage"/>
    <dc:title/>
   </cc:Work>
  </rdf:RDF>
 </metadata>
 <g transform="translate(-1222.25,-702.96875)">
  <path style="fill:#ffffff;" d="m1240,703c-3.68,0-6.66,2.98-6.66,6.66s2.98,6.66,6.66,6.66,6.66-2.98,6.66-6.66-2.98-6.66-6.66-6.66zm0,1.61c2.79,0,5.05,2.26,5.05,5.05s-2.26,5.05-5.05,5.05-5.05-2.26-5.05-5.05,2.26-5.05,5.05-5.05z"/>
  <path style="fill:#ffffff;" d="m1230,714-0.899,0.805c0.369,0.456,0.785,0.871,1.24,1.24l0.804-0.901c-0.423-0.337-0.808-0.721-1.15-1.14zm-1.38,1.23-6.32,5.64,1.97,1.97,5.64-6.32c-0.474-0.386-0.907-0.819-1.29-1.29z"/>
 </g>
</svg>
