<!-- Created with Inkscape (http://www.inkscape.org/) -->
<svg xmlns:rdf="http://www.w3.org/1999/02/22-rdf-syntax-ns#" xmlns="http://www.w3.org/2000/svg" height="1268.2" width="1088.4" version="1.1" xmlns:cc="http://creativecommons.org/ns#" xmlns:dc="http://purl.org/dc/elements/1.1/">
 <defs>
  <clipPath id="clipPath4316" clipPathUnits="userSpaceOnUse">
   <path d="m0,595.28,841.89,0v-595.28h-841.89v595.28z"/>
  </clipPath>
  <clipPath id="clipPath4296" clipPathUnits="userSpaceOnUse">
   <path d="m194.52,338.3,0-39.522c0-15.364-4.066-25.142-17.702-27.337-4.764-0.932-14.679-0.605-20.983-0.605v23.466c0,0.213-0.029,0.596-0.084,0.792-0.264,0.951-1.121,1.646-2.138,1.648-0.575,0.002-1.113-0.298-1.668-0.845l-58.45-58.524,39.234-0.009h43.515c34.431,0,52.004,19.863,52.004,56.948v25.907,51.898l-33.728-33.817z"/>
  </clipPath>
  <clipPath id="clipPath4276" clipPathUnits="userSpaceOnUse">
   <path d="m135.38,382.48c-34.431,0-52.004-19.863-52.004-56.949v-25.906-51.899l33.728,33.817v39.523c0,15.364,4.065,25.141,17.702,27.336,4.764,0.933,14.679,0.606,20.983,0.606v-23.467c0-0.214,0.029-0.596,0.084-0.792,0.264-0.95,1.122-1.646,2.138-1.648,0.575-0.001,1.113,0.298,1.668,0.846l58.45,58.524-39.234,0.009h-43.515z"/>
  </clipPath>
 </defs>
 <metadata>
  <rdf:RDF>
   <cc:Work rdf:about="">
    <dc:format>image/svg+xml</dc:format>
    <dc:type rdf:resource="http://purl.org/dc/dcmitype/StillImage"/>
    <dc:title/>
   </cc:Work>
  </rdf:RDF>
 </metadata>
 <g transform="translate(-861.89428,445.96809)">
  <g transform="matrix(4.3836264,0,0,4.3836264,-3146.5129,-1242.0999)">
   <g fill="#000" transform="matrix(1.25,0,0,-1.25,843.78369,664.88816)">
    <g fill="#000" clip-path="url(#clipPath4276)">
     <g fill="#000">
      <g fill="#000">
       <path fill="#000" d="m135.38,382.48c-34.431,0-52.004-19.863-52.004-56.949v-25.906-51.899l33.728,33.817v39.523c0,15.364,4.065,25.141,17.702,27.336,4.764,0.933,14.679,0.606,20.983,0.606v-23.467c0-0.214,0.029-0.596,0.084-0.792,0.264-0.95,1.122-1.646,2.138-1.648,0.575-0.001,1.113,0.298,1.668,0.846l58.45,58.524-39.234,0.009h-43.515z"/>
      </g>
     </g>
    </g>
   </g>
   <g transform="matrix(1.25,0,0,-1.25,843.78369,664.88816)">
    <g fill="#000" clip-path="url(#clipPath4296)">
     <g fill="#000">
      <g fill="#000">
       <path fill="#000" d="m194.52,338.3,0-39.522c0-15.364-4.066-25.142-17.702-27.337-4.764-0.932-14.679-0.605-20.983-0.605v23.466c0,0.213-0.029,0.596-0.084,0.792-0.264,0.951-1.121,1.646-2.138,1.648-0.575,0.002-1.113-0.298-1.668-0.845l-58.45-58.524,39.234-0.009h43.515c34.431,0,52.004,19.863,52.004,56.948v25.907,51.898l-33.728-33.817z"/>
      </g>
     </g>
    </g>
   </g>
  </g>
  <g transform="matrix(2.1133318,0,0,-2.1133318,331.01368,1304.7917)">
   <g clip-path="url(#clipPath4316)">
    <g transform="translate(500.0391,266.1826)">
     <path d="m0,0c0-0.604-0.093-1.923-0.264-2.475-0.577-1.831-2.029-3.274-3.866-3.83-0.532-0.157-1.847-0.244-2.433-0.244h-17.621c-11.43,0-15.525,2.369-15.525,9.269,0,6.041,4.095,9.707,10.786,9.707h4.739,17.635c0.602,0,1.923-0.094,2.471-0.264,1.834-0.578,3.274-2.029,3.831-3.866,0.16-0.533,0.247-1.848,0.247-2.435v-5.862zm26.52,51.452c-1.51,4.959-4.094,9.272-7.114,12.935-6.895,7.764-15.525,11.217-29.545,11.431-3.018,0-6.894,0.216-11.857,0.216h-32.929c-0.585,0-1.898-0.086-2.431-0.25-1.84-0.556-3.292-1.998-3.868-3.828-0.17-0.548-0.26-1.871-0.26-2.476v-9.308c0-0.584,0.085-1.9,0.245-2.432,0.561-1.84,2.002-3.292,3.832-3.866,0.548-0.17,1.868-0.264,2.473-0.264h32.938c14.345,0,20.309-3.071,21.672-12.254-0.003-0.619-0.095-1.888-0.265-2.428-0.57-1.833-2.025-3.274-3.865-3.83-0.533-0.162-1.842-0.248-2.432-0.248h-19.239c-16.604,0-25.011-1.727-30.622-5.818-7.756-5.608-12.506-15.961-12.506-26.961,0-14.224,8.413-26.302,20.277-29.317,5.815-1.511,10.134-1.732,26.3-1.732h45.002c0.59,0,1.901,0.089,2.435,0.247,1.839,0.555,3.29,1.999,3.865,3.831,0.171,0.549,0.262,1.868,0.262,2.473v52.533c0,11.432-0.425,15.093-2.368,21.346" fill-rule="nonzero" fill="#120b11"/>
    </g>
    <g transform="translate(413.1797,243.7695)">
     <path d="m0,0c0-0.609-0.092-1.927-0.262-2.473-0.575-1.835-2.027-3.273-3.867-3.832-0.533-0.157-1.846-0.25-2.43-0.25h-15.792l0.011-0.009c-0.081,0-0.209,0.008-0.319,0.009-0.664,0.024-1.682,0.113-2.152,0.259-1.836,0.569-3.277,2.025-3.832,3.861-0.161,0.533-0.247,1.849-0.247,2.435v130.72c0,0.604,0.09,1.923,0.262,2.472,0.573,1.833,2.027,3.275,3.866,3.83,0.492,0.151,1.631,0.231,2.268,0.244h0.161,15.785c0.604,0,1.922-0.093,2.472-0.263,1.829-0.574,3.27-2.028,3.829-3.866,0.162-0.52,0.247-1.83,0.247-2.42v-130.71z" fill-rule="nonzero" fill="#120b11"/>
    </g>
    <g transform="translate(622.29,276.9707)">
     <path d="m0,0c-0.069-10.997,0.554-15.533,2.455-21.146,1.483-4.107,3.621-7.567,6.621-10.395,5.577-5.643,13.318-8.061,25.394-8.136l14.353-0.089c0.591-0.004,1.905,0.071,2.436,0.234,1.845,0.546,3.305,1.978,3.893,3.803,0.173,0.552,0.272,1.866,0.276,2.475l0.057,9.314c0.002,0.584-0.071,1.898-0.234,2.432-0.543,1.845-1.978,3.306-3.805,3.89-0.547,0.173-1.866,0.275-2.471,0.281l-4.877,0.025c-6.038,0.039-10.559,1.791-12.901,5.256-1.929,2.817-2.334,6.054-2.27,16.836l0.195,31.606c0.006,0.605,0.107,1.924,0.282,2.47,0.585,1.829,2.048,3.263,3.891,3.807,0.535,0.157,1.846,0.238,2.434,0.235l-0.01,0.009,13.62-0.085c0.586-0.002,1.898,0.076,2.432,0.232,1.843,0.547,3.304,1.982,3.892,3.804,0.17,0.551,0.272,1.871,0.277,2.473l0.059,9.312c0.002,0.584-0.079,1.898-0.233,2.432-0.546,1.843-1.979,3.305-3.808,3.892-0.55,0.173-1.866,0.275-2.471,0.278l-13.633,0.086c-0.605,0-1.921,0.101-2.47,0.276-1.831,0.585-3.26,2.048-3.81,3.891-0.155,0.534-0.232,1.845-0.228,2.433l0.161,25.689c0.002,0.586-0.078,1.899-0.236,2.432-0.545,1.843-1.979,3.303-3.803,3.891-0.55,0.175-1.871,0.275-2.473,0.278l-15.791,0.1c-0.586,0-1.898-0.08-2.432-0.23-1.844-0.55-3.303-1.99-3.888-3.81-0.177-0.548-0.278-1.867-0.279-2.472l-0.605-97.808z" fill-rule="nonzero" fill="#120b11"/>
    </g>
    <g transform="translate(364.2563,361.6123)">
     <path d="m0,0c-0.021-0.667-0.107-1.681-0.255-2.153-0.572-1.835-2.026-3.271-3.863-3.83-0.532-0.163-1.846-0.25-2.435-0.25h-26.893c-6.683,0-15.738-0.648-21.349-1.725-12.291-1.94-18.542-10.136-18.542-23.719v-1.201c0-0.586,0.086-8.475,0.246-9.007,0.555-1.839,1.997-3.291,3.829-3.865,0.552-0.172,1.871-0.265,2.475-0.265h60.234c0.608,0,1.928-0.094,2.473-0.262,1.832-0.576,3.275-2.03,3.83-3.868,0.162-0.532,0.25-1.847,0.25-2.432v-12.328c0-0.605-0.091-1.924-0.264-2.472-0.571-1.835-2.027-3.276-3.862-3.832-0.535-0.159-1.848-0.247-2.436-0.247h-60.217c-0.586,0-1.897-0.09-2.429-0.25-1.84-0.554-3.295-1.998-3.866-3.832-0.175-0.547-0.263-1.865-0.263-2.474v-39.835c0-0.603-0.094-1.924-0.267-2.472-0.572-1.833-2.026-3.274-3.863-3.832-0.533-0.162-1.845-0.246-2.433-0.246h-17.298l0.009-0.01c-0.086,0-0.207,0.009-0.315,0.01-0.669,0.023-1.687,0.104-2.158,0.254-1.834,0.572-3.275,2.025-3.83,3.864-0.161,0.534-0.249,1.843-0.249,2.432v68.491,8.191c0.866,25.877,4.528,36.443,15.959,47.007,7.115,6.47,16.387,10.566,28.886,12.292,6.696,1.079,8.846,1.292,21.566,1.292h30.785c0.604,0,1.921-0.092,2.472-0.263,1.832-0.574,3.271-2.028,3.83-3.866,0.147-0.482,0.232-1.617,0.242-2.254,0-0.052,0.005-0.122,0.005-0.166l-0.005,0.004v-12.558l0.012,0.011c0-0.087-0.007-0.211-0.012-0.321" fill-rule="nonzero" fill="#120b11"/>
    </g>
    <g transform="translate(756.458,336.3027)">
     <path d="m0,0c-0.002,0.606-0.101,1.921-0.273,2.469-0.588,1.827-2.05,3.26-3.893,3.806-0.532,0.161-1.849,0.239-2.435,0.233l-18.978-0.087c-12.075-0.077-19.816-2.495-25.392-8.138-2.999-2.826-5.138-6.285-6.622-10.396-1.902-5.613-2.524-10.147-2.456-21.145l-0.359-59.141c-0.002-0.583,0.074-1.899,0.234-2.435,0.548-1.839,1.98-3.306,3.805-3.889,0.55-0.173,1.866-0.278,2.474-0.28l15.784-0.095c0.586-0.007,1.902,0.071,2.432,0.234,1.841,0.544,3.306,1.98,3.891,3.801,0.172,0.548,0.273,1.87,0.279,2.477l0.322,50.623,0.067,1.614c-0.063,10.787,0.341,14.02,2.267,16.838,2.344,3.464,8.022,4.059,14.056,4.097l8.347,0.03c0.604,0.003,1.924,0.106,2.47,0.278,1.826,0.585,3.263,2.045,3.805,3.891,0.159,0.534,0.237,1.849,0.235,2.432l-0.06,12.783z" fill-rule="nonzero" fill="#120b11"/>
    </g>
    <g transform="translate(547.0293,276.9873)">
     <path d="m0,0c-0.068-10.999,0.554-15.534,2.455-21.146,1.484-4.108,3.621-7.568,6.621-10.396,5.577-5.643,13.318-8.061,25.395-8.136l14.353-0.089c0.59-0.003,1.905,0.072,2.435,0.233,1.845,0.546,3.305,1.979,3.893,3.805,0.173,0.551,0.272,1.864,0.276,2.473l0.057,9.315c0.002,0.584-0.07,1.898-0.234,2.432-0.543,1.845-1.977,3.306-3.804,3.889-0.546,0.174-1.865,0.276-2.472,0.282l-4.877,0.026c-6.038,0.038-10.558,1.791-12.901,5.256-1.928,2.817-2.333,6.053-2.269,16.836l0.194,31.605c0.007,0.605,0.107,1.924,0.282,2.47,0.585,1.829,2.048,3.263,3.891,3.808,0.535,0.157,1.847,0.237,2.434,0.233l-0.01,0.011,13.621-0.085c0.585-0.002,1.898,0.074,2.431,0.231,1.843,0.548,3.305,1.981,3.892,3.805,0.171,0.55,0.272,1.871,0.278,2.472l0.058,9.312c0.002,0.584-0.078,1.899-0.233,2.433-0.546,1.843-1.977,3.304-3.806,3.891-0.55,0.174-1.868,0.275-2.473,0.278l-13.633,0.087c-0.604,0-1.921,0.1-2.469,0.275-1.832,0.586-3.261,2.048-3.809,3.891-0.156,0.534-0.234,1.846-0.23,2.433l0.161,25.69c0.002,0.585-0.077,1.898-0.236,2.431-0.545,1.843-1.979,3.303-3.802,3.891-0.55,0.175-1.872,0.275-2.473,0.278l-15.792,0.1c-0.586,0-1.898-0.08-2.431-0.24-1.844-0.54-3.303-1.98-3.889-3.8-0.176-0.548-0.277-1.868-0.279-2.473l-0.605-97.807z" fill-rule="nonzero" fill="#120b11"/>
    </g>
   </g>
  </g>
 </g>
</svg>
