<?xml version="1.0" encoding="UTF-8" standalone="no"?>
<svg
   xmlns:dc="http://purl.org/dc/elements/1.1/"
   xmlns:cc="http://creativecommons.org/ns#"
   xmlns:rdf="http://www.w3.org/1999/02/22-rdf-syntax-ns#"
   xmlns:svg="http://www.w3.org/2000/svg"
   xmlns="http://www.w3.org/2000/svg"
   xmlns:sodipodi="http://sodipodi.sourceforge.net/DTD/sodipodi-0.dtd"
   xmlns:inkscape="http://www.inkscape.org/namespaces/inkscape"
   version="1.1"
   width="128px"
   height="128px"
   id="RSSicon"
   viewBox="0 0 256 256"
   inkscape:version="0.48.4 r9939"
   sodipodi:docname="rss_box.svg">
  <metadata
     id="metadata3123">
    <rdf:RDF>
      <cc:Work
         rdf:about="">
        <dc:format>image/svg+xml</dc:format>
        <dc:type
           rdf:resource="http://purl.org/dc/dcmitype/StillImage" />
        <dc:title></dc:title>
      </cc:Work>
    </rdf:RDF>
  </metadata>
  <sodipodi:namedview
     pagecolor="#ffffff"
     bordercolor="#666666"
     borderopacity="1"
     objecttolerance="10"
     gridtolerance="10"
     guidetolerance="10"
     inkscape:pageopacity="0"
     inkscape:pageshadow="2"
     inkscape:window-width="1366"
     inkscape:window-height="768"
     id="namedview3121"
     showgrid="false"
     inkscape:zoom="3.3477087"
     inkscape:cx="77.271887"
     inkscape:cy="74.614579"
     inkscape:window-x="0"
     inkscape:window-y="0"
     inkscape:window-maximized="0"
     inkscape:current-layer="RSSicon" />
  <defs
     id="defs3092">
    <linearGradient
       x1="0.085"
       y1="0.085"
       x2="0.915"
       y2="0.915"
       id="RSSg">
      <stop
         offset="0.0"
         stop-color="#E3702D"
         id="stop3095" />
      <stop
         offset="0.1071"
         stop-color="#EA7D31"
         id="stop3097" />
      <stop
         offset="0.3503"
         stop-color="#F69537"
         id="stop3099" />
      <stop
         offset="0.5"
         stop-color="#FB9E3A"
         id="stop3101" />
      <stop
         offset="0.7016"
         stop-color="#EA7C31"
         id="stop3103" />
      <stop
         offset="0.8866"
         stop-color="#DE642B"
         id="stop3105" />
      <stop
         offset="1.0"
         stop-color="#D95B29"
         id="stop3107" />
    </linearGradient>
  </defs>
  <path
     d="m 46.389694,38.597424 c 22.907446,1e-6 45.805878,4.554782 66.969596,13.321083 21.16372,8.7663 40.57608,21.73722 56.77409,37.93523 16.19801,16.198013 29.16893,35.610363 37.93523,56.774083 8.7663,21.16372 13.32108,44.06215 13.32108,66.9696 l -35,0 c 0,-18.32596 -3.64383,-36.6447 -10.65687,-53.57568 -7.01304,-16.93097 -17.38977,-32.46086 -30.34818,-45.41927 C 132.42623,101.64407 116.89635,91.26733 99.965372,84.25429 83.034396,77.24125 64.71565,73.597425 46.389694,73.597424 z m 0,59 c 15.184364,10e-7 30.362753,3.019166 44.391276,8.829976 14.02852,5.8108 26.89614,14.40867 37.63311,25.14564 10.73696,10.73696 19.33483,23.60458 25.14564,37.6331 5.8108,14.02853 8.82997,29.20692 8.82997,44.39128 l -34,0 c 0,-21.46755 -8.83739,-42.8029 -24.01724,-57.98275 C 89.192598,140.43482 67.857243,131.59742 46.389694,131.59742 z m 24,67.999996 c 13.254834,0 24,10.74517 24,24 0,13.25484 -10.745166,24 -24,24 -13.254834,0 -24,-10.74516 -24,-24 0,-13.25483 10.745166,-24 24,-24 z"
     id="rect3109"
     inkscape:connector-curvature="0"
     sodipodi:nodetypes="csssccssscccsssccsccsssss" />
</svg>
