<!-- Created with Inkscape (http://www.inkscape.org/) -->
<svg xmlns:rdf="http://www.w3.org/1999/02/22-rdf-syntax-ns#" xmlns="http://www.w3.org/2000/svg" xml:space="preserve" height="213.17" width="260" version="1.1" xmlns:cc="http://creativecommons.org/ns#" xmlns:dc="http://purl.org/dc/elements/1.1/"><metadata><rdf:RDF><cc:Work rdf:about=""><dc:format>image/svg+xml</dc:format><dc:type rdf:resource="http://purl.org/dc/dcmitype/StillImage"/><dc:title/></cc:Work></rdf:RDF></metadata><g transform="matrix(1.25,0,0,-1.25,5,208.17)"><g transform="scale(0.1,0.1)"><path fill-rule="nonzero" fill="#000" d="m2000,1433c-73.58-32.64-152.67-54.69-235.66-64.61,84.7,50.78,149.77,131.19,180.41,227.01-79.29-47.03-167.1-81.17-260.57-99.57-74.84,79.75-181.48,129.57-299.5,129.57-226.6,0-410.33-183.71-410.33-410.31,0-32.16,3.628-63.48,10.625-93.51-341.02,17.11-643.37,180.47-845.74,428.72-35.324-60.6-55.558-131.09-55.558-206.29,0-142.36,72.437-267.95,182.54-341.53-67.262,2.13-130.54,20.59-185.85,51.32-0.0391-1.71-0.0391-3.42-0.0391-5.16,0-198.8,141.44-364.64,329.14-402.34-34.426-9.375-70.676-14.395-108.1-14.395-26.441,0-52.145,2.578-77.203,7.364,52.3-163,203.84-281.64,383.39-284.94-140.43-110.06-317.35-175.66-509.6-175.66-33.121,0-65.785,1.95-97.883,5.74,181.59-116.42,397.27-184.36,628.99-184.36,754.71,0,1167.4,625.24,1167.4,1167.5,0,17.79-0.41,35.48-1.2,53.08,80.18,57.86,149.74,130.12,204.75,212.41"/></g></g></svg>
