<!-- Created with Inkscape (http://www.inkscape.org/) -->
<svg xmlns:rdf="http://www.w3.org/1999/02/22-rdf-syntax-ns#" xmlns="http://www.w3.org/2000/svg" version="1.1" xmlns:cc="http://creativecommons.org/ns#" xmlns:dc="http://purl.org/dc/elements/1.1/" viewBox="0 0 1140 87.2">
 <metadata>
  <rdf:RDF>
   <cc:Work rdf:about="">
    <dc:format>image/svg+xml</dc:format>
    <dc:type rdf:resource="http://purl.org/dc/dcmitype/StillImage"/>
    <dc:title/>
   </cc:Work>
  </rdf:RDF>
 </metadata>
 <g transform="translate(226.59356,-571.71993)">
  <path style="fill:#000000;" d="M525,0.0625c-7-0.0762-15,1.56-21,5.1v1.25c8-4.28,16-2.71,25-1.25,6,1.03,12,2.82,17,5.64-11-0.96-30-1.1-58,0.5-51,2.9-205,4.7-327,5.8-85.8-0.2-154,0.8-159,0.9h-1.5-0.656,1.37c0.32,0,3.9,0.1,5.35,0.2h-6.82,8.66c4.78,0.1,11.8,0.3,23.2,0.5h-31.8s346,11.5,427,26.6c38,6.9,45,1.9,41-5.5,30,5.6,35,1.3,33-5,30,6.3,37,3.2,36-2,7-0.4,12-1.2,16-2.2-11,11.4-20,26.3-2,34.1,5,1.5,9,0.6,12-1.7-4,7.5-11,14-19,18.4-21,10.9-31-11.8-39-17.8s-19,0.8-19,0.8c11,21.4,39,28.8,60,17.5,12-6.2,19-16.8,22-28.7,2,12.3,10,23.2,22,29.3,22,10.7,49,2.5,60-19.3,0,0-11-6.5-19-0.2s-18,29.3-39,18.9c-9-4.6-16-11.8-20-20.3,2,3.2,6,4.9,12,2.9,18-7.8,9-22.5-1-33.8,4,1,9,1.7,15,2.1-1,5.2,6,8.3,37,2-3,6.3,3,10.6,32,5-3,7.4,4,12.4,41,5.5,82-15.1,432-26.6,432-26.6h-40c10-0.2,20-0.4,30-0.5h10-10v-0.2h10-10c0-0.1-70-1.1-156-0.9-121-1.1-275-2.9-326-5.8-29-1.61-47-1.44-59-0.5,5-2.59,11-4.37,16-5.49,9-1.71,16-3.5,25,0.53v-1.25c-16-8.23-36-4.82-49,7.11-12,1.7-13,4.4-13,5.7v0.4,0.1-0.5c0-1.3-2-4.1-14-5.8-8-7.37-19-11.4-29-11.5zm43,17.7v0.2-0.2z" transform="translate(-226.59356,571.71993)"/>
 </g>
</svg>
