<?xml version="1.0" encoding="UTF-8" standalone="no"?>
<!-- Created with Inkscape (http://www.inkscape.org/) -->

<svg
   xmlns:dc="http://purl.org/dc/elements/1.1/"
   xmlns:cc="http://creativecommons.org/ns#"
   xmlns:rdf="http://www.w3.org/1999/02/22-rdf-syntax-ns#"
   xmlns:svg="http://www.w3.org/2000/svg"
   xmlns="http://www.w3.org/2000/svg"
   xmlns:sodipodi="http://sodipodi.sourceforge.net/DTD/sodipodi-0.dtd"
   xmlns:inkscape="http://www.inkscape.org/namespaces/inkscape"
   width="1135.3199"
   height="87.230003"
   id="svg2"
   version="1.1"
   inkscape:version="0.48.4 r9939"
   sodipodi:docname="centered_middle_circle.svg">
  <defs
     id="defs4" />
  <sodipodi:namedview
     id="base"
     pagecolor="#ffffff"
     bordercolor="#666666"
     borderopacity="1.0"
     inkscape:pageopacity="0.0"
     inkscape:pageshadow="2"
     inkscape:zoom="1.4"
     inkscape:cx="605.36839"
     inkscape:cy="-64.096106"
     inkscape:document-units="px"
     inkscape:current-layer="layer1"
     showgrid="false"
     showguides="false"
     inkscape:guide-bbox="true"
     inkscape:window-width="1366"
     inkscape:window-height="768"
     inkscape:window-x="0"
     inkscape:window-y="0"
     inkscape:window-maximized="0"
     fit-margin-top="0"
     fit-margin-left="0"
     fit-margin-right="0"
     fit-margin-bottom="0">
    <sodipodi:guide
       orientation="1,0"
       position="567.52004,117.97395"
       id="guide2995" />
    <sodipodi:guide
       orientation="0,1"
       position="591.76371,69.486621"
       id="guide2997" />
  </sodipodi:namedview>
  <metadata
     id="metadata7">
    <rdf:RDF>
      <cc:Work
         rdf:about="">
        <dc:format>image/svg+xml</dc:format>
        <dc:type
           rdf:resource="http://purl.org/dc/dcmitype/StillImage" />
        <dc:title></dc:title>
      </cc:Work>
    </rdf:RDF>
  </metadata>
  <g
     inkscape:label="Layer 1"
     inkscape:groupmode="layer"
     id="layer1"
     transform="translate(226.59356,-571.7164)">
    <path
       style="fill:#000000;fill-opacity:1;stroke:none"
       d="M 524.6875,0.0625 C 517.62125,-0.01370221 510.43152,1.6183438 503.75,5.15625 l 0.65625,1.25 c 8.06858,-4.27236 15.91649,-2.71117 24.46875,-1.25 6.06194,1.0356849 12.14742,2.819678 17.625,5.625 C 534.62434,9.8428371 516.23565,9.7009498 487.75,11.3125 436.79251,14.195368 282.75187,16.017936 161,17.0625 75.160694,16.878759 7.3026815,17.920997 2.3125,18 l -1.5,0 c -0.0178183,2.87e-4 -0.65625,0.03125 -0.65625,0.03125 l 1.375,0 c 0.3176432,0.0064 3.8988284,0.09511 5.34375,0.125 -0.555715,0.0027 -6.8125,0.03125 -6.8125,0.03125 l 8.65625,0 c 4.783039,0.100021 11.807279,0.272056 23.15625,0.53125 l -31.8125,0 c 0,0 345.70499,11.48161 427.375,26.5625 37.35686,6.898179 44.30562,1.920578 40.84375,-5.5 29.5246,5.648704 35.01886,1.341804 32.375,-4.9375 30.75081,6.220667 37.70966,3.141281 36.25,-2 6.78782,-0.421783 12.08794,-1.225591 16.25,-2.25 -10.92985,11.361313 -19.75763,26.354201 -1.875,34.0625 5.20124,1.584018 8.89515,0.627582 11.46875,-1.625 -3.9411,7.490834 -10.3056,13.938573 -18.625,18.34375 -20.71642,10.96947 -30.77242,-11.8004 -39.15625,-17.8125 -8.38382,-6.01213 -19.4375,0.84375 -19.4375,0.84375 11.32129,21.38088 39.24413,28.79005 60.625,17.46875 11.75587,-6.224802 19.09582,-16.820484 21.4375,-28.65625 2.41785,12.273146 10.14788,23.194545 22.5,29.28125 21.70152,10.69379 49.39997,2.45154 60.09375,-19.25 0,0 -11.23235,-6.50374 -19.4375,-0.25 -8.20518,6.25374 -17.59789,29.29896 -38.625,18.9375 -9.40595,-4.634925 -16.45499,-11.865114 -20.46875,-20.34375 2.59394,3.208634 6.63412,4.864702 12.8125,2.9375 17.73057,-7.784862 9.0143,-22.579412 -1.90625,-33.84375 4.09948,0.976843 9.27764,1.748244 15.84375,2.15625 -1.4545,5.137297 5.53153,8.211327 36.25,2 -2.64419,6.280103 2.87176,10.589465 32.40625,4.9375 -3.46187,7.420578 3.48689,12.398179 40.84375,5.5 C 789.57626,30.20036 1135.25,18.71875 1135.25,18.71875 l -31.8125,0 c 11.3534,-0.259303 18.372,-0.431202 23.1563,-0.53125 l 8.6562,0 c 0,0 -6.256,-0.02854 -6.8125,-0.03125 1.4449,-0.02989 5.0261,-0.118625 5.3437,-0.125 l 1.4063,0 c 0,0 -0.6385,-0.03096 -0.6563,-0.03125 l -1.625,0 c -5.2525,-0.08303 -72.888,-1.119852 -158.49995,-0.9375 -121.68361,-1.044572 -275.63387,-2.86715 -326.5625,-5.75 -28.64911,-1.6216993 -47.07637,-1.4543061 -58.9375,-0.5 5.07971,-2.6072514 10.667,-4.3778819 16.25,-5.5 8.50608,-1.70962 16.27917,-3.50431 24.46875,0.53125 l 0.625,-1.25 c -16.69985,-8.2291255 -36.09684,-4.82729022 -49.03125,7.0625 -0.006,0.0052 -0.0256,-0.0052 -0.0312,0 -11.8372,1.733551 -13.38999,4.435442 -13.375,5.75 10e-4,0.129537 0.0394,0.243919 0.0625,0.34375 -0.0473,0.03458 -0.10806,0.08962 -0.15625,0.125 0.0424,-0.125735 0.0915,-0.270844 0.0937,-0.46875 0.0152,-1.335117 -1.57859,-4.11521 -13.9375,-5.84375 -8.00654,-7.3304266 -18.46418,-11.38436003 -29.1875,-11.5 z m 43.1875,17.71875 c 0.0231,0.09048 0.0677,0.159051 0.0937,0.21875 l -0.0625,0 c -0.0109,-0.0079 -0.0204,-0.02339 -0.0312,-0.03125 l 0,-0.1875 z"
       transform="translate(-226.59356,571.71993)"
       id="path2985"
       inkscape:connector-curvature="0" />
  </g>
</svg>
