<?xml version="1.0" encoding="UTF-8" standalone="no"?>
<!-- Created with Inkscape (http://www.inkscape.org/) -->

<svg
   xmlns:dc="http://purl.org/dc/elements/1.1/"
   xmlns:cc="http://creativecommons.org/ns#"
   xmlns:rdf="http://www.w3.org/1999/02/22-rdf-syntax-ns#"
   xmlns:svg="http://www.w3.org/2000/svg"
   xmlns="http://www.w3.org/2000/svg"
   xmlns:xlink="http://www.w3.org/1999/xlink"
   xmlns:sodipodi="http://sodipodi.sourceforge.net/DTD/sodipodi-0.dtd"
   xmlns:inkscape="http://www.inkscape.org/namespaces/inkscape"
   width="744.09448819"
   height="1052.3622047"
   id="svg2"
   version="1.1"
   inkscape:version="0.48.4 r9939"
   sodipodi:docname="New document 1">
  <defs
     id="defs4" />
  <sodipodi:namedview
     id="base"
     pagecolor="#ffffff"
     bordercolor="#666666"
     borderopacity="1.0"
     inkscape:pageopacity="0.0"
     inkscape:pageshadow="2"
     inkscape:zoom="3.6203867"
     inkscape:cx="1341.3487"
     inkscape:cy="1152.0477"
     inkscape:document-units="px"
     inkscape:current-layer="layer1"
     showgrid="false"
     showguides="true"
     inkscape:guide-bbox="true"
     inkscape:snap-global="false"
     inkscape:window-width="1623"
     inkscape:window-height="1080"
     inkscape:window-x="1366"
     inkscape:window-y="0"
     inkscape:window-maximized="0">
    <sodipodi:guide
       orientation="0,1"
       position="1010.9102,1897.8241"
       id="guide3052" />
    <sodipodi:guide
       orientation="1,0"
       position="1222.2846,-1575.838"
       id="guide3054" />
    <sodipodi:guide
       orientation="1,0"
       position="941.96725,1897.8241"
       id="guide3056" />
    <sodipodi:guide
       orientation="0,1"
       position="1284.914,-1533.4116"
       id="guide3058" />
  </sodipodi:namedview>
  <metadata
     id="metadata7">
    <rdf:RDF>
      <cc:Work
         rdf:about="">
        <dc:format>image/svg+xml</dc:format>
        <dc:type
           rdf:resource="http://purl.org/dc/dcmitype/StillImage" />
        <dc:title></dc:title>
      </cc:Work>
    </rdf:RDF>
  </metadata>
  <g
     inkscape:label="Layer 1"
     inkscape:groupmode="layer"
     id="layer1">
    <image
       y="-945.97211"
       x="98.765602"
       id="image3104"
       xlink:href="file:///home/mapc/pr0j/cupdev/www/cupdev.net/cnt/media/_proto/ornaments_drawing.png"
       height="3654.3857"
       width="2617.5601"
       style="opacity:0.40104167;fill:none" />
    <path
       style="fill:#c40000;fill-opacity:0.23780488;stroke:#000000;stroke-width:0.1;stroke-linecap:butt;stroke-linejoin:miter;stroke-miterlimit:4;stroke-opacity:1;stroke-dasharray:none"
       d="M 941.96875 -845.46875 L 941.96875 -704.34375 L 941.96875 -679.65625 L 941.96875 -635.09375 L 969.75 -640.15625 L 975.15625 -661.9375 L 984.375 -657 C 984.375 -657 1116.4062 -587.46875 1125.7812 -583.5625 C 1129.3224 -582.08717 1157.7518 -564.43955 1191.7188 -543.0625 C 1305.4811 -455.02489 1344.1748 -399.33737 1337.25 -292.875 C 1339.0057 -284.95662 1331.1121 -295.30188 1332.3438 -287.4375 C 1348.6523 -183.28291 1314.9828 -75.552145 1235 -27.46875 C 1227.3265 -22.855709 1223.038 -28.628651 1214.4375 -24.96875 L 1244.9375 -4.65625 C 1284.9942 -60.367679 1314.8992 -31.061295 1357.4375 -96.0625 C 1364.3385 -97.624999 1334.2907 -219.10958 1374.5312 -132.25 L 1363.125 -209.03125 L 1357.8125 -281.21875 L 1356.25 -375.75 L 1266.375 -495.84375 C 1295.8775 -477.1006 1318.75 -462.46875 1318.75 -462.46875 C 1365.7648 -419.62499 1400.9666 -357.34934 1427.3438 -292.9375 L 1478.125 -161.6875 C 1485.0877 -66.701995 1493.0448 23.362141 1483.5938 118.78125 C 1528.8853 72.176435 1475.287 -86.481681 1493.75 -152.3125 C 1511.4015 -124.67177 1517.6082 -110.59854 1546.0938 -92.9375 C 1505.2233 -174.85917 1472.4913 -250.97378 1443.125 -315.53125 C 1424.0944 -357.36741 1412.5627 -395.0106 1380.5312 -424.0625 C 1338.0452 -462.59677 1325.0658 -478.15703 1285.1562 -507.78125 C 1316.0303 -500.09548 1353.7745 -496.85265 1388.8125 -508.46875 C 1409.1661 -515.21653 1425.1349 -518.46453 1444.9375 -509.28125 C 1464.7401 -500.09797 1455.1941 -490.72748 1477.75 -494.125 C 1470.2943 -507.31988 1439.083 -536.47494 1413.6562 -537.1875 C 1402.4461 -537.50166 1396.3464 -530.97033 1387.125 -517.34375 C 1353.9973 -512.3026 1341.1163 -507.44634 1307.0312 -518.34375 C 1272.9467 -529.24116 1110.7635 -631.93817 982.21875 -685.84375 L 981.09375 -686.375 C 984.54422 -744.16127 980.25446 -798.0072 955.34375 -834.78125 C 999.02734 -826.30958 1043.6101 -791.40227 1074.2812 -748 C 1044.3189 -754.98162 1026.3078 -755.4216 995.71875 -745.5 C 1067.3476 -723.99552 1130.1902 -711.601 1182.5 -654.4375 C 1187.9537 -653.22751 1187.2067 -658.08707 1193.9375 -656.5625 C 1237.9682 -640.01967 1282.6824 -613.47187 1325 -588 C 1196.4726 -688.88408 1167.757 -680.47413 1101.7812 -747.28125 C 1076.7916 -774.43454 1050.801 -814.08598 1017.1562 -836.9375 C 1031.736 -838.20618 1045.2923 -840.01742 1059.5938 -835.625 C 1102.3456 -810.34922 1133.1898 -787.33398 1167.5 -755.5 C 1170.8131 -755.66022 1171.5153 -759.08866 1171.7812 -761.9375 C 1194.6308 -741.44484 1206.3554 -732.10292 1237.8438 -728.34375 C 1214.1208 -742.0108 1209.3284 -742.64394 1195.3438 -767.28125 C 1192.6418 -763.12194 1190.2908 -763.55852 1187.1562 -763 C 1159.355 -781.84798 1146.9273 -822.07697 1114.9375 -837.625 L 1151.7812 -839.15625 C 1193.7447 -800.64419 1233.2949 -776.67343 1284.2812 -750.125 C 1256.1689 -782.61863 1232.9752 -803.30201 1222.2812 -845.46875 L 941.96875 -845.46875 z M 1345.4375 -214.34375 C 1341.9506 -190.96836 1341.3005 -172.99252 1342.7188 -154.3125 L 1342.6875 -154.375 C 1342.6875 -154.20117 1345.6083 -118.77446 1338.0625 -104.09375 C 1333.1553 -101.47051 1328.9794 -98.470758 1325.125 -95.15625 C 1325.232 -98.15027 1325.4571 -102.71917 1326.5938 -109.25 C 1330.1167 -126.68303 1334.0185 -141.80864 1333.0938 -161.125 C 1337.6162 -177.7718 1341.3867 -195.36803 1345.4375 -214.34375 z M 1323.0625 -129.8125 C 1324.7762 -129.23294 1326.3245 -127.74671 1324.7188 -124 C 1322.0086 -117.67603 1317.5224 -91.366476 1316.8438 -87.3125 C 1313.2866 -83.679761 1309.6833 -79.786775 1305.6562 -75.75 C 1307.4777 -82.777528 1309.0478 -91.424637 1310.3438 -96.84375 C 1311.3583 -101.08637 1313.2775 -106.44566 1315.0312 -110.9375 C 1317.9866 -117.12602 1320.6419 -123.41821 1323.0625 -129.8125 z M 1346.9688 -120.8125 C 1347.6026 -116.96156 1348.295 -112.99948 1349.0312 -108.84375 C 1347.4043 -108.2912 1345.8616 -107.70657 1344.375 -107.09375 C 1344.3684 -110.33359 1344.8188 -114.84106 1346.6875 -119.90625 C 1346.7956 -120.19925 1346.8747 -120.5072 1346.9688 -120.8125 z M 1353.7188 -103.09375 C 1351.582 -99.541039 1349.6145 -96.380952 1347.7188 -93.5 C 1347.4517 -95.39736 1345.8146 -96.84375 1343.8438 -96.84375 C 1343.7897 -96.84375 1343.7406 -96.84585 1343.6875 -96.84375 C 1346.8173 -98.882257 1350.1333 -100.9367 1353.7188 -103.09375 z M 1340.3125 -94.5625 C 1340.0856 -94.067507 1339.9375 -93.517631 1339.9375 -92.9375 C 1339.9375 -90.780124 1341.6863 -89.03125 1343.8438 -89.03125 C 1344.1681 -89.03125 1344.4798 -89.08169 1344.7812 -89.15625 C 1341.6338 -84.685629 1338.6476 -81.009031 1335.5625 -77.8125 C 1336.1489 -78.694686 1336.5 -79.767574 1336.5 -80.90625 C 1336.5 -83.982936 1334.0142 -86.46875 1330.9375 -86.46875 C 1330.0519 -86.46875 1329.2122 -86.242716 1328.4688 -85.875 C 1332.158 -88.844125 1336.052 -91.682693 1340.3125 -94.5625 z M 1304.2188 -90.96875 C 1303.4262 -83.707227 1297.8416 -71.155687 1295.625 -66.375 C 1292.2334 -63.45169 1288.4902 -60.476033 1284.25 -57.46875 C 1284.157 -57.51912 1283.6809 -62.847048 1283.6562 -62.8125 C 1291.6217 -72.134992 1298.3959 -81.469877 1304.2188 -90.96875 z M 1326.4688 -84.25 C 1325.7643 -83.317079 1325.3438 -82.165249 1325.3438 -80.90625 C 1325.3438 -77.829564 1327.8608 -75.3125 1330.9375 -75.3125 C 1332.0656 -75.3125 1333.0914 -75.67363 1333.9688 -76.25 C 1329.4885 -71.893588 1324.6275 -68.337828 1318.5625 -64.65625 C 1319.31 -65.449716 1319.75 -66.511322 1319.75 -67.6875 C 1319.75 -70.135426 1317.7916 -72.125 1315.3438 -72.125 C 1314.4258 -72.125 1313.5511 -71.821666 1312.8438 -71.34375 C 1317.3172 -76.105988 1321.7468 -80.314479 1326.4688 -84.25 z M 1311.5312 -69.9375 C 1311.1364 -69.27462 1310.9062 -68.515113 1310.9062 -67.6875 C 1310.9062 -65.239574 1312.8957 -63.25 1315.3438 -63.25 C 1315.7528 -63.25 1316.124 -63.33379 1316.5 -63.4375 C 1311.1838 -60.315953 1304.9518 -56.991598 1297.25 -52.90625 C 1302.3453 -59.447926 1306.9839 -64.993634 1311.5312 -69.9375 z "
       id="path3877" />
    <path
       style="fill:none;stroke:#000000;stroke-width:1px;stroke-linecap:butt;stroke-linejoin:miter;stroke-opacity:1"
       d="m 1248.0469,31.268428 c 0,0 -5.0781,-20.3125 8.5937,-32.8124998 13.6719,-12.5000002 50.7813,-29.6875002 90.2344,-52.7343752 39.4531,-23.046875 6.6406,-47.656253 6.6406,-47.656253 l -6.25,-66.79687 19.5313,7.03125 c 0,0 10.5469,104.687498 9.7656,104.687498 -0.7812,0 -43.3594,67.1875 -43.3594,67.1875 0,0 -75,12.109375 -74.2187,12.109375 0.7812,0 16.7969,-5.46875 16.7969,-5.46875 l 35.9375,-33.984375 44.9218,-14.0625 3.125,-23.4375 -26.9531,22.65625 -53.9062,23.8281251 -21.4844,23.0468749 z"
       id="path3992"
       inkscape:connector-curvature="0" />
  </g>
</svg>
