<?xml version="1.0" encoding="UTF-8" standalone="no"?>
<!-- Created with Inkscape (http://www.inkscape.org/) -->

<svg
   xmlns:dc="http://purl.org/dc/elements/1.1/"
   xmlns:cc="http://creativecommons.org/ns#"
   xmlns:rdf="http://www.w3.org/1999/02/22-rdf-syntax-ns#"
   xmlns:svg="http://www.w3.org/2000/svg"
   xmlns="http://www.w3.org/2000/svg"
   xmlns:sodipodi="http://sodipodi.sourceforge.net/DTD/sodipodi-0.dtd"
   xmlns:inkscape="http://www.inkscape.org/namespaces/inkscape"
   width="1009.2763"
   height="262.34775"
   id="svg2"
   version="1.1"
   inkscape:version="0.48.4 r9939"
   sodipodi:docname="ornament_title_big.svg">
  <defs
     id="defs4">
    <inkscape:path-effect
       effect="skeletal"
       id="path-effect3793"
       is_visible="true"
       pattern="M 0,0 1,0"
       copytype="single_stretched"
       prop_scale="1"
       scale_y_rel="false"
       spacing="0"
       normal_offset="0"
       tang_offset="0"
       prop_units="false"
       vertical_pattern="false"
       fuse_tolerance="0" />
    <inkscape:path-effect
       effect="skeletal"
       id="path-effect3019"
       is_visible="true"
       pattern="M 0,0 1,0"
       copytype="single_stretched"
       prop_scale="1"
       scale_y_rel="false"
       spacing="0"
       normal_offset="0"
       tang_offset="0"
       prop_units="false"
       vertical_pattern="false"
       fuse_tolerance="0" />
    <inkscape:path-effect
       effect="skeletal"
       id="path-effect2993"
       is_visible="true"
       pattern="M 0,0 1,0"
       copytype="single_stretched"
       prop_scale="1"
       scale_y_rel="false"
       spacing="0"
       normal_offset="0"
       tang_offset="0"
       prop_units="false"
       vertical_pattern="false"
       fuse_tolerance="0" />
    <inkscape:path-effect
       effect="skeletal"
       id="path-effect2987"
       is_visible="true"
       pattern="m 62.142857,28.214286 1,0"
       copytype="single_stretched"
       prop_scale="1"
       scale_y_rel="false"
       spacing="0"
       normal_offset="0"
       tang_offset="0"
       prop_units="false"
       vertical_pattern="false"
       fuse_tolerance="0" />
  </defs>
  <sodipodi:namedview
     id="base"
     pagecolor="#ffffff"
     bordercolor="#666666"
     borderopacity="1.0"
     inkscape:pageopacity="0.0"
     inkscape:pageshadow="2"
     inkscape:zoom="0.9899495"
     inkscape:cx="701.07709"
     inkscape:cy="51.665669"
     inkscape:document-units="px"
     inkscape:current-layer="layer1"
     showgrid="false"
     showguides="true"
     inkscape:guide-bbox="true"
     inkscape:window-width="1920"
     inkscape:window-height="1080"
     inkscape:window-x="1366"
     inkscape:window-y="0"
     inkscape:window-maximized="0"
     fit-margin-left="20"
     fit-margin-top="20"
     fit-margin-right="20"
     fit-margin-bottom="20">
    <sodipodi:guide
       orientation="0,1"
       position="696.06531,177.84689"
       id="guide3789" />
  </sodipodi:namedview>
  <metadata
     id="metadata7">
    <rdf:RDF>
      <cc:Work
         rdf:about="">
        <dc:format>image/svg+xml</dc:format>
        <dc:type
           rdf:resource="http://purl.org/dc/dcmitype/StillImage" />
        <dc:title></dc:title>
      </cc:Work>
    </rdf:RDF>
  </metadata>
  <g
     inkscape:label="Layer 1"
     inkscape:groupmode="layer"
     id="layer1"
     transform="translate(340.99669,-336.51599)">
    <path
       style="fill:#050d07;fill-opacity:1;fill-rule:evenodd;stroke:none"
       d="m 587.95278,405.82304 c 5.67849,0.50602 11.1615,2.41868 16.27362,4.94208 5.619,2.77359 10.83841,6.32495 15.63505,10.35709 4.70902,3.95849 9.03006,8.39334 12.73687,13.30291 3.17296,4.20251 5.96569,8.76696 7.57906,13.77952 2e-5,6e-5 4e-5,1.3e-4 6e-5,1.9e-4 2.28599,7.1023 3.16306,14.76717 1.58973,22.06051 -10e-6,7e-5 -3e-5,1.3e-4 -4e-5,2e-4 -1.2854,5.95845 -4.07878,11.47031 -6.99955,16.8205 -3e-5,6e-5 -6e-5,1.2e-4 -10e-5,1.8e-4 -3.77602,6.91552 -8.79734,13.12385 -14.63028,18.42099 -7.4249,6.74289 -15.94724,12.17239 -24.68922,17.08903 -12.08135,6.79468 -25.06822,11.8575 -38.25097,16.14023 -3e-5,10e-6 -7e-5,2e-5 -10e-5,3e-5 -13.9286,4.52504 -28.14823,8.12171 -42.48163,11.12764 -12.80275,2.68493 -25.70516,4.89592 -38.67193,6.62284 -8.90731,1.18628 -17.84459,2.23327 -26.82197,2.62586 -9.34584,0.40863 -18.70884,0.13483 -28.05708,-0.21452 -7e-5,0 -1.3e-4,0 -2e-4,0 -13.96601,-0.52193 -27.916,-1.4616 -41.82957,-2.77863 -7e-5,-10e-6 -1.3e-4,-10e-6 -2e-4,-2e-5 -15.64826,-1.48124 -31.25727,-3.43863 -46.73884,-6.15576 -4e-5,-1e-5 -7e-5,-1e-5 -10e-5,-2e-5 -14.46526,-2.53876 -28.8637,-5.67078 -42.78601,-10.34605 -14.79643,-4.96884 -29.42427,-10.61188 -43.09815,-18.13842 -13.81778,-7.60575 -26.61936,-16.90934 -39.28185,-26.31358 -3e-5,-2e-5 -5e-5,-4e-5 -8e-5,-6e-5 -7.11672,-5.28546 -13.31253,-11.81768 -18.14307,-19.25069 -2e-5,-3e-5 -4e-5,-6e-5 -6e-5,-9e-5 -4.19502,-6.45511 -7.37053,-13.55998 -9.50567,-20.95646 -1.80862,-6.26539 -2.89231,-12.74091 -3.21063,-19.25435 -0.23094,-4.72545 -0.12021,-9.49231 0.74211,-14.14415 1.30423,-7.03567 4.15115,-13.80855 8.48484,-19.50247 2e-5,-3e-5 4e-5,-5e-5 6e-5,-8e-5 5.02209,-6.59835 11.88823,-11.64674 19.3455,-15.27285 3e-5,-1e-5 6e-5,-3e-5 9e-5,-4e-5 6.87396,-3.34253 14.22224,-5.66671 21.70913,-7.20626 7.86189,-1.61666 15.96808,-2.3805 23.93598,-1.4133 9.73165,1.18169 19.35118,3.92142 27.91433,8.69363 4.72957,2.63577 9.11784,5.97323 12.55212,10.15915 3.57489,4.3573 5.98217,9.66689 6.84413,15.23672 10e-6,3e-5 10e-6,7e-5 2e-5,10e-5 0.86635,5.59832 -0.13225,11.4449 -2.71142,16.48867 -10e-6,3e-5 -3e-5,6e-5 -4e-5,9e-5 -2.57957,5.04451 -6.53439,9.30327 -11.03609,12.74362 -3e-5,2e-5 -5e-5,4e-5 -8e-5,6e-5 -4.61467,3.52666 -9.83052,6.24987 -15.32113,8.14346 -5.00336,1.72555 -10.27564,2.80802 -15.56684,2.6885 -7.84145,-0.17713 -15.66068,-2.36414 -22.31618,-6.51435 -2.28563,-1.42527 -4.43863,-3.06706 -6.3916,-4.92218 -2e-5,-2e-5 -5e-5,-4e-5 -7e-5,-7e-5 -1.16973,-1.11112 -2.29493,-2.28179 -3.22349,-3.60112 -2e-5,-2e-5 -4e-5,-5e-5 -6e-5,-8e-5 -2.63468,-3.74324 -2.49419,-9.19256 -0.1,-13.094 1.42428,-2.32548 3.52757,-4.17344 5.80536,-5.6728 3e-5,-10e-6 6e-5,-3e-5 9e-5,-5e-5 0.80716,-0.53131 1.64241,-1.02015 2.50225,-1.46114 4e-5,-10e-6 7e-5,-3e-5 1e-4,-4e-5 0.25134,-0.12891 0.5048,-0.25374 0.76114,-0.37242 3e-5,-2e-5 6e-5,-3e-5 9e-5,-5e-5 0.0695,-0.0322 0.13925,-0.0639 0.20933,-0.0949 3e-5,-1e-5 6e-5,-3e-5 9e-5,-4e-5 0.0185,-0.008 0.0371,-0.0163 0.0556,-0.0243 3e-5,-2e-5 6e-5,-3e-5 9e-5,-4e-5 0.007,-0.003 0.014,-0.006 0.0209,-0.009 l 0.66624,4.77427 c 1.82422,4.20955 6.20959,6.7247 10.53087,8.26568 3e-5,10e-6 6e-5,2e-5 10e-5,3e-5 5.16735,1.84269 11.19644,1.33604 15.73202,-1.7503 1.66115,-1.13037 3.14411,-2.53771 4.28801,-4.18956 2e-5,-3e-5 4e-5,-6e-5 6e-5,-9e-5 0.72332,-1.04452 1.49007,-2.21421 1.40501,-3.48188 -0.0957,-1.43058 -0.57274,-2.81196 -1.1283,-4.13373 -0.93067,-2.21425 -2.26069,-4.25704 -3.88392,-6.02739 -2.18575,-2.38385 -4.91053,-4.25045 -7.86962,-5.55583 -4.10103,-1.80915 -8.60528,-2.57654 -13.08536,-2.71905 -8.29684,-0.26354 -17.09695,1.24261 -23.43112,6.6078 -4.84898,4.10719 -7.65752,10.30801 -8.31068,16.629 -1e-5,7e-5 -1e-5,1.3e-4 -2e-5,2e-4 -0.30627,2.96457 -0.2868,5.98694 0.37431,8.89303 0.65379,2.87392 1.96856,5.58456 3.75598,7.92805 5.33061,6.98894 13.61529,11.03832 21.66573,14.56692 3e-5,10e-6 6e-5,3e-5 9e-5,4e-5 5.64219,2.47307 11.77388,3.70168 17.91761,4.15444 6.25358,0.46085 12.55098,0.13031 18.76412,-0.71615 5.67469,-0.77311 11.29073,-1.97657 16.78597,-3.58967 4.09475,-1.20199 8.15185,-2.58657 11.98321,-4.46606 3e-5,-10e-6 6e-5,-3e-5 9e-5,-4e-5 5.39392,-2.6459 10.35226,-6.19412 14.55076,-10.49154 3.15765,-3.23203 6.10351,-6.87962 7.43455,-11.19762 0.47229,-1.5322 0.50932,-3.17238 0.30417,-4.76254 -0.18012,-1.39616 -0.54563,-2.76092 -0.8036,-4.14481 0,-3e-5 -10e-6,-7e-5 -10e-6,-10e-5 -0.1954,-1.04828 -0.37087,-2.18347 0.0869,-3.14653 0.21387,-0.44991 0.57786,-0.81862 1.00186,-1.08011 0.59631,-0.36777 1.28521,-0.55903 1.97385,-0.68791 0.72461,-0.13548 1.48602,-0.13872 2.18554,0.0938 3e-5,10e-6 6e-5,3e-5 9e-5,4e-5 0.61818,0.20554 1.16585,0.59192 1.61886,1.06007 1.08593,1.12219 1.73556,2.58548 2.42941,3.98445 0.82077,1.65487 1.6662,3.31689 2.83681,4.74585 1.30574,1.59393 3.05966,2.82465 5.02669,3.43815 2.61376,0.81521 5.36683,1.09447 8.10263,1.20267 3.25028,0.12855 6.50818,-0.0292 9.74334,-0.36769 3.25731,-0.34086 6.49645,-0.86851 9.68466,-1.61784 2.70558,-0.63589 5.39053,-1.41064 7.92657,-2.54774 6.56778,-2.9443 13.12761,-7.92683 14.52458,-14.9875 10e-6,-3e-5 10e-6,-7e-5 2e-5,-1e-4 0.50155,-2.58246 0.13813,-5.44344 -1.4944,-7.50633 -1.24494,-1.57312 -3.40318,-2.51349 -5.314,-1.90247 -3e-5,1e-5 -6e-5,2e-5 -1e-4,3e-5 -1.22995,0.39343 -2.5372,1.16558 -2.75148,2.43899 -1e-5,4e-5 -1e-5,7e-5 -2e-5,1.1e-4 -0.11351,0.67471 0.10228,1.35636 0.3486,1.99467 0.20716,0.53695 0.72692,0.90016 1.25953,1.11825 1.05753,0.43303 2.26633,0.3054 3.36857,0.004 3e-5,-1e-5 7e-5,-2e-5 10e-5,-3e-5 -0.0116,0.84139 -0.60928,1.5615 -1.25028,2.10665 -0.92714,0.78849 -2.03613,1.33606 -3.1663,1.78775 -2.8269,1.12981 -5.88983,1.6761 -8.93322,1.6012 -5.30326,-0.12247 -10.42361,-2.74185 -13.7328,-6.8878 -2.33,-2.91916 -4.39634,-6.0362 -6.2012,-9.3062 -1.00767,-1.82541 -2.44133,-3.42542 -4.22718,-4.50165 -5e-5,-3e-5 -1.1e-4,-7e-5 -1.7e-4,-10e-5 -2.57945,-1.55445 -5.52304,-2.38362 -8.41595,-3.22082 -3e-5,-1e-5 -7e-5,-2e-5 -10e-5,-3e-5 2.98981,-0.23208 6.01745,-0.0537 8.97348,-0.55843 3e-5,0 6e-5,-10e-6 10e-5,-10e-6 3.01527,-0.51488 5.76188,-2.13262 7.93942,-4.28096 2.02522,-1.99799 3.99372,-4.30963 4.4614,-7.11582 0.3593,-2.15586 -0.38351,-4.34075 -1.3436,-6.30418 -1.08679,-2.22234 -2.49101,-4.33329 -4.46507,-5.82426 -3e-5,-2e-5 -5e-5,-4e-5 -8e-5,-6e-5 -3.72694,-2.81486 -8.28647,-4.27588 -12.72865,-5.71828 10e-6,3e-5 2e-5,6e-5 4e-5,9e-5 0.58961,1.504 0.87654,3.20547 0.37603,4.74141 -2e-5,6e-5 -4e-5,1.3e-4 -6e-5,1.9e-4 -0.3129,0.96006 -0.99552,1.78328 -1.85772,2.30885 -1.33094,0.81131 -2.94067,1.03293 -4.49889,1.07226 -9.71187,0.24442 -19.25033,-2.3987 -28.6458,-4.8696 -15.38081,-4.04506 -31.24854,-6.42039 -47.1402,-5.7982 -10.98404,0.43043 -21.99261,1.4225 -32.67725,4.00567 -3e-5,10e-6 -7e-5,2e-5 -1e-4,3e-5 -11.3496,2.74395 -22.21723,7.34962 -32.25608,13.3132 -5e-5,3e-5 -1.1e-4,7e-5 -1.7e-4,1e-4 -11.7888,7.00316 -20.87482,18.31956 -25.5325,31.2163 -5.73464,15.87875 -4.68303,33.66284 0.54167,49.7166 1e-5,4e-5 2e-5,7e-5 3e-5,1e-4 6.02962,18.52694 18.70978,34.31768 33.47477,47.02983 12.70983,10.94272 27.04743,19.92496 42.13863,27.24197 5.0825,2.46426 10.12651,5.00784 15.22536,7.4381 3e-5,2e-5 6e-5,3e-5 9e-5,5e-5 4.38771,2.0913 8.83692,4.05944 13.38685,5.76929 4e-5,1e-5 7e-5,2e-5 1e-4,4e-5 13.82666,5.196 28.3073,8.41363 42.7291,11.6053 3e-5,10e-6 7e-5,10e-6 1e-4,2e-5 -18.47283,-2.07342 -36.92016,-4.76481 -54.92565,-9.38507 -15.08239,-3.87019 -29.82126,-9.23277 -43.54275,-16.59333 -13.05257,-7.00173 -24.98889,-16.00412 -35.7092,-26.22512 -8.78367,-8.37456 -16.9396,-17.52646 -23.2436,-27.89688 -4.50571,-7.4119 -8.52043,-15.13915 -11.70435,-23.20762 -1.15176,-2.91871 -2.20334,-5.88366 -2.96104,-8.92854 -0.47521,-1.9097 -0.95558,-3.87941 -0.71381,-5.83244 0.13548,-1.09606 0.49122,-2.15477 0.95595,-3.15664 2e-5,-6e-5 5e-5,-1.2e-4 8e-5,-1.8e-4 0.41668,-0.89826 0.87127,-1.78717 1.12272,-2.7449 0.35065,-1.33557 0.32553,-2.74487 0.13834,-4.11295 -0.3409,-2.49151 -1.13327,-4.89922 -1.99709,-7.26093 -2e-5,-6e-5 -5e-5,-1.3e-4 -7e-5,-1.9e-4 -2.08697,-5.70557 -5.38251,-11.0073 -9.84938,-15.12506 -4.46759,-4.11842 -9.93615,-7.0286 -15.62235,-9.17055 -6e-5,-2e-5 -1.3e-4,-5e-5 -1.9e-4,-7e-5 -5.74726,-2.16503 -11.87655,-3.3875 -18.017936,-3.34728 -6.8e-5,0 -1.36e-4,0 -2.04e-4,0 -2.420568,0.0159 -4.854814,0.22761 -7.190898,0.86172 -6.6e-5,2e-5 -1.31e-4,4e-5 -1.96e-4,6e-5 -1.702701,0.4622 -3.419582,1.13816 -4.646979,2.40557 4.815052,0.006 9.296649,2.29633 13.6068,4.4428 5.781323,2.87904 10.768133,7.10754 15.442603,11.5642 3.06143,2.91878 5.77647,6.18263 8.3943,9.50508 4e-5,5e-5 8e-5,10e-5 1.3e-4,1.5e-4 3.6303,4.60745 7.00521,9.44588 9.65717,14.67797 4.51853,8.91437 8.65249,18.01831 12.69262,27.15945 3.42631,7.75229 6.73405,15.55759 10.26638,23.26215 3.28896,7.17373 8.17415,13.50178 13.28402,19.51583 4.47222,5.26355 9.19087,10.3515 14.48358,14.78917 -6e-5,-2e-5 -1.3e-4,-5e-5 -1.9e-4,-7e-5 -6.97413,-2.53517 -13.96825,-5.26247 -20.09354,-9.45132 -6e-5,-3e-5 -1.1e-4,-7e-5 -1.7e-4,-1.1e-4 -4.2762,-2.92435 -7.8706,-6.71683 -11.3933,-10.5153 -5e-5,-5e-5 -9e-5,-10e-5 -1.4e-4,-1.5e-4 -8.37416,-9.02927 -16.88414,-17.93166 -25.37309,-26.8531 -9.1427,-9.60851 -18.24988,-19.25297 -27.572973,-28.68655 2.933513,-0.50163 5.959633,-0.96946 8.542773,-2.44748 0.96263,-0.55078 1.84225,-1.29307 2.38665,-2.25931 3e-5,-6e-5 6e-5,-1.2e-4 1e-4,-1.8e-4 0.57621,-1.02283 0.72818,-2.24266 0.61368,-3.41103 -0.45576,-4.65057 -2.79103,-8.93378 -5.47285,-12.76045 -4e-5,-6e-5 -8e-5,-1.1e-4 -1.2e-4,-1.7e-4 -4.862101,-6.93762 -11.655034,-12.3652 -19.037233,-16.52138 -5.688178,-3.20248 -11.819884,-5.55876 -18.047012,-7.51686 -7.749208,-2.4367 -15.716697,-4.17949 -23.774538,-5.20854 -8.568097,-1.09422 -17.260955,-1.37914 -25.851362,-0.47664 -8.3913779,0.88159 -16.720714,2.92504 -24.2773056,6.67875 -6.07e-5,3e-5 -1.214e-4,6e-5 -1.821e-4,9e-5 16.0551979,1.69789 31.8467517,5.81304 46.7098627,12.11702 6.2e-5,3e-5 1.25e-4,5e-5 1.87e-4,8e-5 10.149805,4.30491 19.792592,9.71352 29.20175,15.4597 7.895975,4.82219 14.814788,11.08992 21.349132,17.63991 4.8e-5,4e-5 9.5e-5,9e-5 1.43e-4,1.4e-4 7.35923,7.37686 14.185328,15.2725 20.683128,23.41835 4e-5,5e-5 8e-5,1.1e-4 1.3e-4,1.6e-4 4.16469,5.22084 8.58987,10.2271 13.01012,15.23341 4e-5,6e-5 9e-5,1.1e-4 1.3e-4,1.6e-4 1.66464,1.88534 3.33185,3.76938 4.92791,5.71312 1.10075,1.34053 2.2036,2.69357 3.05931,4.20235 -18.51125,-10.43849 -36.726481,-21.41517 -55.535203,-31.3076 -10.950199,-5.75918 -21.821495,-11.75562 -33.3212,-16.3198 1.049303,-0.52975 1.971603,-1.29616 2.743894,-2.1823 1.025279,-1.17642 1.755445,-2.62181 2.009423,-4.1615 1.1e-5,-7e-5 2.2e-5,-1.3e-4 3.3e-5,-2e-4 0.340289,-2.06328 -0.185102,-4.19569 -1.114819,-6.0688 -1.538449,-3.09954 -4.010427,-5.64144 -6.628931,-7.9036 -4.284268,-3.7013 -9.658789,-5.89738 -15.009413,-7.74816 -7.201474,-2.49099 -14.666567,-4.15892 -22.1783865,-5.43908 -6.68e-5,-10e-6 -1.337e-4,-2e-5 -2.005e-4,-3e-5 -16.804559,-2.86382 -33.952577,-3.89478 -50.9562,-2.68173 -13.302574,0.94893 -26.61931,2.68102 -39.396725,6.50158 -9.866839,2.95026 -19.308472,7.31028 -27.936272,12.93342 25.184347,-2.94349 50.731906,-3.21997 75.876047,0.0492 8.697951,1.13089 17.340338,2.68915 25.8847,4.67085 6.6e-5,1e-5 1.32e-4,3e-5 1.98e-4,4e-5 5.9890548,1.38905 11.92166176,3.0103 17.8320523,4.70308 19.9161057,5.70414 38.7123517,14.81275 56.7008227,25.0891 5.9e-5,3e-5 1.18e-4,7e-5 1.77e-4,10e-5 17.868344,10.20778 35.456462,20.89714 53.112903,31.46723 8.19495,4.90593 16.39132,9.81001 24.64367,14.61876 6e-5,3e-5 1.2e-4,7e-5 1.7e-4,1e-4 3.16538,1.84451 6.33868,3.67576 9.53791,5.46091 2.24509,1.25275 4.49696,2.49607 6.80395,3.6308 10.2906,5.06143 21.01031,9.2032 31.79567,13.1007 15.00441,5.42214 30.26833,10.14464 45.76653,13.9311 43.58313,10.64814 88.26784,16.45321 133.0448,19.2632 12.98637,0.8149 26.01136,0.8104 39.02215,0.63982 7e-5,-10e-6 1.4e-4,-10e-6 2.1e-4,-10e-6 17.09465,-0.22413 34.18303,-0.90332 51.24391,-2.00037 7e-5,-1e-5 1.4e-4,-1e-5 2e-4,-1e-5 17.48156,-1.12411 34.94303,-2.6691 52.30149,-5.02541 7e-5,-10e-6 1.3e-4,-2e-5 2e-4,-3e-5 7.71824,-1.0477 15.41629,-2.25914 23.05791,-3.7673 6.44408,-1.27181 12.85686,-2.73864 19.13553,-4.66789 18.02887,-5.53959 35.84902,-12.23882 51.93677,-22.08317 11.32736,-6.93139 21.5888,-15.66299 29.87103,-26.04363 6.64042,-8.32286 11.93931,-17.89399 14.19507,-28.2996 2e-5,-7e-5 3e-5,-1.3e-4 5e-5,-2e-4 1.93129,-8.90903 1.45288,-18.32297 -1.37932,-26.9878 -2.98925,-9.14532 -9.15165,-16.97408 -16.17023,-23.55527 -6.8942,-6.46458 -14.77942,-11.91619 -23.39358,-15.80425 -7e-5,-2e-5 -1.3e-4,-5e-5 -1.9e-4,-8e-5 -7.18726,-3.24399 -14.98285,-5.05297 -22.84125,-5.70535 -5.91572,-0.4911 -11.91758,-0.43662 -17.74195,0.70951 -7e-5,1e-5 -1.3e-4,3e-5 -2e-4,4e-5 -3.09835,0.60999 -6.35061,1.46169 -8.61895,3.65862 -0.5532,0.5358 -1.08269,1.22897 -1.01167,1.99583 0.0661,0.71343 0.73707,1.21492 1.40202,1.48175 6e-5,3e-5 1.3e-4,5e-5 1.9e-4,8e-5 0.71416,0.2864 1.50798,0.42512 2.25732,0.2504 0.65495,-0.15271 1.23985,-0.51825 1.77834,-0.92113 1.30312,-0.97496 2.55149,-2.09975 4.10755,-2.57655 0.7129,-0.21859 1.38578,-0.54697 2.07668,-0.82742 0.82587,-0.33523 1.71044,-0.50405 2.59769,-0.58903 5.91176,-0.56622 11.86469,0.30701 17.78003,0.83445 z"
       id="path3017"
       inkscape:path-effect="#path-effect3019"
       inkscape:original-d="m 587.95278,405.82304 c 21.1196,1.882 46.562,24.7886 52.2246,42.3816 5.6626,17.5928 0.38,28.2758 -5.4098,38.8814 -7.3436,13.4494 -18.5642,23.837 -39.3196,35.5102 -44.6076,25.0878 -121.9374,35.4544 -146.2266,36.5166 -24.2892,1.062 -108.9384,-2.5454 -159.412,-19.495 -36.0784,-12.1156 -51.39,-21.4362 -82.38,-44.452 -30.9902,-23.0158 -32.701,-59.6684 -30.1174,-73.6058 2.5836,-13.9372 10.766,-26.4778 27.8304,-34.7754 12.1182,-5.8926 30.558,-10.451 45.6452,-8.6196 15.0872,1.832 43.5808,9.9878 47.3106,34.0896 3.7298,24.1018 -25.5114,40.4964 -44.6356,40.0644 -19.124,-0.432 -29.742,-11.927 -31.9314,-15.0378 -2.1894,-3.1106 -2.5354,-9.1254 -0.1,-13.094 3.0458,-4.973 9.3552,-7.6348 9.3552,-7.6348 0,0 -1.974,8.3432 11.197,13.04 13.1708,4.6968 21.6398,-6.2236 21.4252,-9.4218 -0.214,-3.198 -4.4962,-17.753 -25.9672,-18.436 -21.4708,-0.682 -30.4316,10.5572 -31.7418,23.2368 -1.31,12.6796 3.7254,21.7144 25.796,31.3882 22.0706,9.674 53.9306,1.034 65.451,-4.6174 11.5206,-5.6512 19.9532,-15.0966 21.9854,-21.6892 2.0322,-6.5928 -4.2184,-12.5528 2.5632,-13.822 6.7816,-1.268 5.143,10.5296 14.0974,13.3224 8.9544,2.7928 26.8158,0.544 35.4572,-3.3306 8.6412,-3.8738 13.5554,-10.0888 14.5246,-14.9876 1.21,-6.2302 -2.9256,-10.6504 -6.8084,-9.4088 -3.883,1.242 -2.6536,3.7844 -2.403,4.4338 0.25,0.648 1.566,1.96 4.6282,1.122 -0.04,2.9084 -7.2876,5.6448 -13.3498,5.4956 -6.0624,-0.14 -10.4084,-2.7228 -13.7328,-6.8878 -3.3244,-4.165 -4.0176,-5.35 -6.2012,-9.3062 -2.1838,-3.956 -4.8742,-5.4742 -12.6434,-7.7226 6.9568,-0.54 11.3348,0.664 16.913,-4.8394 5.5782,-5.5032 5.2796,-8.999 3.1178,-13.42 -2.162,-4.421 -4.0138,-7.263 -17.1938,-11.5426 0.792,2.0202 2.2044,7.9162 -5.9806,8.1228 -8.1852,0.206 -18.5792,-2.2222 -28.6458,-4.8696 -10.0664,-2.6474 -24.1732,-6.6974 -47.1402,-5.7982 -22.967,0.9 -42.5278,4.0088 -64.9336,17.319 -22.4058,13.3102 -37.3506,42.9556 -24.9908,80.933 12.3598,37.9774 51.7018,62.6782 75.6134,74.2718 23.9116,11.5936 28.6076,15.3554 71.3416,24.8128 -41.8508,-4.6974 -71.7948,-11.67 -98.4684,-25.9784 -26.6736,-14.3084 -48.9,-37.5846 -58.9528,-54.122 -10.053,-16.5372 -16.0322,-32.6936 -15.3792,-37.9686 0.652,-5.2748 4.818,-4.7046 0.22,-17.2756 -4.5982,-12.5712 -13.1764,-19.6642 -25.4718,-24.2958 -12.2954,-4.6318 -25.800803,-4.2678 -29.856403,-0.08 4.8322,0.006 9.7482,2.5212 13.6068,4.4428 7.116203,3.5438 11.935803,8.2208 15.442603,11.5642 3.5066,3.3432 12.861,13.9426 18.0516,24.1832 8.9274,17.6124 17.2666,38.0056 22.959,50.4216 5.6924,12.416 20.4758,28.1912 27.7676,34.305 -19.485,-7.083 -23.603,-11.4654 -31.4872,-19.9668 -7.8844,-8.5012 -42.1288,-44.5942 -52.946203,-55.5398 6.853803,-1.172 12.079203,-2.6486 11.543203,-8.118 -0.536,-5.4694 -5.8882,-18.7978 -24.510203,-29.282 -18.6218,-10.4842 -62.2522,-21.2758 -91.9503997,-6.5232 37.0597997,3.9192 62.1963997,19.2008 75.9117997,27.5768 13.7154,8.3762 29.2052,24.9778 42.032403,41.0584 9.258,11.6058 18.4368,20.634 20.9976,25.1492 -27.0016,-15.2262 -40.629203,-23.4678 -55.535203,-31.3076 -14.9058,-7.8396 -25.8346,-13.3484 -33.3212,-16.3198 3.086,-1.558 10.5864,-8.5872 -2.9904,-20.3164 -13.5766,-11.7292 -56.21,-18.1472 -88.1442,-15.869 -31.934,2.278 -50.6796,8.5812 -67.332997,19.435 61.281197,-7.1624 101.190597,4.1526 119.5929973,9.4232 18.4023997,5.2706 37.3743997,14.0484 56.7009997,25.0892 30.0824,17.1854 80.185803,48.3346 94.098603,55.1778 13.9128,6.843 45.0216,19.0816 77.5622,27.0318 44.3152,10.827 94.1254,16.8208 133.0448,19.2632 38.9192,2.4422 140.2042,-1.13 184.7616,-14.8212 44.5574,-13.6908 66.6714,-29.1554 81.8078,-48.1268 15.1364,-18.9714 18.4452,-38.065 12.8158,-55.2876 -5.6294,-17.2226 -24.3032,-32.4716 -39.564,-39.3596 -15.2608,-6.888 -32.1214,-6.661 -40.5834,-4.9958 -8.4622,1.666 -11.7788,5.7116 -8.2286,7.1362 3.5504,1.424 4.4974,-2.13 8.1434,-3.2472 3.6462,-1.118 1.334,-2.4652 22.4544,-0.582 z"
       inkscape:connector-curvature="0"
       sodipodi:nodetypes="czsszszzszzzzsczzzzzzzzzzczzczzzczzczzzzzzczzzzzcszszczczzczsczczzczszszzzzzzzzzc" />
    <path
       style="fill:#000000;fill-opacity:1;fill-rule:evenodd;stroke:none"
       d="m 634.24798,509.21684 c -3.44173,3.63877 -7.30575,6.85525 -11.26271,9.92585 -5.92982,4.60156 -12.17265,8.79272 -18.60074,12.66788 -17.77245,10.71405 -36.98927,19.00262 -56.91235,24.80967 -13.17454,3.84002 -26.69102,6.3979 -40.24305,8.55581 -2e-5,0 -3e-5,0 -5e-5,0 -15.16749,2.41514 -30.42656,4.22935 -45.715,5.69534 -14.14621,1.35646 -28.32178,2.40867 -42.51375,3.14557 -10.20499,0.52988 -20.42055,0.95778 -30.63915,0.90648 -10.38395,-0.05 -20.7635,-0.46673 -31.13199,-1.03531 -15.59402,-0.85515 -31.16483,-2.12136 -46.69836,-3.73823 -3e-5,0 -7e-5,-10e-6 -10e-5,-10e-6 -40.93588,-4.26097 -81.65061,-10.9065 -121.64035,-20.63905 -38.88493,-9.46372 -76.76236,-22.61289 -114.538927,-35.8239 -35.750701,-12.50253 -71.4340616,-25.43062 -108.174876,-34.6251 -36.900009,-9.23442 -74.402387,-16.15649 -112.235047,-20.10297 -2e-5,0 -3e-5,0 -5e-5,0 -31.28862,-3.26385 -62.93282,-4.84828 -94.1925,-1.31803 -21.71475,2.45231 -43.50234,9.05544 -60.72299,22.50881 -3e-5,2e-5 -6e-5,4e-5 -9e-5,6e-5 -6.16328,4.81499 -11.7145,10.55604 -15.5403,17.37758 -3.03659,5.41434 -4.93271,11.62881 -4.38982,17.81275 0.47284,5.38658 2.59037,10.58797 5.87152,14.88598 3.27999,4.2965 7.59188,7.73845 12.28561,10.41934 4.74426,2.70977 9.901,4.67831 15.21439,5.95058 4.79226,1.14749 9.73821,1.76125 14.65788,1.4797 7.7392,-0.44265 15.44703,-3.37039 21.0348,-8.74328 2.25176,-2.16516 4.15733,-4.73195 5.31889,-7.6318 0.99731,-2.4898 1.41226,-5.26341 0.83293,-7.88222 0,-3e-5 -1e-5,-7e-5 -2e-5,-1e-4 -2.73554,1.04679 -5.71053,1.3483 -8.63906,1.29675 -3.39245,-0.0597 -6.77812,-0.63874 -9.98941,-1.73412 -3.21213,-1.09567 -6.27576,-2.73106 -8.75563,-5.04805 -2.46483,-2.30292 -4.25814,-5.34089 -4.9377,-8.64498 -10e-6,-3e-5 -10e-6,-7e-5 -2e-5,-10e-5 -0.36172,-1.76026 -0.25656,-3.60556 0.24039,-5.33251 0.55843,-1.94057 1.57391,-3.72849 2.80264,-5.33094 3.30735,-4.31331 7.96517,-7.40671 12.77702,-9.93443 15.45798,-8.12025 33.20272,-10.91389 50.63577,-11.90202 4e-5,0 7e-5,0 1.1e-4,-10e-6 13.4544,-0.7626 26.94708,-0.61583 40.41382,-0.1164 17.60087,0.65275 35.17289,2.00979 52.68337,3.90714 3e-5,0 7e-5,0 1e-4,1e-5 41.400369,4.48593 82.535312,11.88624 122.6069973,23.21646 31.5752137,8.92779 63.1486667,17.86481 94.8195017,26.44723 34.098331,9.24023 68.312381,18.04786 102.558901,26.72277 24.31771,6.15977 49.1615,10.04129 74.05952,13.10439 27.22874,3.34983 54.59162,5.56943 81.99155,6.93675 3e-5,1e-5 7e-5,1e-5 1.1e-4,1e-5 24.39633,1.21743 48.83372,1.80171 73.25411,1.24689 9.39027,-0.21334 18.78001,-0.59243 28.14121,-1.36097 6.60779,-0.54248 13.2261,-1.20001 19.7057,-2.60427 3e-5,-1e-5 7e-5,-1e-5 10e-5,-2e-5 11.59006,-2.51174 23.24147,-4.73717 34.81154,-7.33945 13.95912,-3.13961 27.82619,-6.7423 41.39658,-11.27645 14.56417,-4.8662 28.80688,-10.79703 42.18428,-18.33625 13.65756,-7.69712 26.40836,-17.12319 37.1747,-28.51883 z"
       id="path3791"
       inkscape:path-effect="#path-effect3793"
       inkscape:original-d="m 634.24798,509.21684 c -9.869,10.434 -40.8416,34.0148 -86.7758,47.4034 -46.1546,13.4528 -130.03,18.4492 -159.111,18.3032 -29.081,-0.14 -111.9766,-4.1186 -199.4708,-25.4126 -76.3776,-18.5886 -154.821603,-53.4588 -222.713803,-70.449 -76.443597,-19.1304 -154.040797,-27.3372 -206.427597,-21.421 -52.3868,5.9162 -82.657,34.8744 -80.6532,57.6992 2.0036,22.8248 30.4056,33.7442 48.0294,32.7356 17.6238,-1.008 29.4068,-14.2216 27.1866,-24.2574 -9.47,3.6238 -29.432,-0.08 -32.3218,-14.1304 -2.8898,-14.062 22.9246,-30.0326 66.4558,-32.5 43.5314,-2.4674 132.826597,3.5736 215.7043973,27.0072 76.3113997,21.5768 110.7478027,31.2258 197.3784027,53.17 86.0492,21.7966 237.7032,25.8722 277.1522,17.3228 39.449,-8.5492 111.9172,-19.2696 155.5672,-65.471 z"
       inkscape:connector-curvature="0"
       sodipodi:nodetypes="cszsszzzczzsszc" />
  </g>
</svg>
