<?xml version="1.0" encoding="UTF-8" standalone="no"?>
<!-- Created with Inkscape (http://www.inkscape.org/) -->

<svg
   xmlns:dc="http://purl.org/dc/elements/1.1/"
   xmlns:cc="http://creativecommons.org/ns#"
   xmlns:rdf="http://www.w3.org/1999/02/22-rdf-syntax-ns#"
   xmlns:svg="http://www.w3.org/2000/svg"
   xmlns="http://www.w3.org/2000/svg"
   xmlns:sodipodi="http://sodipodi.sourceforge.net/DTD/sodipodi-0.dtd"
   xmlns:inkscape="http://www.inkscape.org/namespaces/inkscape"
   width="1009.2763"
   height="262.34775"
   id="svg2"
   version="1.1"
   inkscape:version="0.48.4 r9939"
   sodipodi:docname="ornament_title_big.svg">
  <defs
     id="defs4">
    <inkscape:path-effect
       effect="skeletal"
       id="path-effect3793"
       is_visible="true"
       pattern="M 0,0 1,0"
       copytype="single_stretched"
       prop_scale="1"
       scale_y_rel="false"
       spacing="0"
       normal_offset="0"
       tang_offset="0"
       prop_units="false"
       vertical_pattern="false"
       fuse_tolerance="0" />
    <inkscape:path-effect
       effect="skeletal"
       id="path-effect3019"
       is_visible="true"
       pattern="M 0,0 1,0"
       copytype="single_stretched"
       prop_scale="1"
       scale_y_rel="false"
       spacing="0"
       normal_offset="0"
       tang_offset="0"
       prop_units="false"
       vertical_pattern="false"
       fuse_tolerance="0" />
    <inkscape:path-effect
       effect="skeletal"
       id="path-effect2993"
       is_visible="true"
       pattern="M 0,0 1,0"
       copytype="single_stretched"
       prop_scale="1"
       scale_y_rel="false"
       spacing="0"
       normal_offset="0"
       tang_offset="0"
       prop_units="false"
       vertical_pattern="false"
       fuse_tolerance="0" />
    <inkscape:path-effect
       effect="skeletal"
       id="path-effect2987"
       is_visible="true"
       pattern="m 62.142857,28.214286 1,0"
       copytype="single_stretched"
       prop_scale="1"
       scale_y_rel="false"
       spacing="0"
       normal_offset="0"
       tang_offset="0"
       prop_units="false"
       vertical_pattern="false"
       fuse_tolerance="0" />
  </defs>
  <sodipodi:namedview
     id="base"
     pagecolor="#ffffff"
     bordercolor="#666666"
     borderopacity="1.0"
     inkscape:pageopacity="0.0"
     inkscape:pageshadow="2"
     inkscape:zoom="0.9899495"
     inkscape:cx="701.07709"
     inkscape:cy="51.665669"
     inkscape:document-units="px"
     inkscape:current-layer="layer1"
     showgrid="false"
     showguides="true"
     inkscape:guide-bbox="true"
     inkscape:window-width="1920"
     inkscape:window-height="1080"
     inkscape:window-x="1366"
     inkscape:window-y="0"
     inkscape:window-maximized="0"
     fit-margin-left="20"
     fit-margin-top="20"
     fit-margin-right="20"
     fit-margin-bottom="20">
    <sodipodi:guide
       orientation="0,1"
       position="696.06531,177.84689"
       id="guide3789" />
  </sodipodi:namedview>
  <metadata
     id="metadata7">
    <rdf:RDF>
      <cc:Work
         rdf:about="">
        <dc:format>image/svg+xml</dc:format>
        <dc:type
           rdf:resource="http://purl.org/dc/dcmitype/StillImage" />
        <dc:title />
      </cc:Work>
    </rdf:RDF>
  </metadata>
  <g
     inkscape:label="Layer 1"
     inkscape:groupmode="layer"
     id="layer1"
     transform="translate(340.99669,-336.51599)">
    <path
       style="fill:#050d07;fill-opacity:1;fill-rule:evenodd;stroke:none"
       d="m -260.66989,405.82304 c -5.67849,0.50602 -11.1615,2.41868 -16.27362,4.94208 -5.619,2.77359 -10.83841,6.32495 -15.63506,10.35709 -4.70901,3.95849 -9.03005,8.39334 -12.73686,13.30291 -3.17296,4.20251 -5.96569,8.76696 -7.57906,13.77952 -2e-5,6e-5 -4e-5,1.3e-4 -6e-5,1.9e-4 -2.28599,7.1023 -3.16306,14.76717 -1.58973,22.06051 1e-5,7e-5 3e-5,1.3e-4 4e-5,2e-4 1.2854,5.95845 4.07878,11.47031 6.99955,16.8205 3e-5,6e-5 6e-5,1.2e-4 10e-5,1.8e-4 3.77602,6.91552 8.79734,13.12385 14.63028,18.42099 7.4249,6.74289 15.94724,12.17239 24.68922,17.08903 12.08132,6.79467 25.06816,11.85747 38.25088,16.1402 6e-5,2e-5 1.2e-4,4e-5 1.9e-4,6e-5 13.9286,4.52504 28.14823,8.12171 42.48163,11.12764 12.80275,2.68493 25.70516,4.89592 38.67193,6.62284 8.90731,1.18628 17.84459,2.23327 26.82197,2.62586 9.3459,0.40863 18.70897,0.13483 28.057278,-0.21452 13.966012,-0.52193 27.916002,-1.4616 41.829568,-2.77863 3.3e-5,0 6.7e-5,-10e-6 1.01e-4,-10e-6 15.648291,-1.48124 31.257332,-3.43864 46.7389417,-6.15577 3.34e-5,-1e-5 6.67e-5,-1e-5 1.001e-4,-2e-5 14.4652571,-2.53876 28.8636922,-5.67078 42.7860062,-10.34605 14.796435,-4.96884 29.424271,-10.61188 43.098151,-18.13842 13.817777,-7.60575 26.619364,-16.90934 39.281854,-26.31358 3e-5,-2e-5 5e-5,-4e-5 8e-5,-6e-5 7.11672,-5.28546 13.31253,-11.81768 18.14307,-19.25069 4.19505,-6.45514 7.37058,-13.56004 9.50572,-20.95655 1.80863,-6.26539 2.89232,-12.74091 3.21064,-19.25435 0.23094,-4.72545 0.12021,-9.49231 -0.74211,-14.14415 -1.30423,-7.03567 -4.15115,-13.80855 -8.48484,-19.50247 -2e-5,-3e-5 -4e-5,-5e-5 -6e-5,-8e-5 -5.02209,-6.59835 -11.88823,-11.64674 -19.3455,-15.27285 -6.87395,-3.34253 -14.22224,-5.66672 -21.70913,-7.20628 -3e-5,-10e-6 -6e-5,-10e-6 -1e-4,-2e-5 -7.861887,-1.61666 -15.968075,-2.3805 -23.935975,-1.4133 -9.73165,1.18169 -19.351181,3.92142 -27.914325,8.69363 -4.729575,2.63577 -9.117841,5.97323 -12.552122,10.15915 -3.574893,4.3573 -5.982177,9.66689 -6.844137,15.23672 -6e-6,3e-5 -1.1e-5,7e-5 -1.6e-5,10e-5 -0.866346,5.59829 0.132235,11.44483 2.71137,16.48858 3.1e-5,6e-5 6.2e-5,1.2e-4 9.2e-5,1.8e-4 2.57957,5.04451 6.534389,9.30327 11.036088,12.74362 4.614689,3.52669 9.830569,6.24992 15.321212,8.14352 5.003357,1.72555 10.275637,2.80802 15.566838,2.6885 7.841455,-0.17713 15.660686,-2.36414 22.316178,-6.51435 2.285637,-1.42527 4.438637,-3.06706 6.391607,-4.92218 1.16975,-1.11114 2.29498,-2.28183 3.22356,-3.60119 2e-5,-2e-5 4e-5,-5e-5 6e-5,-8e-5 2.63468,-3.74324 2.49419,-9.19256 0.1,-13.094 -1.42428,-2.32548 -3.52757,-4.17344 -5.80537,-5.6728 -2e-5,-10e-6 -5e-5,-3e-5 -8e-5,-5e-5 l -3.549643,-1.9619 c 0.002,0.009 0.0039,0.0181 0.0058,0.027 7e-6,3e-5 1.3e-5,6e-5 2e-5,10e-5 0.005,0.0243 0.0097,0.0488 0.01405,0.0732 0.01642,0.0918 0.02941,0.18422 0.04028,0.27685 8e-6,7e-5 1.6e-5,1.4e-4 2.4e-5,2e-4 0.03946,0.33644 0.05085,0.67589 0.04202,1.01451 -10e-7,3e-5 -2e-6,7e-5 -3e-6,10e-5 -0.03034,1.16281 -0.305877,2.31499 -0.768391,3.38228 -1.824219,4.20955 -6.209587,6.7247 -10.530871,8.26568 -3.2e-5,10e-6 -6.4e-5,2e-5 -9.6e-5,3e-5 -5.167352,1.84269 -11.196448,1.33604 -15.732029,-1.7503 -1.661142,-1.13037 -3.144107,-2.53771 -4.288008,-4.18956 -1.9e-5,-3e-5 -3.8e-5,-6e-5 -5.8e-5,-9e-5 -0.723322,-1.04452 -1.49007,-2.21421 -1.405009,-3.48188 0.09573,-1.43058 0.572742,-2.81196 1.128297,-4.13373 0.930671,-2.21425 2.260695,-4.25704 3.883928,-6.02739 2.185747,-2.38385 4.910529,-4.25045 7.869616,-5.55583 4.101025,-1.80915 8.605281,-2.57654 13.085359,-2.71905 8.296844,-0.26354 17.096955,1.24261 23.431125,6.6078 4.84898,4.10719 7.65752,10.30801 8.31068,16.629 0,3e-5 1e-5,7e-5 1e-5,1e-4 0.30628,2.9646 0.28682,5.987 -0.3743,8.89313 -2e-5,7e-5 -3e-5,1.4e-4 -5e-5,2e-4 -0.6538,2.87384 -1.96855,5.58441 -3.75594,7.92785 -5.3306,6.98894 -13.61528,11.03832 -21.665725,14.56692 -3.1e-5,10e-6 -6.2e-5,3e-5 -9.3e-5,4e-5 -5.64219,2.47307 -11.773875,3.70168 -17.917604,4.15444 -6.253579,0.46085 -12.550986,0.13031 -18.764128,-0.71615 -5.674687,-0.77311 -11.290725,-1.97657 -16.785966,-3.58967 -4.094751,-1.20199 -8.151854,-2.58657 -11.983209,-4.46606 -3e-5,-10e-6 -6.1e-5,-3e-5 -9.1e-5,-4e-5 -5.393922,-2.6459 -10.352259,-6.19412 -14.550759,-10.49153 -3.15765,-3.23204 -6.103505,-6.87963 -7.4345496,-11.19763 -0.4722943,-1.5322 -0.5093226,-3.17238 -0.3041719,-4.76254 0.1801219,-1.39616 0.5456363,-2.76092 0.8035967,-4.14481 1.25e-5,-7e-5 2.49e-5,-1.3e-4 3.73e-5,-2e-4 0.1953921,-1.04826 0.3708365,-2.1834 -0.086953,-3.14643 -0.2138688,-0.44991 -0.577864,-0.81862 -1.0018628,-1.08011 -0.5963057,-0.36777 -1.2852107,-0.55903 -1.9738464,-0.68791 -0.7246074,-0.13548 -1.48602,-0.13872 -2.1855383,0.0938 -3.22e-5,10e-6 -6.43e-5,3e-5 -9.65e-5,4e-5 -0.6181719,0.20554 -1.1658428,0.59192 -1.618859,1.06007 -1.08592443,1.12219 -1.73555627,2.58548 -2.42940622,3.98445 -0.82076908,1.65487 -1.66619808,3.31689 -2.83680628,4.74585 -1.3057455,1.59393 -3.0596669,2.82465 -5.0266937,3.43815 -2.6137624,0.81521 -5.3668254,1.09447 -8.1026284,1.20267 -3.250285,0.12855 -6.508185,-0.0292 -9.743347,-0.3677 -3.257303,-0.34085 -6.496445,-0.8685 -9.684659,-1.61783 -2.70558,-0.63589 -5.390521,-1.41064 -7.926566,-2.54774 -6.567782,-2.9443 -13.127615,-7.92683 -14.52458,-14.9875 -7e-6,-3e-5 -1.3e-5,-7e-5 -2e-5,-1e-4 -0.501553,-2.58246 -0.138127,-5.44344 1.4944,-7.50632 1.24494,-1.57313 3.403176,-2.5135 5.314,-1.90248 6.5e-5,2e-5 1.29e-4,4e-5 1.94e-4,6e-5 1.229926,0.39344 2.537107,1.16558 2.751389,2.43896 6e-6,4e-5 1.1e-5,7e-5 1.7e-5,10e-5 0.113506,0.67472 -0.102278,1.35637 -0.3486,1.99468 -0.207158,0.53695 -0.726917,0.90016 -1.259525,1.11825 -1.057537,0.43303 -2.266337,0.3054 -3.368577,0.004 -3.3e-5,-1e-5 -6.5e-5,-2e-5 -9.8e-5,-3e-5 0.01157,0.84139 0.60928,1.5615 1.250284,2.10665 0.927135,0.78849 2.036122,1.33606 3.166291,1.78775 2.826902,1.12981 5.889835,1.6761 8.933225,1.6012 5.303264,-0.12247 10.423609,-2.74185 13.7328,-6.8878 2.330001,-2.91916 4.396344,-6.0362 6.2012,-9.3062 1.007666,-1.82541 2.441329,-3.42542 4.227175,-4.50165 2.9e-5,-2e-5 5.8e-5,-3e-5 8.7e-5,-5e-5 2.579468,-1.55448 5.523095,-2.38366 8.4160407,-3.22087 3.26e-5,-1e-5 6.51e-5,-2e-5 9.77e-5,-3e-5 -2.9898134,-0.23207 -6.0174494,-0.0537 -8.9734754,-0.55842 -3.3e-5,-1e-5 -6.7e-5,-2e-5 -10e-5,-2e-5 -3.015279,-0.51488 -5.761888,-2.13262 -7.939425,-4.28096 -2.02522,-1.99799 -3.993717,-4.30963 -4.4614,-7.11582 -0.359297,-2.15586 0.383515,-4.34075 1.3436,-6.30418 1.086792,-2.22234 2.491011,-4.33329 4.465069,-5.82426 2.7e-5,-2e-5 5.4e-5,-4e-5 8.1e-5,-6e-5 3.726943,-2.81486 8.286466,-4.27588 12.72865,-5.71828 -1.2e-5,3e-5 -2.5e-5,6e-5 -3.7e-5,9e-5 -0.58961,1.504 -0.876544,3.20547 -0.376038,4.74141 1.1e-5,3e-5 2.1e-5,6e-5 3.2e-5,1e-4 0.312887,0.96009 0.9955215,1.78335 1.8577525,2.30894 1.3309387,0.81131 2.9406664,1.03293 4.4988909,1.07226 9.7118676,0.24442 19.2503346,-2.3987 28.6457996,-4.8696 15.380815,-4.04506 31.248541,-6.42039 47.1402,-5.7982 10.984038,0.43043 21.99261,1.4225 32.677255,4.00568 3e-5,0 6e-5,1e-5 1e-4,2e-5 11.34963,2.74396 22.21729,7.34965 32.25616,13.31325 3e-5,2e-5 6e-5,3e-5 9e-5,5e-5 11.7888,7.00316 20.87482,18.31956 25.5325,31.2163 5.73463,15.87871 4.68304,33.66277 -0.54164,49.71651 -2e-5,6e-5 -4e-5,1.3e-4 -6e-5,1.9e-4 -6.02962,18.52694 -18.70978,34.31768 -33.47478,47.02982 -12.70983,10.94273 -27.04742,19.92497 -42.138625,27.24198 -5.082502,2.46426 -10.126514,5.00784 -15.225362,7.4381 -4.387733,2.09133 -8.836976,4.05948 -13.386943,5.76934 -3.2e-5,1e-5 -6.3e-5,2e-5 -9.5e-5,4e-5 -13.826663,5.196 -28.307301,8.41363 -42.729101,11.6053 -3.3e-5,10e-6 -6.6e-5,10e-6 -9.9e-5,2e-5 18.472834,-2.07342 36.920156,-4.76481 54.925651,-9.38507 15.082396,-3.87019 29.821265,-9.23277 43.542754,-16.59333 13.05257,-7.00173 24.98889,-16.00412 35.7092,-26.22512 8.78367,-8.37456 16.9396,-17.52646 23.2436,-27.89688 4.50571,-7.4119 8.52043,-15.13915 11.70435,-23.20763 1.15176,-2.9187 2.20334,-5.88365 2.96104,-8.92853 0.47521,-1.9097 0.95558,-3.87941 0.71381,-5.83244 -0.13548,-1.09606 -0.49122,-2.15477 -0.95595,-3.15664 -2e-5,-6e-5 -5e-5,-1.2e-4 -8e-5,-1.8e-4 -0.41668,-0.89826 -0.87127,-1.78717 -1.12272,-2.7449 -0.35065,-1.33557 -0.32553,-2.74487 -0.13834,-4.11295 0.3409,-2.49151 1.13327,-4.89922 1.99709,-7.26093 2e-5,-6e-5 5e-5,-1.3e-4 7e-5,-1.9e-4 2.08697,-5.70557 5.38251,-11.0073 9.84938,-15.12506 4.46759,-4.11842 9.93615,-7.0286 15.62235,-9.17055 6e-5,-2e-5 1.3e-4,-5e-5 1.9e-4,-7e-5 5.74726,-2.16503 11.87655,-3.3875 18.01793,-3.34728 7e-5,0 1.4e-4,0 2.1e-4,0 2.42057,0.0159 4.85481,0.22761 7.1909,0.86172 6e-5,2e-5 1.3e-4,4e-5 1.9e-4,6e-5 1.7027,0.4622 3.41958,1.13816 4.64698,2.40557 -4.81505,0.006 -9.29665,2.29633 -13.6068,4.4428 -5.78132,2.87904 -10.76813,7.10754 -15.4426,11.5642 -3.06143,2.91878 -5.77647,6.18263 -8.3943,9.50507 -4e-5,6e-5 -8e-5,1.1e-4 -1.3e-4,1.6e-4 -3.6303,4.60745 -7.00521,9.44588 -9.65717,14.67797 -4.51853,8.91437 -8.65249,18.01831 -12.69263,27.15945 -3.4263,7.75229 -6.73404,15.55759 -10.26637,23.26215 -3.28896,7.17373 -8.17415,13.50178 -13.28403,19.51583 -4.47221,5.26355 -9.19086,10.3515 -14.48357,14.78917 6e-5,-2e-5 1.3e-4,-5e-5 1.9e-4,-7e-5 6.9742,-2.5352 13.96838,-5.26252 20.09371,-9.45143 4.2762,-2.92435 7.8706,-6.71683 11.3933,-10.5153 5e-5,-5e-5 9e-5,-10e-5 1.4e-4,-1.5e-4 8.37416,-9.02927 16.88414,-17.93166 25.37308,-26.8531 9.14271,-9.60851 18.24989,-19.25297 27.57298,-28.68655 -2.93352,-0.50163 -5.95963,-0.96946 -8.54278,-2.44747 -0.96262,-0.55079 -1.84224,-1.29308 -2.38664,-2.25932 -3e-5,-6e-5 -6e-5,-1.2e-4 -1e-4,-1.8e-4 -0.57621,-1.02283 -0.72818,-2.24266 -0.61368,-3.41103 0.45576,-4.65057 2.79103,-8.93378 5.47285,-12.76045 4e-5,-6e-5 8e-5,-1.1e-4 1.2e-4,-1.7e-4 4.8621,-6.93762 11.65503,-12.3652 19.03723,-16.52138 5.68818,-3.20248 11.81988,-5.55876 18.04701,-7.51686 7.74921,-2.4367 15.7167,-4.17949 23.77454,-5.20854 8.5681,-1.09422 17.26096,-1.37914 25.85136,-0.47664 8.39145,0.88159 16.72085,2.92507 24.27749,6.67884 -16.0552,1.69789 -31.84675,5.81304 -46.70986,12.11702 -7e-5,3e-5 -1.3e-4,5e-5 -1.9e-4,8e-5 -10.1498,4.30491 -19.79259,9.71352 -29.20175,15.4597 -7.89598,4.82219 -14.81479,11.08992 -21.34913,17.63991 -5e-5,4e-5 -1e-4,9e-5 -1.5e-4,1.4e-4 -7.35922,7.37686 -14.18532,15.2725 -20.68312,23.41835 -4.16473,5.22089 -8.58996,10.22721 -13.01025,15.23357 -4e-5,6e-5 -9e-5,1.1e-4 -1.3e-4,1.6e-4 -1.66464,1.88534 -3.33185,3.76938 -4.92791,5.71312 -1.10075,1.34053 -2.2036,2.69357 -3.05931,4.20235 18.51124,-10.43849 36.72648,-21.41517 55.5352,-31.3076 10.9502,-5.75918 21.82149,-11.75562 33.3212,-16.3198 -1.0493,-0.52975 -1.9716,-1.29616 -2.74389,-2.1823 -1.02528,-1.17642 -1.75545,-2.62181 -2.00943,-4.1615 -10e-6,-7e-5 -2e-5,-1.3e-4 -3e-5,-2e-4 -0.34029,-2.06328 0.1851,-4.19569 1.11482,-6.0688 1.53845,-3.09954 4.01043,-5.64144 6.62893,-7.9036 4.28427,-3.7013 9.65879,-5.89738 15.00941,-7.74816 7.20154,-2.49101 14.6667,-4.15895 22.17859,-5.43911 16.80456,-2.86382 33.95258,-3.89478 50.9562,-2.68173 13.30257,0.94893 26.61931,2.68102 39.39672,6.50158 9.86684,2.95026 19.30848,7.31028 27.93628,12.93342 -25.18435,-2.94349 -50.73191,-3.21997 -75.87605,0.0492 -8.69795,1.13089 -17.34034,2.68915 -25.8847,4.67085 -7e-5,1e-5 -1.3e-4,3e-5 -2e-4,4e-5 -5.98905,1.38905 -11.92166,3.0103 -17.83205,4.70308 -19.91611,5.70414 -38.71235,14.81275 -56.70082,25.0891 -6e-5,3e-5 -1.2e-4,7e-5 -1.8e-4,10e-5 -17.86834,10.20778 -35.45646,20.89714 -53.1129,31.46723 -8.19495,4.90593 -16.39132,9.81001 -24.64367,14.61876 -6e-5,3e-5 -1.2e-4,7e-5 -1.7e-4,1e-4 -3.16539,1.84451 -6.33868,3.67576 -9.53791,5.46091 -2.24509,1.25275 -4.49696,2.49607 -6.80395,3.6308 -10.2906,5.06143 -21.01031,9.2032 -31.79568,13.1007 -15.0044,5.42214 -30.26832,10.14464 -45.766525,13.9311 -43.583127,10.64814 -88.2678439,16.45321 -133.0448,19.2632 -12.986365,0.8149 -26.011363,0.8104 -39.022152,0.63982 -6.8e-5,-10e-6 -1.36e-4,-10e-6 -2.04e-4,-10e-6 -17.094651,-0.22413 -34.183029,-0.90332 -51.243909,-2.00037 -7e-5,-1e-5 -1.4e-4,-1e-5 -2.1e-4,-1e-5 -17.48155,-1.12411 -34.94302,-2.6691 -52.30148,-5.02541 -7e-5,-10e-6 -1.3e-4,-2e-5 -2e-4,-3e-5 -7.71825,-1.0477 -15.41629,-2.25914 -23.05791,-3.7673 -6.44408,-1.27181 -12.85686,-2.73864 -19.13553,-4.66789 -18.02887,-5.53959 -35.84902,-12.23882 -51.93677,-22.08317 -11.32736,-6.93139 -21.5888,-15.66299 -29.87103,-26.04363 -6.64042,-8.32286 -11.93931,-17.89399 -14.19508,-28.2996 -10e-6,-7e-5 -2e-5,-1.3e-4 -4e-5,-2e-4 -1.93129,-8.90903 -1.45288,-18.32297 1.37932,-26.9878 2.98925,-9.14532 9.15165,-16.97408 16.17022,-23.55527 6.89421,-6.46458 14.77943,-11.91619 23.39359,-15.80425 7e-5,-2e-5 1.3e-4,-5e-5 1.9e-4,-8e-5 7.18726,-3.24399 14.98285,-5.05297 22.84125,-5.70535 5.91572,-0.4911 11.91758,-0.43662 17.74195,0.70951 7e-5,1e-5 1.3e-4,3e-5 2e-4,4e-5 3.09835,0.60999 6.35061,1.46169 8.61895,3.65863 0.5532,0.53579 1.08269,1.22896 1.01167,1.99582 -0.0661,0.71343 -0.73707,1.21492 -1.40202,1.48175 -6e-5,3e-5 -1.3e-4,5e-5 -1.9e-4,8e-5 -0.71416,0.2864 -1.50798,0.42512 -2.25732,0.2504 -0.65495,-0.15271 -1.23985,-0.51825 -1.77834,-0.92113 -1.30312,-0.97496 -2.55149,-2.09975 -4.10755,-2.57655 -0.7129,-0.21859 -1.38578,-0.54697 -2.07668,-0.82742 -0.82587,-0.33523 -1.71044,-0.50405 -2.59769,-0.58903 -5.91176,-0.56622 -11.86469,0.30701 -17.78003,0.83445 z"
       id="path3017"
       inkscape:path-effect="#path-effect3019"
       inkscape:original-d="m -260.66989,405.82304 c -21.1196,1.882 -46.562,24.7886 -52.2246,42.3816 -5.6626,17.5928 -0.38,28.2758 5.4098,38.8814 7.3436,13.4494 18.5642,23.837 39.3196,35.5102 44.6076,25.0878 121.9374,35.4544 146.2266,36.5166 24.289195,1.062 108.938395,-2.5454 159.411995,-19.495 36.0784,-12.1156 51.39,-21.4362 82.380005,-44.452 30.9902,-23.0158 32.701,-59.6684 30.1174,-73.6058 -2.5836,-13.9372 -10.766,-26.4778 -27.8304,-34.7754 -12.1182,-5.8926 -30.558005,-10.451 -45.645205,-8.6196 -15.0872,1.832 -43.5808,9.9878 -47.3106,34.0896 -3.7298,24.1018 25.5114,40.4964 44.6356,40.0644 19.124,-0.432 29.742005,-11.927 31.931405,-15.0378 2.1894,-3.1106 2.5354,-9.1254 0.1,-13.094 -3.0458,-4.973 -9.355205,-7.6348 -9.355205,-7.6348 0,0 1.974,8.3432 -11.197,13.04 -13.1708,4.6968 -21.6398,-6.2236 -21.4252,-9.4218 0.214,-3.198 4.4962,-17.753 25.9672,-18.436 21.470805,-0.682 30.431605,10.5572 31.741805,23.2368 1.31,12.6796 -3.7254,21.7144 -25.796005,31.3882 -22.0706,9.674 -53.9306,1.034 -65.451,-4.6174 -11.5206,-5.6512 -19.9532,-15.0966 -21.9853996,-21.6892 -2.0322,-6.5928 4.2183996,-12.5528 -2.5632,-13.822 -6.78160003,-1.268 -5.14300003,10.5296 -14.0974,13.3224 -8.9544004,2.7928 -26.8158004,0.544 -35.4572004,-3.3306 -8.6412,-3.8738 -13.5554,-10.0888 -14.5246,-14.9876 -1.21,-6.2302 2.9256,-10.6504 6.8084,-9.4088 3.883,1.242 2.6536,3.7844 2.403,4.4338 -0.25,0.648 -1.566,1.96 -4.6282,1.122 0.04,2.9084 7.2876,5.6448 13.3498,5.4956 6.0624,-0.14 10.4084,-2.7228 13.7328,-6.8878 3.3244,-4.165 4.0176,-5.35 6.2012,-9.3062 2.1838,-3.956 4.8742,-5.4742 12.6434004,-7.7226 -6.9568004,-0.54 -11.3348004,0.664 -16.9130004,-4.8394 -5.5782,-5.5032 -5.2796,-8.999 -3.1178,-13.42 2.162,-4.421 4.0138,-7.263 17.1938,-11.5426 -0.792,2.0202 -2.2044,7.9162 5.9806004,8.1228 8.1852,0.206 18.5791996,-2.2222 28.6457996,-4.8696 10.0664,-2.6474 24.1732,-6.6974 47.1402,-5.7982 22.967,0.9 42.527805,4.0088 64.933605,17.319 22.4058,13.3102 37.3506,42.9556 24.9908,80.933 -12.3598,37.9774 -51.7018,62.6782 -75.613405,74.2718 -23.9116,11.5936 -28.6076,15.3554 -71.3416,24.8128 41.8508,-4.6974 71.7948,-11.67 98.468405,-25.9784 26.6736,-14.3084 48.9,-37.5846 58.9528,-54.122 10.053,-16.5372 16.0322,-32.6936 15.3792,-37.9686 -0.652,-5.2748 -4.818,-4.7046 -0.22,-17.2756 4.5982,-12.5712 13.1764,-19.6642 25.4718,-24.2958 12.2954,-4.6318 25.8008,-4.2678 29.8564,-0.08 -4.8322,0.006 -9.7482,2.5212 -13.6068,4.4428 -7.1162,3.5438 -11.9358,8.2208 -15.4426,11.5642 -3.5066,3.3432 -12.861,13.9426 -18.0516,24.1832 -8.9274,17.6124 -17.2666,38.0056 -22.959,50.4216 -5.6924,12.416 -20.4758,28.1912 -27.7676,34.305 19.485,-7.083 23.603,-11.4654 31.4872,-19.9668 7.8844,-8.5012 42.1288,-44.5942 52.9462,-55.5398 -6.8538,-1.172 -12.0792,-2.6486 -11.5432,-8.118 0.536,-5.4694 5.8882,-18.7978 24.5102,-29.282 18.6218,-10.4842 62.2522,-21.2758 91.9504,-6.5232 -37.0598,3.9192 -62.1964,19.2008 -75.9118,27.5768 -13.7154,8.3762 -29.2052,24.9778 -42.0324,41.0584 -9.258,11.6058 -18.4368,20.634 -20.9976,25.1492 27.0016,-15.2262 40.6292,-23.4678 55.5352,-31.3076 14.9058,-7.8396 25.8346,-13.3484 33.3212,-16.3198 -3.086,-1.558 -10.5864,-8.5872 2.9904,-20.3164 13.5766,-11.7292 56.21,-18.1472 88.1442,-15.869 31.934,2.278 50.6796,8.5812 67.333,19.435 -61.2812,-7.1624 -101.1906,4.1526 -119.593,9.4232 -18.4024,5.2706 -37.3744,14.0484 -56.701,25.0892 -30.0824,17.1854 -80.1858,48.3346 -94.0986,55.1778 -13.9128,6.843 -45.0216,19.0816 -77.562205,27.0318 -44.3152,10.827 -94.12539963,16.8208 -133.0448,19.2632 -38.9192,2.4422 -140.204195,-1.13 -184.761595,-14.8212 -44.5574,-13.6908 -66.6714,-29.1554 -81.8078,-48.1268 -15.1364,-18.9714 -18.4452,-38.065 -12.8158,-55.2876 5.6294,-17.2226 24.3032,-32.4716 39.564,-39.3596 15.2608,-6.888 32.1214,-6.661 40.5834,-4.9958 8.4622,1.666 11.7788,5.7116 8.2286,7.1362 -3.5504,1.424 -4.4974,-2.13 -8.1434,-3.2472 -3.6462,-1.118 -1.334,-2.4652 -22.4544,-0.582 z"
       inkscape:connector-curvature="0"
       sodipodi:nodetypes="czsszszzszzzzsczzzzzzzzzzczzczzzczzczzzzzzczzzzzcszszczczzczsczczzczszszzzzzzzzzc" />
    <path
       style="fill:#000000;fill-opacity:1;fill-rule:evenodd;stroke:none"
       d="m -306.96509,509.21684 c 3.44173,3.63877 7.30575,6.85525 11.26271,9.92585 5.92982,4.60156 12.17265,8.79272 18.60074,12.66787 17.77245,10.71406 36.98927,19.00263 56.91235,24.80968 13.17454,3.84002 26.69102,6.3979 40.24305,8.55581 2e-5,0 3e-5,0 5e-5,0 15.16749,2.41514 30.42656,4.22935 45.715,5.69534 14.1462,1.35646 28.32177,2.40867 42.513746,3.14557 10.204985,0.52988 20.420545,0.95778 30.639149,0.90648 10.38395,-0.05 20.763495,-0.46673 31.131988,-1.03531 15.59404,-0.85515 31.1648626,-2.12137 46.69841,-3.73823 1.8e-5,-10e-6 3.5e-5,-10e-6 5.3e-5,-10e-6 40.93588,-4.26097 81.65061,-10.9065 121.640354,-20.63905 38.88493,-9.46372 76.76236,-22.61289 114.53893,-35.8239 35.7507,-12.50253 71.43406,-25.43062 108.17487,-34.6251 36.90001,-9.23442 74.40238,-16.15649 112.23505,-20.10297 2e-5,0 3e-5,0 5e-5,-10e-6 31.28862,-3.26384 62.93282,-4.84827 94.1925,-1.31802 21.71476,2.45231 43.50238,9.05545 60.72303,22.50884 2e-5,1e-5 3e-5,2e-5 4e-5,3e-5 6.16329,4.81499 11.71451,10.55604 15.54031,17.37758 3.03659,5.41434 4.93271,11.62881 4.38982,17.81275 -0.47284,5.38658 -2.59037,10.58797 -5.87152,14.88598 -3.27999,4.2965 -7.59188,7.73845 -12.2856,10.41934 -4.74427,2.70977 -9.90101,4.67831 -15.2144,5.95058 -4.79226,1.14749 -9.73821,1.76125 -14.65788,1.4797 -7.7392,-0.44265 -15.44703,-3.37039 -21.0348,-8.74327 -2.25176,-2.16517 -4.15733,-4.73196 -5.31889,-7.63181 -0.99731,-2.4898 -1.41226,-5.26341 -0.83293,-7.88222 0,-3e-5 10e-6,-7e-5 2e-5,-1e-4 2.73554,1.04679 5.71053,1.3483 8.63906,1.29675 3.39245,-0.0597 6.77812,-0.63874 9.98942,-1.73413 3.21212,-1.09566 6.27575,-2.73105 8.75562,-5.04804 2.46483,-2.30292 4.25814,-5.34089 4.9377,-8.64498 10e-6,-3e-5 10e-6,-7e-5 2e-5,-10e-5 0.36172,-1.76026 0.25656,-3.60556 -0.24039,-5.33251 -0.55843,-1.94057 -1.57391,-3.72849 -2.80264,-5.33094 -3.30735,-4.31331 -7.96517,-7.40671 -12.77701,-9.93443 -15.45799,-8.12025 -33.20273,-10.91389 -50.63578,-11.90202 -4e-5,0 -7e-5,0 -1.1e-4,-10e-6 -13.4544,-0.7626 -26.94708,-0.61583 -40.41382,-0.1164 -17.60088,0.65275 -35.17289,2.00979 -52.68337,3.90713 -3e-5,10e-6 -7e-5,10e-6 -10e-5,2e-5 -41.40037,4.48593 -82.53531,11.88624 -122.607,23.21646 -31.57521,8.92779 -63.14867,17.86481 -94.8195,26.44722 -34.09833,9.24024 -68.31238,18.04787 -102.5589,26.72278 -24.31771,6.15977 -49.161504,10.04129 -74.059524,13.10439 -27.22874,3.34983 -54.5916187,5.56943 -81.991548,6.93675 -3.5e-5,1e-5 -7e-5,1e-5 -1.05e-4,1e-5 -24.396335,1.21743 -48.833724,1.80171 -73.254113,1.24689 -9.39027,-0.21334 -18.78001,-0.59243 -28.14121,-1.36097 -6.60779,-0.54248 -13.2261,-1.20001 -19.7057,-2.60427 -3e-5,-1e-5 -7e-5,-1e-5 -1e-4,-2e-5 -11.59006,-2.51174 -23.24147,-4.73717 -34.81154,-7.33945 -13.95912,-3.13961 -27.82619,-6.7423 -41.39659,-11.27646 -14.56416,-4.86619 -28.80687,-10.79702 -42.18427,-18.33624 -13.65756,-7.69712 -26.40836,-17.12319 -37.1747,-28.51883 z"
       id="path3791"
       inkscape:path-effect="#path-effect3793"
       inkscape:original-d="m -306.96509,509.21684 c 9.869,10.434 40.8416,34.0148 86.7758,47.4034 46.1546,13.4528 130.029995,18.4492 159.110995,18.3032 29.081,-0.14 111.9766,-4.1186 199.470805,-25.4126 76.3776,-18.5886 154.8216,-53.4588 222.7138,-70.449 76.4436,-19.1304 154.0408,-27.3372 206.4276,-21.421 52.3868,5.9162 82.657,34.8744 80.6532,57.6992 -2.0036,22.8248 -30.4056,33.7442 -48.0294,32.7356 -17.6238,-1.008 -29.4068,-14.2216 -27.1866,-24.2574 9.47,3.6238 29.432,-0.08 32.3218,-14.1304 2.8898,-14.062 -22.9246,-30.0326 -66.4558,-32.5 -43.5314,-2.4674 -132.8266,3.5736 -215.7044,27.0072 -76.3114,21.5768 -110.7478,31.2258 -197.3784,53.17 -86.049205,21.7966 -237.7032,25.8722 -277.1522,17.3228 -39.449,-8.5492 -111.9172,-19.2696 -155.5672,-65.471 z"
       inkscape:connector-curvature="0"
       sodipodi:nodetypes="cszsszzzczzsszc" />
  </g>
</svg>
