<?xml version="1.0" encoding="UTF-8" standalone="no"?>
<!-- Created with Inkscape (http://www.inkscape.org/) -->

<svg
   xmlns:dc="http://purl.org/dc/elements/1.1/"
   xmlns:cc="http://creativecommons.org/ns#"
   xmlns:rdf="http://www.w3.org/1999/02/22-rdf-syntax-ns#"
   xmlns:svg="http://www.w3.org/2000/svg"
   xmlns="http://www.w3.org/2000/svg"
   xmlns:sodipodi="http://sodipodi.sourceforge.net/DTD/sodipodi-0.dtd"
   xmlns:inkscape="http://www.inkscape.org/namespaces/inkscape"
   width="3851.4688"
   height="158.28125"
   id="svg2"
   version="1.1"
   inkscape:version="0.48.5 r10040"
   sodipodi:docname="ornament_straight.svg">
  <defs
     id="defs4">
    <inkscape:path-effect
       effect="skeletal"
       id="path-effect3861"
       is_visible="true"
       pattern="m 579.80792,29.95958 1,0"
       copytype="single_stretched"
       prop_scale="1"
       scale_y_rel="false"
       spacing="0"
       normal_offset="0"
       tang_offset="0"
       prop_units="false"
       vertical_pattern="false"
       fuse_tolerance="0" />
    <inkscape:path-effect
       effect="skeletal"
       id="path-effect3857"
       is_visible="true"
       pattern="M 0,0 1,0"
       copytype="single_stretched"
       prop_scale="1"
       scale_y_rel="false"
       spacing="0"
       normal_offset="0"
       tang_offset="0"
       prop_units="false"
       vertical_pattern="false"
       fuse_tolerance="0" />
    <inkscape:path-effect
       effect="skeletal"
       id="path-effect3793"
       is_visible="true"
       pattern="m -134.52467,-457.13109 1,0"
       copytype="single_stretched"
       prop_scale="1"
       scale_y_rel="false"
       spacing="0"
       normal_offset="0"
       tang_offset="0"
       prop_units="false"
       vertical_pattern="false"
       fuse_tolerance="0" />
    <inkscape:path-effect
       effect="skeletal"
       id="path-effect3019"
       is_visible="true"
       pattern="M 0,0 1,0"
       copytype="single_stretched"
       prop_scale="1"
       scale_y_rel="false"
       spacing="0"
       normal_offset="0"
       tang_offset="0"
       prop_units="false"
       vertical_pattern="false"
       fuse_tolerance="0" />
    <inkscape:path-effect
       effect="skeletal"
       id="path-effect2993"
       is_visible="true"
       pattern="M 0,0 1,0"
       copytype="single_stretched"
       prop_scale="1"
       scale_y_rel="false"
       spacing="0"
       normal_offset="0"
       tang_offset="0"
       prop_units="false"
       vertical_pattern="false"
       fuse_tolerance="0" />
    <inkscape:path-effect
       effect="skeletal"
       id="path-effect2987"
       is_visible="true"
       pattern="m 62.142857,28.214286 1,0"
       copytype="single_stretched"
       prop_scale="1"
       scale_y_rel="false"
       spacing="0"
       normal_offset="0"
       tang_offset="0"
       prop_units="false"
       vertical_pattern="false"
       fuse_tolerance="0" />
    <inkscape:path-effect
       effect="skeletal"
       id="path-effect3861-7"
       is_visible="true"
       pattern="m 143.27124,510.28752 1,0"
       copytype="single_stretched"
       prop_scale="1"
       scale_y_rel="false"
       spacing="0"
       normal_offset="0"
       tang_offset="0"
       prop_units="false"
       vertical_pattern="false"
       fuse_tolerance="0" />
  </defs>
  <sodipodi:namedview
     id="base"
     pagecolor="#ffffff"
     bordercolor="#666666"
     borderopacity="1.0"
     inkscape:pageopacity="0.0"
     inkscape:pageshadow="2"
     inkscape:zoom="0.23139381"
     inkscape:cx="2746.0603"
     inkscape:cy="530.21881"
     inkscape:document-units="px"
     inkscape:current-layer="layer1"
     showgrid="false"
     showguides="true"
     inkscape:guide-bbox="true"
     inkscape:window-width="1366"
     inkscape:window-height="768"
     inkscape:window-x="0"
     inkscape:window-y="0"
     inkscape:window-maximized="0"
     fit-margin-left="5"
     fit-margin-top="5"
     fit-margin-right="5"
     fit-margin-bottom="5"
     inkscape:snap-global="false" />
  <metadata
     id="metadata7">
    <rdf:RDF>
      <cc:Work
         rdf:about="">
        <dc:format>image/svg+xml</dc:format>
        <dc:type
           rdf:resource="http://purl.org/dc/dcmitype/StillImage" />
        <dc:title />
      </cc:Work>
    </rdf:RDF>
  </metadata>
  <g
     inkscape:label="Layer 1"
     inkscape:groupmode="layer"
     id="layer1"
     transform="translate(1809.5,-500.03125)">
    <path
       style="opacity:0.87346939;fill:#000000;fill-opacity:1;stroke:#000000;stroke-width:0;stroke-linejoin:miter;stroke-miterlimit:4;stroke-opacity:1;stroke-dasharray:none"
       d="m 116.2444,539.64429 c -12.96983,0 -23.884537,6.00226 -31.691171,15.89385 -7.806639,9.8916 -26.331428,8.61396 -39.654181,10.27148 -58.721109,7.56392 -1412.300648,8.7145 -1642.904648,11.90301 -125.2426,-5.9123 -134.807,-27.96875 -177.0312,-27.96875 -16.2338,0 -29.4063,13.17237 -29.4063,29.40625 0,16.23388 13.1725,29.40625 29.4063,29.40625 42.2242,0 51.7886,-22.0252 177.0312,-27.9375 230.604,3.18851 1584.183534,4.33106 1642.904648,11.89498 13.322753,1.65752 31.847542,0.37988 39.654181,10.27147 7.806634,9.8916 18.721341,15.89385 31.691171,15.89385 l 0,0.008 c 12.96984,0 23.88452,-6.0103 31.69117,-15.9019 7.80662,-9.89159 26.33143,-8.60591 39.65418,-10.26343 58.72113,-7.56392 1412.30065,-8.7145 1642.90465,-11.90301 125.2426,5.9123 134.807,27.9375 177.0312,27.9375 16.2338,0 29.4063,-13.14112 29.4063,-29.375 l -295.9687,0 -1,-0.0312 296.9687,0 c 0,-16.23388 -13.1725,-29.375 -29.4063,-29.375 -42.2242,0 -51.7886,22.0252 -177.0312,27.9375 -63.4694,-0.87758 -47.6094,-3.59417 -330.0312,-5.9375 -282.4218,-2.34333 -1218.73441,5.78739 -1312.87345,-5.96554 -13.32275,-1.65753 -31.84756,-0.37184 -39.65418,-10.26344 -7.80665,-9.89163 -18.72133,-15.90193 -31.69117,-15.90193 z m -1627.75,39.41209 7.625,0 -1.0625,0.0312 c -2.161,-0.0125 -4.4243,-0.0136 -6.5625,-0.0312 z m 3248.4062,0 7.0938,0 c -2.0466,0.0169 -4.2139,0.019 -6.2812,0.0312 z"
       id="path2991"
       inkscape:connector-curvature="0"
       sodipodi:nodetypes="ssccsssccsccsccsccccsczcsscccccccc" />
  </g>
</svg>
