<?xml version="1.0" encoding="UTF-8" standalone="no"?>
<!-- Created with Inkscape (http://www.inkscape.org/) -->

<svg
   xmlns:dc="http://purl.org/dc/elements/1.1/"
   xmlns:cc="http://creativecommons.org/ns#"
   xmlns:rdf="http://www.w3.org/1999/02/22-rdf-syntax-ns#"
   xmlns:svg="http://www.w3.org/2000/svg"
   xmlns="http://www.w3.org/2000/svg"
   xmlns:sodipodi="http://sodipodi.sourceforge.net/DTD/sodipodi-0.dtd"
   xmlns:inkscape="http://www.inkscape.org/namespaces/inkscape"
   width="8052.6592"
   height="1358.9128"
   id="svg2"
   version="1.1"
   inkscape:version="0.48.4 r9939"
   sodipodi:docname="ornament_title_small.svg">
  <defs
     id="defs4">
    <inkscape:path-effect
       effect="skeletal"
       id="path-effect3793"
       is_visible="true"
       pattern="m -134.52467,-457.13109 1,0"
       copytype="single_stretched"
       prop_scale="1"
       scale_y_rel="false"
       spacing="0"
       normal_offset="0"
       tang_offset="0"
       prop_units="false"
       vertical_pattern="false"
       fuse_tolerance="0" />
    <inkscape:path-effect
       effect="skeletal"
       id="path-effect3019"
       is_visible="true"
       pattern="M 0,0 1,0"
       copytype="single_stretched"
       prop_scale="1"
       scale_y_rel="false"
       spacing="0"
       normal_offset="0"
       tang_offset="0"
       prop_units="false"
       vertical_pattern="false"
       fuse_tolerance="0" />
    <inkscape:path-effect
       effect="skeletal"
       id="path-effect2993"
       is_visible="true"
       pattern="M 0,0 1,0"
       copytype="single_stretched"
       prop_scale="1"
       scale_y_rel="false"
       spacing="0"
       normal_offset="0"
       tang_offset="0"
       prop_units="false"
       vertical_pattern="false"
       fuse_tolerance="0" />
    <inkscape:path-effect
       effect="skeletal"
       id="path-effect2987"
       is_visible="true"
       pattern="m 62.142857,28.214286 1,0"
       copytype="single_stretched"
       prop_scale="1"
       scale_y_rel="false"
       spacing="0"
       normal_offset="0"
       tang_offset="0"
       prop_units="false"
       vertical_pattern="false"
       fuse_tolerance="0" />
  </defs>
  <sodipodi:namedview
     id="base"
     pagecolor="#ffffff"
     bordercolor="#666666"
     borderopacity="1.0"
     inkscape:pageopacity="0.0"
     inkscape:pageshadow="2"
     inkscape:zoom="0.175"
     inkscape:cx="2152.485"
     inkscape:cy="-102.74441"
     inkscape:document-units="px"
     inkscape:current-layer="layer1"
     showgrid="false"
     showguides="true"
     inkscape:guide-bbox="true"
     inkscape:window-width="1920"
     inkscape:window-height="1080"
     inkscape:window-x="1366"
     inkscape:window-y="0"
     inkscape:window-maximized="0"
     fit-margin-left="20"
     fit-margin-top="20"
     fit-margin-right="20"
     fit-margin-bottom="20">
    <sodipodi:guide
       orientation="0,1"
       position="4037.0882,806.73607"
       id="guide3789" />
  </sodipodi:namedview>
  <metadata
     id="metadata7">
    <rdf:RDF>
      <cc:Work
         rdf:about="">
        <dc:format>image/svg+xml</dc:format>
        <dc:type
           rdf:resource="http://purl.org/dc/dcmitype/StillImage" />
        <dc:title></dc:title>
      </cc:Work>
    </rdf:RDF>
  </metadata>
  <g
     inkscape:label="Layer 1"
     inkscape:groupmode="layer"
     id="layer1"
     transform="translate(3682.0196,131.15989)">
    <path
       style="fill:#000000;fill-opacity:1;fill-rule:evenodd;stroke:none"
       d="m -2622.4855,-110.63671 c 397.1774,7.6031 881.9368,96.147401 1361.25,250 567.59179,182.1888 1223.344639,555.673 1861.87504,755 731.46816,228.33901 1503.12716,270.93401 1746.24996,272.50001 243.1228,1.566 865.3882,-51.9932 1251.25,-196.25001 273.2848,-102.1692 493.3118,-296.9298 591.25,-433.75 -1.4706,0.038 -2.8952,0 -4.375,0 -91.4504,0 -165.625,-74.1746 -165.625,-165.625 0,-91.4504 74.1746,-165 165.625,-165 91.4504,0 165.625,73.5496 165.625,165 0,33.48862 -9.7823,65.19546 -26.875,91.25 -0.174,0.236 -0.4512,0.3892 -0.625,0.625 -4.0101,6.0446 -8.3774,11.42266 -13.125,16.875 -365.857,481.1492 -947.1717,625.60321 -1290.625,695.00001 -347.6578,70.2466 -1593.7364,37.4804 -2313.12496,-196.25001 -724.248001,-235.3092 -1012.0212,-338.6274 -1650.00005,-570 -692.87319,-251.2808 -1439.82059,-316.457399 -1803.74999,-290 -363.9294,26.4574 -579.7846,197.9602 -555.625,348.75 24.1596,150.789 191.4546,190.1072 270.625,151.25 18.5612,107.615 -80.1616,249.8088 -227.5,260.625 -147.3384,10.8162 -384.4986,-106.4956 -401.25,-351.25 -16.7516,-244.7544 235.7858,-555.309599 673.75,-618.749999 109.491,-15.860101 232.6076,-22.534361 365,-20.000001 z"
       id="path3791"
       inkscape:connector-curvature="0" />
  </g>
</svg>
