<?xml version="1.0" encoding="UTF-8" standalone="no"?>
<!-- Created with Inkscape (http://www.inkscape.org/) -->

<svg
   xmlns:dc="http://purl.org/dc/elements/1.1/"
   xmlns:cc="http://creativecommons.org/ns#"
   xmlns:rdf="http://www.w3.org/1999/02/22-rdf-syntax-ns#"
   xmlns:svg="http://www.w3.org/2000/svg"
   xmlns="http://www.w3.org/2000/svg"
   xmlns:sodipodi="http://sodipodi.sourceforge.net/DTD/sodipodi-0.dtd"
   xmlns:inkscape="http://www.inkscape.org/namespaces/inkscape"
   width="415.1152"
   height="129.21347"
   id="svg2"
   version="1.1"
   inkscape:version="0.48.4 r9939"
   sodipodi:docname="New document 1">
  <defs
     id="defs4">
    <inkscape:path-effect
       effect="skeletal"
       id="path-effect3793"
       is_visible="true"
       pattern="M 0,0 1,0"
       copytype="single_stretched"
       prop_scale="1"
       scale_y_rel="false"
       spacing="0"
       normal_offset="0"
       tang_offset="0"
       prop_units="false"
       vertical_pattern="false"
       fuse_tolerance="0" />
    <inkscape:path-effect
       effect="skeletal"
       id="path-effect3019"
       is_visible="true"
       pattern="M 0,0 1,0"
       copytype="single_stretched"
       prop_scale="1"
       scale_y_rel="false"
       spacing="0"
       normal_offset="0"
       tang_offset="0"
       prop_units="false"
       vertical_pattern="false"
       fuse_tolerance="0" />
    <inkscape:path-effect
       effect="skeletal"
       id="path-effect2993"
       is_visible="true"
       pattern="M 0,0 1,0"
       copytype="single_stretched"
       prop_scale="1"
       scale_y_rel="false"
       spacing="0"
       normal_offset="0"
       tang_offset="0"
       prop_units="false"
       vertical_pattern="false"
       fuse_tolerance="0" />
    <inkscape:path-effect
       effect="skeletal"
       id="path-effect2987"
       is_visible="true"
       pattern="m 62.142857,28.214286 1,0"
       copytype="single_stretched"
       prop_scale="1"
       scale_y_rel="false"
       spacing="0"
       normal_offset="0"
       tang_offset="0"
       prop_units="false"
       vertical_pattern="false"
       fuse_tolerance="0" />
  </defs>
  <sodipodi:namedview
     id="base"
     pagecolor="#ffffff"
     bordercolor="#666666"
     borderopacity="1.0"
     inkscape:pageopacity="0.0"
     inkscape:pageshadow="2"
     inkscape:zoom="1.4"
     inkscape:cx="329.70813"
     inkscape:cy="-81.856042"
     inkscape:document-units="px"
     inkscape:current-layer="layer1"
     showgrid="false"
     showguides="true"
     inkscape:guide-bbox="true"
     inkscape:window-width="1598"
     inkscape:window-height="1080"
     inkscape:window-x="1416"
     inkscape:window-y="0"
     inkscape:window-maximized="0"
     fit-margin-left="5"
     fit-margin-top="5"
     fit-margin-right="5"
     fit-margin-bottom="5">
    <sodipodi:guide
       orientation="0,1"
       position="220.54395,165.32773"
       id="guide3789" />
  </sodipodi:namedview>
  <metadata
     id="metadata7">
    <rdf:RDF>
      <cc:Work
         rdf:about="">
        <dc:format>image/svg+xml</dc:format>
        <dc:type
           rdf:resource="http://purl.org/dc/dcmitype/StillImage" />
        <dc:title></dc:title>
      </cc:Work>
    </rdf:RDF>
  </metadata>
  <g
     inkscape:label="Layer 1"
     inkscape:groupmode="layer"
     id="layer1"
     transform="translate(-134.52467,-457.13109)">
    <path
       style="fill:#050d07;fill-opacity:1;fill-rule:evenodd;stroke:none"
       d="m 164.6875,488.56754 c -2.43785,0.27869 -4.72939,1.33723 -6.80254,2.64981 -2.4219,1.53338 -4.58632,3.45131 -6.53559,5.55304 -3.84945,4.15051 -7.11442,9.02976 -8.49223,14.52036 -0.96821,3.85835 -1.32441,7.90526 -0.66468,11.82814 10e-6,3e-5 10e-6,6e-5 2e-5,9e-5 0.52548,3.12453 1.68503,6.1031 2.92604,9.01835 3.32897,7.82005 9.54314,14.06677 16.43598,19.03909 1e-5,10e-6 3e-5,2e-5 4e-5,3e-5 9.99343,7.209 21.84766,11.41906 33.74696,14.61984 5.32941,1.43356 10.72519,2.62159 16.16523,3.55087 3.71457,0.63454 7.44938,1.19683 11.21184,1.40788 3.90492,0.21904 7.82164,0.0723 11.72822,-0.11497 1e-5,0 3e-5,0 4e-5,0 5.84405,-0.28012 11.67703,-0.7846 17.48513,-1.48979 6.55931,-0.79639 13.09125,-1.84938 19.53742,-3.30052 2e-5,0 3e-5,0 5e-5,-10e-6 6.09786,-1.37272 12.1443,-3.07449 17.8849,-5.54711 1e-5,-10e-6 3e-5,-10e-6 4e-5,-2e-5 6.27957,-2.70478 12.42989,-5.78159 18.01541,-9.72504 5.90044,-4.16577 11.19049,-9.12642 16.42022,-14.10826 5.99015,-5.70621 9.741,-13.48633 11.55746,-21.55747 0.76296,-3.39008 1.20976,-6.851 1.34206,-10.32335 0,-3e-5 0,-6e-5 0,-9e-5 0.0964,-2.5313 0.0521,-5.07628 -0.31023,-7.58337 -1.08397,-7.50003 -5.20345,-14.63485 -11.63332,-18.64511 -10e-6,-1e-5 -3e-5,-2e-5 -4e-5,-2e-5 -5.65724,-3.52837 -12.49216,-5.64718 -19.08015,-4.62146 -4.17427,0.64992 -8.23165,2.20432 -11.66844,4.66103 -4.43085,3.16729 -7.45542,8.20912 -8.10781,13.61639 -0.35966,2.98096 0.0215,6.05149 1.13342,8.84058 10e-6,3e-5 2e-5,6e-5 3e-5,9e-5 1.02506,2.5711 2.63652,4.89492 4.61316,6.8325 3.4542,3.38593 8.07656,5.94775 12.91147,5.8077 2e-5,0 3e-5,0 5e-5,0 3.37872,-0.0979 6.68869,-1.38143 9.32836,-3.49271 1.59296,-1.27411 3.03797,-2.78164 4.01926,-4.56992 1.15939,-2.11285 1.08229,-4.8457 0.0438,-7.02053 -0.56159,-1.17611 -1.42391,-2.19333 -2.419,-3.03501 -0.33304,-0.28169 -0.68189,-0.54485 -1.04608,-0.78491 -1e-5,-10e-6 -2e-5,-2e-5 -4e-5,-3e-5 -0.10545,-0.0695 -0.2122,-0.1371 -0.32074,-0.2017 -1e-5,-10e-6 -2e-5,-10e-6 -4e-5,-2e-5 -10e-6,-10e-6 -2e-5,-2e-5 -4e-5,-3e-5 -0.0297,-0.0177 -0.0595,-0.0351 -0.0895,-0.0522 -1e-5,0 -3e-5,-10e-6 -4e-5,-2e-5 -0.0114,-0.006 -0.0232,-0.0131 -0.0347,-0.0194 -3e-5,-2e-5 -6e-5,-3e-5 -8e-5,-5e-5 0.003,0.0185 0.006,0.0379 0.008,0.0564 0.007,0.05 0.0124,0.10025 0.0169,0.15054 0.0164,0.18161 0.0209,0.36418 0.017,0.54648 -0.0133,0.61634 -0.1255,1.2299 -0.32357,1.8137 -0.6876,2.02674 -2.45318,3.53408 -4.39944,4.4243 -1e-5,10e-6 -3e-5,10e-6 -4e-5,2e-5 -2.14054,0.97907 -4.80278,0.60936 -6.57614,-0.93844 -3e-5,-2e-5 -5e-5,-4e-5 -7e-5,-6e-5 -0.72543,-0.63317 -1.33493,-1.39895 -1.79237,-2.24624 -0.31305,-0.57985 -0.62172,-1.20874 -0.58727,-1.8668 0.0396,-0.75615 0.23598,-1.49682 0.47178,-2.21636 0.37683,-1.14994 0.91976,-2.24718 1.62348,-3.23163 1.9749,-2.76279 5.36596,-4.29817 8.7592,-4.4366 3.5859,-0.14629 7.36397,0.90199 9.79447,3.54259 2.20005,2.39023 3.21308,5.67783 3.47396,8.91594 0.25003,3.10343 -0.1351,6.34278 -1.72645,9.01887 -10e-6,10e-6 -10e-6,2e-5 -2e-5,4e-5 -2.06031,3.46469 -5.54275,5.83469 -9.05652,7.81014 -4.5757,2.57247 -10.16246,2.747 -15.33335,1.84339 -2.39252,-0.41809 -4.74371,-1.06883 -7.0167,-1.92464 -1.73468,-0.65313 -3.44026,-1.40737 -5.00913,-2.39446 -10e-6,-10e-6 -3e-5,-2e-5 -4e-5,-2e-5 -2.34964,-1.47835 -4.40023,-3.41672 -6.08234,-5.62508 -1.37451,-1.80453 -2.57766,-3.79811 -3.10771,-6.00371 -0.37518,-1.56118 -0.0221,-3.1868 0.20877,-4.77573 1e-5,-3e-5 1e-5,-6e-5 2e-5,-9e-5 0.0817,-0.56219 0.16108,-1.15431 -0.0363,-1.68699 -0.18939,-0.511 -0.71395,-0.82071 -1.24387,-0.9479 -0.59169,-0.14202 -1.22378,0.13268 -1.59028,0.61842 -10e-6,10e-6 -2e-5,2e-5 -3e-5,3e-5 -0.47631,0.6313 -0.73031,1.3987 -1.01552,2.1363 -0.33808,0.87434 -0.68126,1.75459 -1.18582,2.54464 -0.51006,0.79865 -1.22138,1.49149 -2.10121,1.84346 -2.3354,0.93427 -4.96681,0.78217 -7.45979,0.44751 -2.55564,-0.34306 -5.12626,-0.9479 -7.36164,-2.23322 -3e-5,-2e-5 -5e-5,-3e-5 -8e-5,-5e-5 -3.00203,-1.72616 -5.54348,-4.61322 -6.07135,-8.03567 -0.2074,-1.36887 -0.10246,-2.84632 0.62455,-4.02457 0.46797,-0.75844 1.39689,-1.35823 2.22144,-1.02007 0.56503,0.23173 1.07077,0.70216 1.15017,1.30768 0.0472,0.35977 -0.0412,0.72205 -0.14571,1.06951 0,10e-6 -10e-6,3e-5 -10e-6,4e-5 -0.21747,0.72287 -1.22234,0.85157 -1.93458,0.60144 -1e-5,-10e-6 -3e-5,-10e-6 -4e-5,-2e-5 0.009,0.97185 0.98036,1.64471 1.84529,2.08797 1e-5,10e-6 3e-5,2e-5 4e-5,3e-5 1.14819,0.58842 2.44548,0.89918 3.73502,0.85843 2.37849,-0.0752 4.48317,-1.67251 5.74044,-3.69294 0.99176,-1.59376 1.85018,-3.26529 2.59219,-4.98955 0.39883,-0.92677 0.9687,-1.79659 1.76697,-2.41363 1.03733,-0.80184 2.2889,-1.27067 3.51806,-1.72693 -2e-5,0 -3e-5,0 -5e-5,0 -1.24936,-0.12461 -2.52441,-0.0311 -3.75091,-0.29963 -1e-5,0 -3e-5,-10e-6 -4e-5,-10e-6 -1.3427,-0.294 -2.46658,-1.21665 -3.31881,-2.29506 -0.88844,-1.12423 -1.68029,-2.39422 -1.86492,-3.81518 -0.14875,-1.14488 0.15041,-2.30123 0.56168,-3.37999 0.43608,-1.14384 0.98719,-2.27098 1.86641,-3.12275 10e-6,-10e-6 2e-5,-2e-5 3e-5,-3e-5 1.47815,-1.43197 3.42084,-2.27469 5.32068,-3.06594 -10e-6,3e-5 -2e-5,6e-5 -3e-5,9e-5 -0.25071,0.82141 -0.36842,1.70973 -0.157,2.54212 10e-6,2e-5 10e-6,3e-5 10e-6,5e-5 0.1222,0.48107 0.38547,0.93225 0.77647,1.23799 0.52504,0.41056 1.21439,0.55336 1.88054,0.57494 4.10282,0.13291 8.08457,-1.29887 11.9742,-2.61095 6.34692,-2.14098 13.01518,-3.44469 19.70505,-3.10875 4.61577,0.23178 9.24519,0.77862 13.65939,2.14752 4.88296,1.51426 9.41699,4.03973 13.48343,7.13817 2e-5,1e-5 3e-5,2e-5 4e-5,3e-5 5.35394,4.07946 8.84854,10.25776 10.67285,16.73685 2.43579,8.65075 1.98389,17.94491 -0.22642,26.656 -2.38794,9.41116 -7.47555,18.01836 -13.99278,25.21543 -5.13596,5.67172 -11.11677,10.56523 -17.61436,14.606 -3.93661,2.44813 -7.78433,5.06839 -11.96029,7.08125 -5.68609,2.74076 -11.78888,4.49862 -17.86114,6.22232 2e-5,0 3e-5,0 5e-5,-10e-6 7.76468,-1.11786 15.50783,-2.57937 22.95934,-5.03189 2e-5,-10e-6 3e-5,-10e-6 5e-5,-2e-5 6.43692,-2.1186 12.61848,-5.05544 18.20127,-8.89665 5.64958,-3.88716 10.58567,-8.75205 14.92677,-14.06078 3.77219,-4.61301 7.16403,-9.57226 9.71609,-14.95708 1.91028,-4.03066 3.58088,-8.17974 4.89247,-12.44297 0.48487,-1.57602 0.92368,-3.16835 1.23773,-4.78709 0.2,-1.03092 0.39926,-2.0818 0.29838,-3.12708 -0.10535,-1.09159 -0.64921,-2.08989 -0.86907,-3.16429 -10e-6,-3e-5 -10e-6,-6e-5 -2e-5,-9e-5 -0.41435,-2.02491 0.21038,-4.11049 0.77719,-6.09813 0.83772,-2.93773 2.14445,-5.77702 4.11713,-8.10952 2e-5,-2e-5 4e-5,-5e-5 6e-5,-7e-5 1.77285,-2.09618 4.05832,-3.72246 6.53025,-4.91683 2.34345,-1.13229 4.92915,-1.81651 7.53172,-1.79471 1.80664,0.0151 3.85968,0.30963 4.94847,1.75141 -2.08348,0.003 -3.93183,1.26048 -5.68768,2.38203 -3e-5,2e-5 -5e-5,3e-5 -8e-5,5e-5 -2.52616,1.61357 -4.55759,3.87971 -6.4551,6.20018 -2e-5,2e-5 -4e-5,5e-5 -6e-5,7e-5 -1.30633,1.59753 -2.42866,3.33776 -3.50883,5.09612 -2e-5,3e-5 -3e-5,6e-5 -5e-5,8e-5 -1.54507,2.51518 -2.95201,5.1245 -4.03687,7.86976 -3.51462,8.89382 -6.37818,18.02889 -9.59704,27.03397 -1.33204,3.72651 -3.36737,7.16432 -5.55287,10.46354 -1.8382,2.77496 -3.78765,5.49174 -6.05428,7.92932 2.97345,-1.38638 5.93306,-2.90408 8.39945,-5.06749 1.85381,-1.62608 3.31767,-3.63954 4.76254,-5.63782 3.49267,-4.83042 7.05477,-9.61027 10.60625,-14.39762 10e-6,-2e-5 3e-5,-5e-5 5e-5,-7e-5 3.81708,-5.14538 7.61546,-10.30551 11.52573,-15.38042 -3e-5,-10e-6 -6e-5,-10e-6 -9e-5,-2e-5 -1.24727,-0.27356 -2.54146,-0.55671 -3.57089,-1.31222 -0.92819,-0.68121 -1.3419,-1.89232 -1.25418,-3.04032 0.18443,-2.41354 1.12707,-4.71742 2.28769,-6.8416 1.91899,-3.51215 4.71309,-6.51507 7.95774,-8.85814 2.3167,-1.67297 4.89368,-2.96135 7.54386,-4.03022 3.19756,-1.28964 6.53542,-2.23523 9.93791,-2.79258 3e-5,0 6e-5,-1e-5 9e-5,-1e-5 7.13667,-1.16902 14.85533,-0.56065 20.95432,3.32535 -6.83509,0.92714 -13.46616,3.20042 -19.52526,6.49668 -4.32587,2.35334 -8.32974,5.25204 -12.20654,8.28879 -2e-5,2e-5 -5e-5,4e-5 -7e-5,6e-5 -3.42024,2.67914 -6.25684,6.02835 -8.92419,9.4578 -3.12115,4.01292 -5.96095,8.23885 -8.64577,12.5559 -1.72756,2.77782 -3.58356,5.47314 -5.43838,8.16766 -1.18778,1.72551 -2.4916,3.40045 -3.33883,5.31629 7.73776,-5.59653 15.29768,-11.44519 23.21429,-16.78572 4.54764,-3.06783 9.03991,-6.2613 13.92857,-8.75 -1.13434,-0.73469 -1.81459,-2.06102 -1.98695,-3.40146 -0.3576,-2.7811 1.35831,-5.40965 3.23689,-7.49132 2e-5,-2e-5 4e-5,-5e-5 6e-5,-7e-5 1.69218,-1.87512 3.96536,-3.12993 6.27411,-4.15424 2.96612,-1.31596 6.10079,-2.22328 9.27088,-2.91621 6.97744,-1.52517 14.18766,-2.08864 21.30014,-1.43785 5.60534,0.51289 11.21273,1.4703 16.46823,3.4859 4.24703,1.62883 8.18779,4.01699 11.67766,6.93438 -10.49877,-1.5739 -21.24543,-1.71991 -31.7169,0.0264 -3e-5,1e-5 -6e-5,1e-5 -9e-5,2e-5 -6.24166,1.04091 -12.33428,2.8439 -18.27403,5.02589 -8.55442,3.1425 -16.35041,8.0653 -23.70155,13.45179 -7.49772,5.4939 -14.82931,11.2104 -22.20171,16.87136 -2e-5,2e-5 -5e-5,4e-5 -7e-5,6e-5 -3.42221,2.62776 -6.84518,5.2548 -10.30124,7.83789 -2.24109,1.67501 -4.46482,3.38176 -6.83115,4.87462 -3e-5,2e-5 -5e-5,3e-5 -8e-5,5e-5 -4.24055,2.67525 -8.74175,4.91548 -13.29075,7.02399 -3e-5,2e-5 -5e-5,3e-5 -8e-5,4e-5 -6.21527,2.88084 -12.59379,5.42076 -19.13079,7.46929 -18.02711,5.64926 -36.78335,8.81238 -55.61401,10.32805 -5.42279,0.43648 -10.8721,0.43453 -16.31166,0.34305 -3e-5,0 -6e-5,0 -9e-5,0 -7.14932,-0.12023 -14.2943,-0.48479 -21.42044,-1.07253 -3e-5,0 -6e-5,0 -9e-5,-10e-6 -7.32019,-0.60375 -14.62632,-1.43451 -21.86251,-2.6944 -5.98885,-1.04272 -11.98169,-2.2936 -17.63726,-4.52251 -3e-5,-1e-5 -6e-5,-2e-5 -9e-5,-3e-5 -7.69564,-3.03293 -15.20318,-6.73302 -21.71007,-11.84008 -4.93786,-3.87558 -9.17084,-8.63339 -12.48636,-13.96349 -5.45504,-8.76964 -7.90749,-19.63477 -5.35717,-29.64276 0,-3e-5 1e-5,-6e-5 2e-5,-9e-5 1.18865,-4.66445 3.68188,-8.92809 6.75931,-12.62936 2.77099,-3.33271 6.02778,-6.30204 9.77874,-8.47359 3e-5,-2e-5 5e-5,-3e-5 8e-5,-5e-5 2.91344,-1.68667 6.20034,-2.70253 9.54786,-3.05898 2.47331,-0.26337 5.00478,-0.2283 7.41643,0.38041 1.34663,0.33989 2.73191,0.87952 3.60276,1.96145 0.24607,0.30572 0.45114,0.67878 0.42288,1.07021 -1e-5,3e-5 -1e-5,6e-5 -1e-5,9e-5 -0.0249,0.34405 -0.27937,0.63659 -0.58608,0.79446 -0.55706,0.28672 -1.23499,0.0744 -1.68701,-0.35944 -0.53445,-0.51293 -1.02759,-1.11065 -1.71701,-1.38163 -0.3027,-0.11898 -0.57959,-0.2933 -0.86809,-0.44348 -0.33638,-0.1751 -0.70955,-0.26961 -1.08594,-0.31588 -2.46712,-0.30333 -4.9625,0.16451 -7.43212,0.44683 z"
       id="path3017"
       inkscape:path-effect="#path-effect3019"
       inkscape:original-d="m 164.6875,488.56754 c -8.82822,1.00921 -19.46335,13.29064 -21.83036,22.72321 -2.36701,9.43257 -0.15926,15.16028 2.26138,20.84658 3.0697,7.21101 7.75992,12.7804 16.43598,19.03909 18.64637,13.45102 50.97095,19.0091 61.12407,19.57862 10.15312,0.56952 45.53731,-1.36474 66.6358,-10.45242 15.08111,-6.49583 21.48145,-11.49317 34.43563,-23.8333 12.95418,-12.34013 13.66929,-31.99169 12.58929,-39.46428 -1.08,-7.47259 -4.5003,-14.1963 -11.63332,-18.64511 -5.06558,-3.15936 -12.77359,-5.60339 -19.08019,-4.62148 -6.3066,0.98191 -18.21715,5.35503 -19.77625,18.27742 -1.5591,12.92239 10.66404,21.71243 18.65808,21.48087 7.99405,-0.23155 12.43248,-6.39481 13.34767,-8.06263 0.91519,-1.66782 1.05983,-4.89274 0.0438,-7.02053 -1.27314,-2.66627 -3.91056,-4.09346 -3.91056,-4.09346 0,0 0.82511,4.4733 -4.68042,6.99154 -5.50553,2.51824 -9.04566,-3.33685 -8.95589,-5.05152 0.0898,-1.71468 1.8794,-9.51844 10.85446,-9.88459 8.97506,-0.36615 12.72072,5.66022 13.26843,12.45853 0.54772,6.79831 -1.55725,11.64232 -10.78299,16.82905 -9.22575,5.18673 -22.54347,0.55421 -27.35918,-2.47571 -4.81571,-3.02993 -8.34061,-8.09406 -9.19009,-11.62881 -0.84947,-3.53475 1.76334,-6.7303 -1.07142,-7.41071 -2.83476,-0.68041 -2.14984,5.64547 -5.89286,7.14285 -3.74302,1.49738 -11.20929,0.29123 -14.82143,-1.78571 -3.61214,-2.07694 -5.66632,-5.40921 -6.07143,-8.03572 -0.50609,-3.34034 1.22288,-5.7103 2.84599,-5.04464 1.62311,0.66566 1.1092,2.02908 1.00445,2.37723 -0.10474,0.34815 -0.65439,1.05107 -1.93462,0.60142 0.0144,1.55929 3.04626,3.0265 5.58035,2.94643 2.5341,-0.0801 4.35083,-1.45984 5.74044,-3.69294 1.38961,-2.2331 1.6794,-2.86845 2.59219,-4.98955 0.91279,-2.12109 2.03744,-2.93508 5.28503,-4.14056 -2.90802,-0.29004 -4.73805,0.3559 -7.06981,-2.5947 -2.33177,-2.95061 -2.20693,-4.82482 -1.30324,-7.19517 0.90369,-2.37035 1.67778,-3.89416 7.18712,-6.18872 -0.33061,1.08314 -0.92146,4.24436 2.49999,4.35519 3.42146,0.11084 7.7663,-1.19151 11.9742,-2.61095 4.20789,-1.41943 10.10465,-3.59084 19.70505,-3.10875 9.60041,0.48209 17.77702,2.14938 27.14286,9.28572 9.36584,7.13634 15.61296,23.03097 10.44643,43.39285 -5.16653,20.36188 -21.61183,33.60547 -31.60714,39.82143 -9.99531,6.21596 -11.95831,8.23285 -29.82143,13.30357 17.49401,-2.51857 30.01092,-6.25702 41.16071,-13.92857 11.14979,-7.67155 20.44065,-20.15125 24.64286,-29.01786 4.20221,-8.86661 6.70152,-17.52894 6.42858,-20.35714 -0.27294,-2.8282 -2.01395,-2.52239 -0.0919,-9.26251 1.92202,-6.74013 5.50786,-10.54312 10.64744,-13.02642 5.13958,-2.4833 10.78494,-2.28815 12.48019,-0.0433 -2.01985,0.003 -4.07479,1.3518 -5.68776,2.38208 -2.9746,1.90001 -4.98927,4.40761 -6.4551,6.20018 -1.46583,1.79257 -5.37607,7.47548 -7.54581,12.96603 -3.73169,9.44311 -7.21752,20.37703 -9.59704,27.03397 -2.37952,6.65694 -8.55907,15.11489 -11.60715,18.39286 8.14494,-3.7976 9.86627,-6.14727 13.16199,-10.70531 3.29572,-4.55804 17.61026,-23.90957 22.13203,-29.77811 -2.86498,-0.62837 -5.04924,-1.42009 -4.82516,-4.35256 0.22408,-2.93247 2.46128,-10.07855 10.24543,-15.69974 7.78415,-5.62119 26.02208,-11.40716 38.43618,-3.49746 -15.49136,2.10132 -25.9987,10.29464 -31.73187,14.78553 -5.73316,4.4909 -12.20802,13.39199 -17.56996,22.0137 -3.86992,6.22262 -7.70668,11.06315 -8.77721,13.48395 11.28702,-8.16362 16.98348,-12.58243 23.21429,-16.78572 6.23081,-4.20329 10.79914,-7.15688 13.92857,-8.75 -1.28999,-0.8355 -4.42521,-4.60412 1.25,-10.89285 5.67521,-6.28873 23.49638,-9.72971 36.84513,-8.5083 13.34875,1.22142 21.18457,4.60089 28.14589,10.42028 -25.6161,-3.84019 -42.29863,2.22647 -49.99102,5.0523 -7.69239,2.82583 -15.62287,7.5322 -23.70155,13.45179 -12.57472,9.21404 -33.51845,25.91494 -39.33417,29.58393 -5.81572,3.66899 -18.81948,10.23077 -32.4217,14.49337 -18.52419,5.80503 -39.34535,9.01859 -55.61401,10.32805 -16.26866,1.30946 -58.6067,-0.60595 -77.23214,-7.94643 -18.62544,-7.34048 -27.86926,-15.63187 -34.19643,-25.80357 -6.32717,-10.1717 -7.71026,-20.40884 -5.35715,-29.64285 2.35311,-9.23401 10.15901,-17.40994 16.53813,-21.103 6.37912,-3.69306 13.42708,-3.57137 16.96429,-2.67857 3.53721,0.8928 4.92363,3.06234 3.43955,3.82621 -1.48407,0.76387 -1.87995,-1.14202 -3.40402,-1.74107 -1.52408,-0.59905 -0.55794,-1.32174 -9.38615,-0.31253 z"
       inkscape:connector-curvature="0"
       sodipodi:nodetypes="czsszszzszzzzsczzzzzzzzzzczzczzzczzczzzzzzczzzzzcszszczczzczsczczzczszszzzzzzzzzc" />
    <path
       style="fill:#000000;fill-opacity:1;fill-rule:evenodd;stroke:none"
       d="m 145.3357,544.00291 c 3.45061,4.67937 7.88374,8.55736 12.48318,12.11381 7.2142,5.57828 15.24805,10.10845 23.78993,13.30188 5.44937,2.03728 11.12192,3.4231 16.82199,4.58726 6.32173,1.29113 12.70534,2.26597 19.10932,3.05359 5.90658,0.72645 11.83321,1.29105 17.77115,1.68651 4.26361,0.28395 8.53448,0.51353 12.80745,0.48602 10.88429,-0.0701 21.74505,-1.12049 32.53388,-2.5606 10e-6,0 10e-6,0 2e-5,0 17.21349,-2.2977 34.26958,-5.88975 50.84681,-11.06459 16.42458,-5.12718 32.17915,-12.1652 47.87834,-19.20722 14.87419,-6.67196 29.69614,-13.5822 45.21815,-18.56454 1e-5,0 1e-5,0 2e-5,-10e-6 15.2977,-4.91033 30.9908,-8.64765 46.91535,-10.77833 13.04999,-1.74608 26.34307,-2.59418 39.37336,-0.7067 10e-6,0 10e-6,0 2e-5,0 9.43187,1.36624 18.65078,5.32249 25.38282,12.06832 1e-5,10e-6 1e-5,10e-6 2e-5,2e-5 5.00174,5.012 8.81448,11.80332 8.33098,18.86758 -0.36571,5.34333 -3.2694,10.40246 -7.58988,13.56765 -3.59265,2.63197 -8.04527,4.30981 -12.4869,3.98375 -3.40674,-0.25009 -6.64134,-2.03458 -8.79273,-4.68788 -1.88199,-2.32105 -3.07938,-5.37314 -2.57149,-8.31783 2.39875,1.17732 5.33855,0.83826 7.78685,-0.23221 10e-6,0 3e-5,-10e-6 4e-5,-2e-5 2.9721,-1.29951 5.21072,-4.14098 5.7239,-7.34392 0.31537,-1.96836 -0.24913,-4.00634 -1.272,-5.71737 -1.30032,-2.17514 -3.23926,-3.91035 -5.34089,-5.3264 -10e-6,-10e-6 -2e-5,-2e-5 -4e-5,-3e-5 -6.17712,-4.16206 -13.7374,-5.84126 -21.16626,-6.38133 -5.61954,-0.40854 -11.26537,-0.33011 -16.89338,-0.0624 -7.36798,0.35049 -14.716,1.07943 -22.02209,2.09483 -2e-5,0 -3e-5,0 -5e-5,0 -17.44415,2.42439 -34.69428,6.44311 -51.25091,12.44762 -27.35599,9.92106 -54.83073,19.51572 -82.5061,28.50749 -10.07378,3.27298 -20.49494,5.37507 -30.95761,7.02607 -11.355,1.7918 -22.80124,2.98492 -34.27326,3.71921 -2e-5,0 -3e-5,0 -5e-5,0 -10.19207,0.65237 -20.41233,0.96602 -30.62092,0.66854 -3.92787,-0.11446 -7.85535,-0.31817 -11.76329,-0.72968 -2.77249,-0.29195 -5.55118,-0.64966 -8.23716,-1.39628 -1e-5,0 -3e-5,-10e-6 -4e-5,-10e-6 -4.84129,-1.34574 -9.72358,-2.54232 -14.55154,-3.93512 -5.87441,-1.69469 -11.68452,-3.63762 -17.30416,-6.04597 -6.19819,-2.65628 -12.16839,-5.88059 -17.63344,-9.83112 -5.91323,-4.2745 -11.21214,-9.41585 -15.53939,-15.29059 z"
       id="path3791"
       inkscape:path-effect="#path-effect3793"
       inkscape:original-d="m 145.3357,544.00291 c 4.12529,5.5943 17.07216,18.2373 36.27311,25.41569 19.29309,7.21284 54.35377,9.89164 66.50991,9.81338 12.15614,-0.0783 46.8073,-2.20824 83.38071,-13.62519 31.92652,-9.96635 64.7169,-28.66232 93.09649,-37.77176 31.95421,-10.25684 64.39052,-14.65706 86.28873,-11.48504 21.89821,3.17202 34.55142,18.6982 33.71384,30.93592 -0.83757,12.23772 -12.70986,18.09221 -20.07678,17.5514 -7.36692,-0.54081 -12.29228,-7.62496 -11.36422,-13.00571 3.95852,1.94286 12.30281,-0.0367 13.51079,-7.57615 1.20798,-7.53949 -9.58272,-16.10226 -27.77919,-17.42513 -18.19647,-1.32287 -55.52277,1.91601 -90.16643,14.48005 -31.89894,11.56863 -46.2937,16.74203 -82.5061,28.50749 -35.96943,11.68652 -99.36226,13.87161 -115.85229,9.28786 -16.49003,-4.58376 -46.78243,-10.33156 -65.02857,-35.10281 z"
       inkscape:connector-curvature="0"
       sodipodi:nodetypes="cszsszzzczzsszc" />
  </g>
</svg>
