<?xml version="1.0" encoding="UTF-8" standalone="no"?>
<!-- Created with Inkscape (http://www.inkscape.org/) -->

<svg
   xmlns:dc="http://purl.org/dc/elements/1.1/"
   xmlns:cc="http://creativecommons.org/ns#"
   xmlns:rdf="http://www.w3.org/1999/02/22-rdf-syntax-ns#"
   xmlns:svg="http://www.w3.org/2000/svg"
   xmlns="http://www.w3.org/2000/svg"
   xmlns:sodipodi="http://sodipodi.sourceforge.net/DTD/sodipodi-0.dtd"
   xmlns:inkscape="http://www.inkscape.org/namespaces/inkscape"
   width="410.63297"
   height="75.945641"
   id="svg2"
   version="1.1"
   inkscape:version="0.48.4 r9939"
   sodipodi:docname="ornament_title_big.svg">
  <defs
     id="defs4">
    <inkscape:path-effect
       effect="skeletal"
       id="path-effect3793"
       is_visible="true"
       pattern="m -134.52467,-457.13109 1,0"
       copytype="single_stretched"
       prop_scale="1"
       scale_y_rel="false"
       spacing="0"
       normal_offset="0"
       tang_offset="0"
       prop_units="false"
       vertical_pattern="false"
       fuse_tolerance="0" />
    <inkscape:path-effect
       effect="skeletal"
       id="path-effect3019"
       is_visible="true"
       pattern="M 0,0 1,0"
       copytype="single_stretched"
       prop_scale="1"
       scale_y_rel="false"
       spacing="0"
       normal_offset="0"
       tang_offset="0"
       prop_units="false"
       vertical_pattern="false"
       fuse_tolerance="0" />
    <inkscape:path-effect
       effect="skeletal"
       id="path-effect2993"
       is_visible="true"
       pattern="M 0,0 1,0"
       copytype="single_stretched"
       prop_scale="1"
       scale_y_rel="false"
       spacing="0"
       normal_offset="0"
       tang_offset="0"
       prop_units="false"
       vertical_pattern="false"
       fuse_tolerance="0" />
    <inkscape:path-effect
       effect="skeletal"
       id="path-effect2987"
       is_visible="true"
       pattern="m 62.142857,28.214286 1,0"
       copytype="single_stretched"
       prop_scale="1"
       scale_y_rel="false"
       spacing="0"
       normal_offset="0"
       tang_offset="0"
       prop_units="false"
       vertical_pattern="false"
       fuse_tolerance="0" />
  </defs>
  <sodipodi:namedview
     id="base"
     pagecolor="#ffffff"
     bordercolor="#666666"
     borderopacity="1.0"
     inkscape:pageopacity="0.0"
     inkscape:pageshadow="2"
     inkscape:zoom="1.4"
     inkscape:cx="-133.624"
     inkscape:cy="175.73785"
     inkscape:document-units="px"
     inkscape:current-layer="layer1"
     showgrid="false"
     showguides="true"
     inkscape:guide-bbox="true"
     inkscape:window-width="1598"
     inkscape:window-height="1080"
     inkscape:window-x="1416"
     inkscape:window-y="0"
     inkscape:window-maximized="0"
     fit-margin-left="5"
     fit-margin-top="5"
     fit-margin-right="5"
     fit-margin-bottom="5">
    <sodipodi:guide
       orientation="0,1"
       position="216.0752,165.25249"
       id="guide3789" />
  </sodipodi:namedview>
  <metadata
     id="metadata7">
    <rdf:RDF>
      <cc:Work
         rdf:about="">
        <dc:format>image/svg+xml</dc:format>
        <dc:type
           rdf:resource="http://purl.org/dc/dcmitype/StillImage" />
        <dc:title></dc:title>
      </cc:Work>
    </rdf:RDF>
  </metadata>
  <g
     inkscape:label="Layer 1"
     inkscape:groupmode="layer"
     id="layer1"
     transform="translate(-138.99342,-510.32368)">
    <path
       style="fill:#000000;fill-opacity:1;fill-rule:evenodd;stroke:none"
       d="m 358.125,58.21875 c -19.85887,0.380155 -44.09684,4.80737 -68.0625,12.5 -28.37959,9.10944 -61.16723,27.78365 -93.09375,37.75 -36.57341,11.41695 -75.15636,13.5467 -87.3125,13.625 -12.15614,0.0783 -43.26941,-2.59966 -62.5625,-9.8125 -13.664237,-5.10846 -24.665587,-14.84649 -29.5625,-21.6875 0.07353,0.0019 0.14476,0 0.21875,0 4.57252,0 8.28125,-3.70873 8.28125,-8.28125 0,-4.57252 -3.70873,-8.25 -8.28125,-8.25 -4.57252,0 -8.28125,3.67748 -8.28125,8.25 0,1.674431 0.4891193,3.259773 1.34375,4.5625 0.0087,0.0118 0.02256,0.01946 0.03125,0.03125 0.200509,0.30223 0.418872,0.571133 0.65625,0.84375 18.292854,24.05746 47.358587,31.28016 64.53125,34.75 17.38289,3.51233 79.68682,1.87402 115.65625,-9.8125 36.2124,-11.76546 50.60106,-16.93137 82.5,-28.5 34.64366,-12.56404 71.99103,-15.82287 90.1875,-14.5 18.19647,1.32287 28.98923,9.89801 27.78125,17.4375 -1.20798,7.53945 -9.57273,9.50536 -13.53125,7.5625 -0.92806,5.38075 4.00808,12.49044 11.375,13.03125 7.36692,0.54081 19.22493,-5.32478 20.0625,-17.5625 0.83758,-12.23772 -11.78929,-27.76548 -33.6875,-30.9375 -5.47455,-0.793005 -11.63038,-1.126718 -18.25,-1 z"
       transform="translate(134.52467,457.13109)"
       id="path3791"
       inkscape:connector-curvature="0" />
  </g>
</svg>
